<svg xmlns="http://www.w3.org/2000/svg" xmlns:xlink="http://www.w3.org/1999/xlink" width="500" zoomAndPan="magnify" viewBox="0 0 375 374.999991" height="500" preserveAspectRatio="xMidYMid meet" version="1.0"><path fill="#ff3131" d="M 290.898438 64.488281 C 296.015625 55.660156 288.449219 51.136719 282.289062 45.722656 C 277.226562 41.285156 269.914062 33.71875 263.207031 38.519531 C 264.542969 43.703125 270.132812 48.894531 273.714844 52.289062 C 278.941406 57.253906 284.550781 61.292969 290.898438 64.488281 Z M 308.984375 85.386719 C 306.074219 79.566406 299.476562 69.53125 296.039062 69.023438 C 295.839844 70.96875 293.875 72.835938 291.515625 71.8125 C 281.753906 67.542969 273.40625 61.480469 266.234375 53.597656 C 262.171875 49.09375 257.726562 44.472656 256.683594 38.34375 C 256.296875 37.5625 256.265625 36.664062 256.824219 35.796875 C 252.246094 31.796875 247.226562 28.109375 241.5625 26.011719 C 249.742188 40 260.824219 51.597656 273.109375 62.28125 C 283.828125 71.617188 295.148438 81.433594 308.984375 85.386719 Z M 297.136719 105.867188 C 300.320312 100.859375 303.96875 96.289062 307.910156 91.65625 C 306.582031 91.292969 305.285156 90.921875 304 90.460938 C 297.289062 98.144531 294.839844 99.890625 294.195312 99.320312 C 293.566406 98.785156 294.820312 96.28125 300.847656 89.25 C 300.003906 88.890625 299.167969 88.527344 298.355469 88.152344 C 292.019531 95.6875 289.539062 97.609375 288.910156 97.058594 C 288.296875 96.519531 289.648438 93.832031 295.445312 86.683594 C 294.117188 85.980469 292.820312 85.242188 291.523438 84.484375 C 290.25 86.046875 289.109375 87.386719 288.109375 88.539062 C 286.714844 90.175781 285.5625 91.457031 284.652344 92.371094 C 282.828125 94.214844 281.9375 94.730469 281.597656 94.433594 C 281.269531 94.136719 281.566406 93.117188 282.90625 90.933594 C 283.597656 89.855469 284.507812 88.484375 285.78125 86.757812 C 286.648438 85.605469 287.660156 84.265625 288.835938 82.792969 C 287.101562 81.652344 286.539062 80.53125 284.804688 81.785156 C 283.597656 82.621094 282.675781 84.101562 281.753906 85.222656 C 281.039062 86.109375 277.800781 90.898438 276.230469 89.570312 C 275.582031 89 276.996094 86.242188 283.210938 78.863281 C 282.09375 78.019531 280.972656 77.152344 279.875 76.28125 C 278.90625 77.65625 278.007812 78.839844 277.25 79.839844 C 276.085938 81.191406 275.109375 82.15625 274.328125 82.882812 C 272.78125 84.320312 271.96875 84.660156 271.636719 84.363281 C 271.320312 84.089844 271.519531 83.210938 272.605469 81.445312 C 273.132812 80.554688 273.910156 79.46875 274.910156 78.0625 C 275.601562 76.976562 276.425781 75.734375 277.425781 74.296875 C 276.65625 73.679688 275.933594 73.078125 275.207031 72.484375 C 269.023438 79.457031 266.742188 81.058594 266.113281 80.511719 C 265.476562 79.960938 266.742188 77.46875 272.800781 70.410156 C 271.714844 69.496094 270.648438 68.5625 269.597656 67.652344 C 263.371094 74.667969 260.449219 76.996094 259.835938 76.449219 C 259.1875 75.886719 261.085938 72.679688 267.214844 65.554688 C 266.148438 64.597656 265.09375 63.65625 264.0625 62.710938 C 262.886719 64.0625 261.558594 65.523438 260.65625 66.5 C 259.417969 67.730469 258.21875 68.847656 257.417969 69.507812 C 255.804688 70.816406 254.980469 71.109375 254.683594 70.792969 C 254.386719 70.472656 254.707031 69.53125 255.878906 67.851562 C 256.453125 67.003906 257.375 65.882812 258.429688 64.566406 C 259.273438 63.5 260.558594 61.953125 261.746094 60.535156 C 260.757812 59.601562 259.769531 58.648438 258.789062 57.703125 C 256.945312 59.625 255.375 61.207031 254.046875 62.46875 C 252.738281 63.886719 251.707031 64.972656 250.851562 65.773438 C 249.148438 67.355469 248.28125 67.785156 247.953125 67.519531 C 247.613281 67.222656 247.855469 66.3125 249.128906 64.335938 C 249.765625 63.335938 250.632812 62.074219 251.863281 60.535156 C 253.101562 59.121094 254.652344 57.429688 256.539062 55.453125 C 254.835938 53.726562 253.167969 51.960938 251.566406 50.171875 C 245.601562 56.921875 244.042969 59.128906 243.207031 58.714844 C 242.835938 58.492188 242.933594 57.570312 243.933594 55.484375 C 244.84375 53.726562 246.589844 51.148438 249.445312 47.765625 C 248.117188 46.21875 246.832031 44.679688 245.582031 43.078125 C 237.542969 52.15625 235.53125 53.429688 234.917969 52.90625 C 234.304688 52.367188 235.335938 50.136719 243.59375 40.519531 C 242.648438 39.242188 241.726562 37.960938 240.835938 36.652344 C 240.15625 37.367188 239.53125 38.046875 238.957031 38.683594 C 238.070312 39.707031 237.277344 40.605469 236.542969 41.429688 C 234.996094 43.054688 233.785156 44.339844 232.710938 45.164062 C 230.503906 46.789062 229.527344 47.140625 229.242188 46.789062 C 228.976562 46.449219 229.472656 45.460938 231.117188 43.558594 C 231.941406 42.59375 232.929688 41.199219 234.3125 39.539062 C 234.984375 38.660156 235.742188 37.730469 236.585938 36.664062 C 237.34375 35.828125 238.144531 34.90625 239.003906 33.941406 C 238.265625 32.796875 237.554688 31.644531 236.863281 30.480469 C 236.476562 30.984375 236.015625 31.546875 235.71875 31.953125 C 235.0625 32.929688 234.773438 33.488281 234.238281 34.257812 C 233.105469 35.851562 232.25 37.136719 231.394531 38.015625 C 229.667969 39.714844 228.824219 40.132812 228.527344 39.835938 C 228.1875 39.550781 228.363281 38.660156 229.503906 36.773438 C 230.054688 35.816406 230.636719 34.542969 231.613281 32.898438 C 232.097656 32.050781 232.503906 31.292969 233.105469 30.25 C 233.667969 29.40625 234.765625 28.042969 235.117188 27.472656 C 234.773438 26.867188 234.457031 26.242188 234.105469 25.617188 C 229.734375 30.679688 225.824219 35.355469 222.113281 40.5625 C 224.738281 49.578125 230.976562 55.671875 237.949219 61.875 C 244.382812 67.617188 249.886719 74.195312 256.054688 80.234375 C 266.960938 90.933594 282.804688 99.828125 297.136719 105.867188 Z M 285.464844 120.109375 C 285.484375 119.988281 285.53125 119.855469 285.550781 119.734375 C 275 117.285156 263.886719 108.019531 256.867188 102.726562 C 247.558594 95.71875 238.894531 87.847656 230.941406 79.324219 C 227.320312 75.425781 222.3125 71.011719 219.894531 66.246094 C 217.753906 61.996094 214.339844 58.40625 212.449219 54.011719 C 211.738281 52.386719 211.628906 50.09375 210.011719 49.148438 C 208.96875 48.542969 206.75 48.601562 206.269531 50.058594 C 205.753906 51.75 207.652344 53.660156 208.519531 54.824219 C 209.890625 56.703125 210.988281 58.800781 212.265625 60.757812 C 214.953125 64.863281 218.027344 68.71875 221.28125 72.363281 C 227.703125 79.523438 234.917969 85.878906 242.15625 92.183594 C 253.925781 102.441406 268.980469 117.617188 285.464844 120.109375 Z M 294.589844 113.167969 C 294.6875 113.113281 294.777344 113.082031 294.863281 113.035156 C 294.820312 112.695312 294.765625 112.367188 294.6875 112.046875 C 294.644531 111.925781 294.65625 111.828125 294.632812 111.71875 C 277.0625 104.328125 259.714844 93.589844 246.765625 79.6875 C 241.144531 73.636719 234.6875 68.441406 228.910156 62.523438 C 226.054688 59.582031 223.34375 56.507812 221.058594 53.089844 C 220.003906 51.464844 219.050781 49.820312 218.324219 48.039062 C 217.910156 47.03125 217.390625 44.976562 215.777344 45.230469 C 214.097656 45.515625 213.988281 46.800781 214.636719 48.378906 C 215.757812 51.246094 219.171875 55.113281 219.808594 55.980469 C 222.914062 60.25 226.15625 64.402344 229.546875 68.441406 C 236.335938 76.480469 243.757812 84.023438 251.894531 90.734375 C 259.164062 96.730469 266.808594 101.925781 274.757812 106.976562 C 279.875 110.257812 288.242188 116.683594 294.589844 113.167969 Z M 288.023438 140.742188 C 287.636719 135.988281 286.757812 131.253906 286.078125 126.523438 C 270.179688 124.445312 255.5625 112.234375 243.964844 102.164062 C 229.21875 89.371094 213.933594 76.941406 204.226562 59.832031 C 199.296875 59.019531 194.902344 55.738281 190.148438 56.164062 C 192.730469 66.269531 203.257812 74.679688 209.992188 82.082031 C 218.019531 90.886719 226.527344 98.960938 235.324219 106.976562 C 244.25 115.113281 253.222656 124.929688 264.269531 130.167969 C 271.320312 133.515625 280.0625 138.699219 288.023438 140.742188 Z M 254.410156 189.738281 C 264.09375 178.902344 271.96875 166.976562 281.058594 155.742188 C 283.378906 152.898438 286.417969 150.394531 288.242188 147.308594 C 283.476562 146.167969 279.589844 143.574219 274.953125 141.675781 C 268.082031 138.886719 261.402344 136.140625 255.144531 132.109375 C 244.285156 125.070312 234.808594 115.34375 225.320312 106.601562 C 215.164062 97.234375 206.214844 86.902344 196.78125 76.875 C 191.597656 71.351562 186.710938 65.894531 184.40625 58.835938 C 144.246094 98.488281 107.273438 141.402344 70.15625 183.875 C 61.570312 193.714844 53.105469 203.707031 44.472656 213.503906 C 37.578125 221.34375 28.1875 231.191406 27.507812 242.195312 C 26.695312 255.144531 34.765625 266.761719 42.816406 276.140625 C 51.601562 286.375 60.1875 297.375 70.476562 306.128906 C 81.808594 315.757812 92.789062 325.882812 107.734375 328.386719 C 114.433594 329.519531 120.21875 330.429688 125.800781 325.816406 C 129.6875 322.609375 133.992188 320.007812 138 316.957031 C 160.367188 299.890625 177.003906 274.019531 195.113281 252.761719 C 213.835938 230.730469 235.179688 211.261719 254.410156 189.738281 Z M 325.644531 120.933594 C 333.726562 118.109375 344.90625 111.917969 342.929688 101.472656 C 340.65625 89.242188 325.445312 84.859375 313.355469 79.808594 C 315.210938 83.355469 316.464844 86.59375 316.78125 88.484375 C 316.792969 88.703125 316.804688 88.910156 316.804688 89.097656 C 317.035156 89.976562 316.878906 90.988281 316.066406 91.921875 C 310.511719 98.3125 305.910156 103.539062 301.980469 109.949219 C 301.703125 110.433594 301.320312 110.773438 300.9375 111.027344 C 301.484375 113.882812 301.234375 116.757812 300.246094 119.242188 C 308.65625 122.601562 316.617188 124.074219 325.644531 120.933594 Z M 340.019531 127.257812 C 351.351562 119.285156 357.246094 103.121094 347.464844 91.546875 C 336.933594 79.105469 320.484375 73.382812 305.109375 67.859375 C 305.601562 68.410156 306.121094 68.992188 306.625 69.574219 C 307.074219 69.660156 307.546875 69.847656 307.996094 70.15625 C 321.175781 79.367188 357.6875 85.1875 348.394531 109.566406 C 344.730469 119.207031 335.140625 125.292969 325.390625 127.609375 C 316.101562 129.804688 308.492188 128.9375 300.210938 125.996094 C 300.125 126.125 300.046875 126.28125 299.949219 126.421875 C 312.28125 133.132812 328.09375 135.636719 340.019531 127.257812 Z M 358.839844 105.480469 C 359.058594 120.582031 346.5625 134.460938 332.066406 137.382812 C 318.539062 140.09375 305.824219 137.546875 294.554688 130.652344 C 295.566406 138.722656 298.773438 147.429688 291.921875 153.523438 C 281.125 163.121094 274.230469 176.804688 264.730469 187.652344 C 242.121094 213.511719 216.679688 236.605469 194.75 263.082031 C 183.613281 276.523438 172.785156 290.261719 160.980469 303.152344 C 155.753906 308.875 150.507812 314.617188 144.699219 319.746094 C 140.558594 323.390625 135.617188 325.914062 131.378906 329.40625 C 122.558594 336.699219 117.5625 336.480469 106.570312 334.636719 C 100.609375 333.636719 95.238281 332.527344 89.921875 329.671875 C 84.621094 326.792969 80.699219 321.644531 75.757812 318.21875 C 61.757812 308.445312 51.136719 295.148438 39.925781 282.453125 C 33.285156 274.929688 26.289062 266.289062 23.257812 256.546875 C 15.898438 232.992188 33.21875 217.699219 47.085938 201.070312 C 90.109375 149.515625 135 98.246094 183.019531 51.257812 C 184.03125 50.257812 185.273438 50.125 186.328125 50.488281 C 189.523438 49.335938 192.761719 49.324219 196.066406 50.433594 C 197.824219 51.027344 199.492188 51.785156 201.183594 52.410156 C 200.523438 49.335938 200.832031 46.238281 203.480469 43.933594 C 206.773438 41.101562 211.847656 41.449219 215.921875 41.867188 C 215.8125 41.507812 215.691406 41.164062 215.613281 40.804688 C 215.339844 39.507812 215.765625 38.429688 216.492188 37.683594 C 216.613281 37.433594 216.734375 37.167969 216.921875 36.882812 C 221.421875 30.546875 231.789062 18.597656 231.789062 18.597656 C 233.085938 17.105469 234.828125 17.226562 236.015625 18.09375 C 246.0625 19.28125 254.761719 25.363281 262.105469 31.972656 C 270.132812 28.371094 278.050781 33.554688 285.113281 39.75 C 291.777344 45.601562 299.046875 51.203125 299.136719 58.910156 C 320.910156 67.324219 358.433594 76.753906 358.839844 105.480469 " fill-opacity="1" fill-rule="nonzero"/><path fill="#ff3131" d="M 267.367188 167.292969 C 259.988281 176.035156 253.234375 182.25 252.507812 181.65625 C 251.730469 180.976562 257.363281 173.609375 264.609375 165.011719 C 268.179688 160.683594 271.375 156.71875 273.605469 153.863281 C 275.867188 150.945312 277.347656 149.085938 277.800781 149.375 C 278.171875 149.613281 277.523438 151.855469 275.765625 155.183594 C 273.964844 158.585938 271.011719 162.859375 267.367188 167.292969 " fill-opacity="1" fill-rule="nonzero"/><path fill="#ff3131" d="M 188.589844 250.148438 C 189.3125 250.773438 179.296875 263.730469 165.738281 278.808594 C 151.988281 293.839844 139.292969 304.109375 138.65625 303.546875 C 137.867188 302.746094 149.59375 291.171875 163.089844 276.390625 C 176.566406 261.414062 187.820312 249.476562 188.589844 250.148438 " fill-opacity="1" fill-rule="nonzero"/><path fill="#ff3131" d="M 232.898438 199.207031 C 233.578125 200.050781 227.011719 206.714844 218.875 215.050781 C 210.605469 223.515625 202.90625 229.03125 202.28125 228.371094 C 201.578125 227.589844 208.265625 220.78125 216.339844 212.535156 C 224.507812 204.148438 232.335938 198.492188 232.898438 199.207031 " fill-opacity="1" fill-rule="nonzero"/><path fill="#ff3131" d="M 126.511719 317.515625 C 126.589844 317.746094 125.765625 318.238281 124.152344 318.941406 C 123.359375 319.292969 122.371094 319.722656 121.144531 319.976562 C 119.925781 320.207031 118.550781 320.6875 116.980469 320.734375 C 116.179688 320.796875 115.34375 320.855469 114.5 320.929688 C 113.632812 320.996094 112.742188 320.886719 111.820312 320.84375 C 109.929688 320.832031 107.988281 320.402344 105.921875 320.042969 C 101.859375 319.0625 97.566406 317.382812 93.40625 315.042969 C 85.101562 310.289062 78.875 304.316406 74.78125 299.769531 C 70.664062 295.179688 68.621094 291.996094 68.972656 291.6875 C 69.355469 291.316406 72.113281 293.960938 76.558594 297.980469 C 81.039062 301.988281 87.320312 307.445312 95.152344 311.9375 C 99.082031 314.121094 103.035156 315.757812 106.734375 316.84375 C 108.589844 317.261719 110.371094 317.769531 112.082031 317.898438 C 112.929688 317.988281 113.753906 318.175781 114.542969 318.164062 C 115.34375 318.183594 116.113281 318.207031 116.828125 318.21875 C 118.300781 318.339844 119.617188 318.054688 120.78125 318 C 121.957031 317.964844 122.953125 317.757812 123.765625 317.601562 C 125.425781 317.328125 126.402344 317.285156 126.511719 317.515625 " fill-opacity="1" fill-rule="nonzero"/><path fill="#ff3131" d="M 215.644531 104.175781 C 227.308594 115.320312 236.761719 124.457031 236.070312 125.257812 C 235.488281 125.949219 224.925781 118 213.152344 106.722656 C 201.46875 95.292969 193.597656 84.828125 194.1875 84.132812 C 194.992188 83.386719 204.160156 92.953125 215.644531 104.175781 " fill-opacity="1" fill-rule="nonzero"/><path fill="#ff3131" d="M 53.742188 272.570312 C 57.484375 277.960938 59.847656 281.3125 59.453125 281.664062 C 59.101562 281.949219 56.046875 279.179688 51.71875 274.097656 C 49.589844 271.539062 47.152344 268.375 44.78125 264.585938 C 42.429688 260.796875 40.179688 256.363281 38.742188 251.265625 C 38.335938 250.015625 38.136719 248.730469 37.875 247.457031 C 37.699219 246.183594 37.523438 244.789062 37.488281 243.613281 C 37.46875 243.007812 37.476562 242.425781 37.46875 241.824219 L 37.46875 241.40625 L 37.457031 241.285156 L 37.46875 241.152344 L 37.476562 241.097656 L 37.488281 240.867188 L 37.578125 239.957031 C 37.730469 238.75 37.773438 237.574219 38.082031 236.429688 C 39.027344 231.894531 40.9375 228.171875 42.761719 225.351562 C 46.484375 219.71875 49.335938 216.785156 49.699219 217.015625 C 50.160156 217.324219 47.988281 220.894531 44.945312 226.601562 C 43.460938 229.46875 41.980469 232.984375 41.320312 237.035156 C 41.058594 238.046875 41.089844 239.109375 40.992188 240.1875 L 40.9375 241 L 40.902344 241.195312 L 40.914062 241.242188 L 40.925781 241.328125 L 40.925781 241.777344 C 40.9375 242.351562 40.960938 242.933594 40.96875 243.535156 C 41.058594 244.699219 41.222656 245.710938 41.386719 246.863281 C 41.628906 248.003906 41.816406 249.179688 42.199219 250.320312 C 43.472656 254.96875 45.515625 259.183594 47.625 262.894531 C 49.742188 266.617188 51.90625 269.847656 53.742188 272.570312 " fill-opacity="1" fill-rule="nonzero"/><path fill="#ff3131" d="M 180.792969 67.792969 C 181.539062 68.441406 171.25 81.476562 157.785156 96.925781 C 144.234375 112.234375 132.628906 124.136719 131.894531 123.5 C 131.148438 122.84375 141.546875 109.886719 155.097656 94.566406 C 168.539062 79.136719 180.046875 67.167969 180.792969 67.792969 " fill-opacity="1" fill-rule="nonzero"/><path fill="#ff3131" d="M 89.429688 170.535156 C 90.175781 171.191406 82.652344 181.066406 72.628906 192.582031 C 62.59375 204.125 53.863281 212.941406 53.105469 212.292969 C 52.367188 211.648438 59.890625 201.773438 69.925781 190.234375 C 79.953125 178.714844 88.695312 169.898438 89.429688 170.535156 " fill-opacity="1" fill-rule="nonzero"/></svg>