<svg xmlns="http://www.w3.org/2000/svg" xmlns:xlink="http://www.w3.org/1999/xlink" width="500" zoomAndPan="magnify" viewBox="0 0 375 374.999991" height="500" preserveAspectRatio="xMidYMid meet" version="1.0"><defs><clipPath id="f0ef943ddb"><path d="M 39.605469 139 L 335.105469 139 L 335.105469 346.476562 L 39.605469 346.476562 Z M 39.605469 139 " clip-rule="nonzero"/></clipPath></defs><path fill="#ff3131" d="M 286.089844 109.855469 L 271.300781 120.453125 C 269.082031 121.933594 268.589844 125.136719 270.070312 127.355469 C 271.054688 128.835938 272.535156 129.328125 274.011719 129.328125 C 275 129.328125 275.984375 129.082031 276.726562 128.34375 L 291.515625 117.742188 C 293.730469 116.265625 294.226562 113.058594 292.746094 110.84375 C 291.265625 108.871094 288.308594 108.378906 286.089844 109.855469 Z M 286.089844 109.855469 " fill-opacity="1" fill-rule="nonzero"/><g clip-path="url(#f0ef943ddb)"><path fill="#ff3131" d="M 327.992188 208.449219 L 327.992188 163.835938 C 327.992188 150.28125 317.148438 139.1875 303.589844 139.1875 L 64.007812 139.1875 C 50.453125 139.1875 39.605469 150.28125 39.605469 163.835938 L 39.605469 321.585938 C 39.605469 335.140625 50.453125 346.234375 64.007812 346.234375 L 303.589844 346.234375 C 317.148438 346.234375 327.992188 335.140625 327.992188 321.585938 L 327.992188 276.972656 C 332.183594 275.988281 335.386719 272.042969 335.386719 267.359375 L 335.386719 218.0625 C 335.386719 213.378906 332.183594 209.683594 327.992188 208.449219 Z M 325.527344 218.0625 L 325.527344 267.359375 L 247.394531 267.359375 C 239.257812 267.359375 232.605469 260.703125 232.605469 252.570312 L 232.605469 232.851562 C 232.605469 224.71875 239.257812 218.0625 247.394531 218.0625 Z M 303.589844 336.375 L 64.007812 336.375 C 55.875 336.375 49.21875 329.71875 49.21875 321.585938 L 49.21875 163.835938 C 49.21875 155.703125 55.875 149.046875 64.007812 149.046875 L 303.589844 149.046875 C 311.726562 149.046875 318.378906 155.703125 318.378906 163.835938 L 318.378906 208.203125 L 247.394531 208.203125 C 233.835938 208.203125 222.992188 219.296875 222.992188 232.851562 L 222.992188 252.570312 C 222.992188 266.128906 233.835938 277.21875 247.394531 277.21875 L 318.378906 277.21875 L 318.378906 321.585938 C 318.378906 329.71875 311.726562 336.375 303.589844 336.375 Z M 303.589844 336.375 " fill-opacity="1" fill-rule="nonzero"/></g><path fill="#ff3131" d="M 257.746094 242.710938 C 257.746094 243.035156 257.714844 243.355469 257.652344 243.671875 C 257.585938 243.988281 257.492188 244.296875 257.371094 244.597656 C 257.246094 244.898438 257.09375 245.179688 256.914062 245.449219 C 256.734375 245.71875 256.53125 245.96875 256.300781 246.195312 C 256.074219 246.425781 255.824219 246.628906 255.554688 246.808594 C 255.285156 246.988281 255 247.140625 254.703125 247.265625 C 254.402344 247.390625 254.09375 247.484375 253.777344 247.546875 C 253.460938 247.609375 253.140625 247.640625 252.816406 247.640625 C 252.492188 247.640625 252.171875 247.609375 251.855469 247.546875 C 251.535156 247.484375 251.226562 247.390625 250.929688 247.265625 C 250.628906 247.140625 250.347656 246.988281 250.078125 246.808594 C 249.808594 246.628906 249.558594 246.425781 249.328125 246.195312 C 249.101562 245.96875 248.898438 245.71875 248.71875 245.449219 C 248.535156 245.179688 248.386719 244.898438 248.261719 244.597656 C 248.136719 244.296875 248.042969 243.988281 247.980469 243.671875 C 247.917969 243.355469 247.886719 243.035156 247.886719 242.710938 C 247.886719 242.386719 247.917969 242.066406 247.980469 241.75 C 248.042969 241.433594 248.136719 241.125 248.261719 240.824219 C 248.386719 240.523438 248.535156 240.242188 248.71875 239.972656 C 248.898438 239.703125 249.101562 239.453125 249.328125 239.226562 C 249.558594 238.996094 249.808594 238.792969 250.078125 238.613281 C 250.347656 238.433594 250.628906 238.28125 250.929688 238.15625 C 251.226562 238.03125 251.535156 237.9375 251.855469 237.875 C 252.171875 237.8125 252.492188 237.78125 252.816406 237.78125 C 253.140625 237.78125 253.460938 237.8125 253.777344 237.875 C 254.09375 237.9375 254.402344 238.03125 254.703125 238.15625 C 255 238.28125 255.285156 238.433594 255.554688 238.613281 C 255.824219 238.792969 256.074219 238.996094 256.300781 239.226562 C 256.53125 239.453125 256.734375 239.703125 256.914062 239.972656 C 257.09375 240.242188 257.246094 240.523438 257.371094 240.824219 C 257.492188 241.125 257.585938 241.433594 257.652344 241.75 C 257.714844 242.066406 257.746094 242.386719 257.746094 242.710938 Z M 257.746094 242.710938 " fill-opacity="1" fill-rule="nonzero"/><path fill="#ff3131" d="M 212.640625 41.578125 C 213.378906 40.839844 214.363281 40.59375 215.597656 40.59375 C 217.074219 40.59375 218.554688 41.332031 219.539062 42.566406 L 223.484375 47.988281 L 110.101562 129.328125 L 126.863281 129.328125 L 249.117188 41.578125 C 250.105469 40.839844 251.089844 40.59375 252.078125 40.59375 C 253.554688 40.59375 255.035156 41.332031 256.019531 42.566406 L 266.125 56.367188 L 165.808594 129.328125 L 182.566406 129.328125 L 272.042969 64.503906 L 317.394531 126.863281 C 318.132812 127.847656 318.378906 129.082031 318.132812 130.3125 C 318.132812 131.054688 317.640625 131.792969 317.394531 132.285156 C 320.351562 133.519531 323.308594 135.492188 325.773438 137.460938 C 326.761719 135.738281 327.746094 133.765625 327.992188 131.792969 C 328.734375 127.847656 327.746094 123.90625 325.28125 120.949219 L 264.152344 36.898438 C 259.472656 30.242188 250.105469 28.761719 243.695312 33.691406 L 231.617188 42.320312 L 227.675781 36.898438 C 222.992188 30.242188 213.625 28.761719 207.214844 33.691406 L 73.375 129.328125 L 90.136719 129.328125 Z M 212.640625 41.578125 " fill-opacity="1" fill-rule="nonzero"/></svg>