<svg xmlns="http://www.w3.org/2000/svg" xmlns:xlink="http://www.w3.org/1999/xlink" width="500" zoomAndPan="magnify" viewBox="0 0 375 374.999991" height="500" preserveAspectRatio="xMidYMid meet" version="1.0"><defs><clipPath id="a7daf017cd"><path d="M 41 86 L 215 86 L 215 356.25 L 41 356.25 Z M 41 86 " clip-rule="nonzero"/></clipPath><clipPath id="9405408b5f"><path d="M 27.398438 18.75 L 278 18.75 L 278 205 L 27.398438 205 Z M 27.398438 18.75 " clip-rule="nonzero"/></clipPath></defs><path fill="#ff3131" d="M 171.550781 282.882812 C 172.074219 282.882812 172.605469 282.785156 173.117188 282.578125 C 175.257812 281.714844 176.296875 279.277344 175.433594 277.132812 L 146.082031 204.421875 C 145.21875 202.273438 142.777344 201.242188 140.636719 202.109375 C 138.496094 202.972656 137.460938 205.40625 138.324219 207.550781 L 167.675781 280.265625 C 168.332031 281.894531 169.894531 282.882812 171.550781 282.882812 " fill-opacity="1" fill-rule="nonzero"/><g clip-path="url(#a7daf017cd)"><path fill="#ff3131" d="M 153.585938 310.371094 C 152.382812 313.574219 152.496094 317.058594 153.910156 320.175781 L 157.699219 328.527344 C 159.117188 331.648438 161.660156 334.03125 164.863281 335.238281 C 167.773438 336.328125 170.914062 336.339844 173.800781 335.269531 L 178.203125 345.023438 C 181.355469 352.015625 188.339844 356.199219 195.609375 356.199219 C 198.105469 356.199219 200.628906 355.703125 203.042969 354.664062 C 212.378906 350.648438 216.894531 340.050781 213.332031 330.535156 L 166.566406 205.703125 C 165.753906 203.542969 163.339844 202.441406 161.179688 203.253906 C 159.015625 204.0625 157.921875 206.472656 158.730469 208.636719 L 205.496094 333.46875 C 207.496094 338.796875 204.964844 344.734375 199.738281 346.980469 C 194.445312 349.261719 188.203125 346.839844 185.828125 341.582031 L 179.71875 328.039062 C 179.261719 327.027344 178.421875 326.238281 177.378906 325.847656 C 176.34375 325.457031 175.191406 325.488281 174.175781 325.953125 L 171.21875 327.292969 C 170.132812 327.785156 168.921875 327.824219 167.808594 327.40625 C 166.695312 326.988281 165.808594 326.160156 165.316406 325.074219 L 161.53125 316.722656 C 161.039062 315.636719 160.996094 314.429688 161.414062 313.316406 C 161.835938 312.199219 162.664062 311.3125 163.75 310.820312 L 166.753906 309.457031 C 168.851562 308.507812 169.789062 306.03125 168.839844 303.929688 L 159.652344 283.566406 C 159.195312 282.554688 158.355469 281.765625 157.3125 281.375 C 156.277344 280.984375 155.121094 281.019531 154.109375 281.480469 L 151.066406 282.859375 C 148.828125 283.875 146.179688 282.878906 145.164062 280.636719 L 141.375 272.285156 C 140.886719 271.203125 140.84375 269.992188 141.265625 268.878906 C 141.683594 267.761719 142.511719 266.878906 143.597656 266.386719 L 146.683594 264.984375 C 148.785156 264.03125 149.722656 261.558594 148.769531 259.453125 L 141.152344 242.570312 C 140.234375 240.535156 137.878906 239.585938 135.804688 240.402344 L 131.460938 242.117188 C 129.171875 243.023438 126.578125 241.894531 125.675781 239.605469 L 122.308594 231.078125 C 121.871094 229.96875 121.890625 228.757812 122.367188 227.664062 C 122.839844 226.570312 123.710938 225.730469 124.820312 225.292969 L 127.984375 224.042969 C 129.046875 223.621094 129.894531 222.785156 130.324219 221.722656 C 130.753906 220.667969 130.730469 219.476562 130.261719 218.429688 L 126.226562 209.492188 C 125.480469 207.839844 123.753906 206.84375 121.949219 207.058594 C 106.515625 208.785156 90.945312 204.929688 78.113281 196.1875 C 63.753906 186.40625 54.066406 171.621094 50.832031 154.550781 C 47.59375 137.484375 51.195312 120.175781 60.980469 105.820312 C 63.972656 101.429688 67.480469 97.417969 71.410156 93.902344 C 73.132812 92.363281 73.28125 89.71875 71.742188 87.996094 C 70.199219 86.273438 67.558594 86.128906 65.835938 87.667969 C 61.402344 91.632812 57.441406 96.15625 54.066406 101.109375 C 31.277344 134.5625 39.949219 180.316406 73.402344 203.101562 C 87.039062 212.394531 103.421875 216.796875 119.828125 215.648438 L 120.847656 217.90625 C 118.089844 219.242188 115.925781 221.492188 114.691406 224.332031 C 113.328125 227.476562 113.269531 230.960938 114.527344 234.144531 L 117.894531 242.679688 C 120.488281 249.253906 127.953125 252.492188 134.53125 249.898438 L 135.167969 249.648438 L 139.4375 259.113281 C 136.664062 260.578125 134.546875 262.972656 133.433594 265.933594 C 132.230469 269.140625 132.34375 272.625 133.757812 275.746094 L 137.546875 284.097656 C 138.960938 287.214844 141.507812 289.597656 144.714844 290.800781 C 147.652344 291.910156 150.824219 291.90625 153.738281 290.804688 L 159.507812 303.59375 C 156.773438 305.058594 154.6875 307.4375 153.585938 310.371094 " fill-opacity="1" fill-rule="nonzero"/></g><path fill="#ff3131" d="M 226.75 146.632812 C 225.421875 148.523438 225.871094 151.132812 227.757812 152.460938 L 332.199219 226.125 C 336.847656 229.40625 338.097656 235.734375 335.046875 240.535156 C 331.953125 245.402344 325.429688 246.917969 320.511719 243.90625 L 307.835938 236.15625 C 306.886719 235.574219 305.746094 235.394531 304.671875 235.65625 C 303.589844 235.917969 302.660156 236.597656 302.082031 237.546875 L 300.390625 240.324219 C 299.773438 241.339844 298.792969 242.054688 297.636719 242.335938 C 296.480469 242.617188 295.28125 242.429688 294.265625 241.8125 L 286.429688 237.039062 C 285.414062 236.421875 284.699219 235.445312 284.417969 234.285156 C 284.136719 233.128906 284.324219 231.929688 284.945312 230.917969 L 286.660156 228.097656 C 287.855469 226.125 287.234375 223.554688 285.269531 222.355469 L 266.210938 210.699219 C 265.265625 210.121094 264.121094 209.941406 263.046875 210.203125 C 261.964844 210.460938 261.035156 211.140625 260.457031 212.09375 L 258.71875 214.945312 C 258.097656 215.964844 257.121094 216.679688 255.964844 216.960938 C 254.804688 217.238281 253.609375 217.054688 252.589844 216.433594 L 244.761719 211.667969 C 242.660156 210.386719 241.992188 207.636719 243.269531 205.539062 L 245.03125 202.640625 C 246.234375 200.667969 245.609375 198.101562 243.644531 196.898438 L 227.839844 187.234375 C 225.9375 186.066406 223.453125 186.605469 222.199219 188.449219 L 219.574219 192.316406 C 218.191406 194.347656 215.417969 194.878906 213.378906 193.496094 L 205.796875 188.339844 C 203.761719 186.960938 203.230469 184.183594 204.613281 182.148438 L 206.527344 179.332031 C 207.171875 178.386719 207.394531 177.222656 207.15625 176.101562 C 206.914062 174.980469 206.222656 174.011719 205.246094 173.414062 L 196.882812 168.300781 C 195.335938 167.351562 193.355469 167.515625 191.976562 168.695312 C 180.191406 178.820312 165.152344 184.398438 149.628906 184.398438 C 113.765625 184.398438 84.589844 155.21875 84.589844 119.355469 C 84.589844 96.984375 95.871094 76.453125 114.78125 64.433594 C 116.726562 63.191406 117.300781 60.605469 116.0625 58.65625 C 114.824219 56.707031 112.238281 56.132812 110.289062 57.371094 C 88.957031 70.9375 76.222656 94.109375 76.222656 119.355469 C 76.222656 159.832031 109.148438 192.761719 149.628906 192.761719 C 166.128906 192.761719 182.140625 187.179688 195.0625 176.992188 L 197.171875 178.28125 C 195.644531 180.9375 195.125 184.019531 195.707031 187.058594 C 196.347656 190.421875 198.261719 193.335938 201.09375 195.261719 L 208.679688 200.417969 C 214.523438 204.386719 222.515625 202.863281 226.492188 197.015625 L 226.878906 196.449219 L 235.738281 201.867188 C 232.597656 207.808594 234.59375 215.269531 240.410156 218.8125 L 248.242188 223.582031 C 251.167969 225.359375 254.609375 225.898438 257.9375 225.089844 C 260.992188 224.347656 263.613281 222.554688 265.398438 220.007812 L 277.367188 227.328125 C 275.933594 230.078125 275.550781 233.21875 276.292969 236.261719 C 277.101562 239.589844 279.152344 242.402344 282.082031 244.183594 L 289.914062 248.957031 C 292.839844 250.738281 296.28125 251.273438 299.613281 250.464844 C 302.636719 249.730469 305.230469 247.96875 307.015625 245.460938 L 316.144531 251.042969 C 319.207031 252.914062 322.617188 253.808594 325.992188 253.808594 C 332.304688 253.808594 338.503906 250.6875 342.105469 245.023438 C 347.558594 236.449219 345.320312 225.148438 337.019531 219.289062 L 232.578125 145.625 C 230.6875 144.296875 228.082031 144.746094 226.75 146.632812 " fill-opacity="1" fill-rule="nonzero"/><g clip-path="url(#9405408b5f)"><path fill="#ff3131" d="M 44.296875 106.851562 C 46.140625 105.457031 46.503906 102.835938 45.109375 100.992188 C 39.023438 92.941406 35.808594 83.332031 35.808594 73.207031 C 35.808594 47.777344 56.496094 27.089844 81.925781 27.089844 C 107.355469 27.089844 128.046875 47.777344 128.046875 73.207031 C 128.046875 75.550781 127.859375 77.863281 127.515625 80.144531 C 111.546875 80.371094 98.625 93.421875 98.625 109.441406 C 98.625 125.601562 111.769531 138.75 127.929688 138.75 C 144.089844 138.75 157.238281 125.601562 157.238281 109.441406 C 157.238281 101.484375 154.105469 94.039062 148.40625 88.480469 C 146.757812 86.863281 144.109375 86.894531 142.496094 88.546875 C 140.878906 90.199219 140.914062 92.847656 142.566406 94.460938 C 146.636719 98.4375 148.875 103.757812 148.875 109.441406 C 148.875 120.992188 139.480469 130.386719 127.929688 130.386719 C 116.382812 130.386719 106.988281 120.992188 106.988281 109.441406 C 106.988281 98.761719 115.03125 89.941406 125.375 88.671875 C 123.3125 94.46875 120.101562 99.839844 115.847656 104.460938 C 114.277344 106.15625 114.386719 108.804688 116.082031 110.367188 C 116.890625 111.109375 117.90625 111.476562 118.921875 111.476562 C 120.046875 111.476562 121.171875 111.023438 121.992188 110.128906 C 131.292969 100.046875 136.410156 86.933594 136.410156 73.207031 C 136.410156 67.304688 135.453125 61.617188 133.707031 56.292969 C 138.886719 54.988281 144.222656 54.316406 149.628906 54.316406 C 185.492188 54.316406 214.664062 83.492188 214.664062 119.355469 C 214.664062 125.621094 213.761719 131.839844 211.980469 137.859375 C 211.976562 137.871094 211.976562 137.886719 211.972656 137.90625 C 210.273438 143.632812 207.792969 149.101562 204.578125 154.164062 C 203.363281 156.085938 203.898438 158.621094 205.785156 159.886719 L 270.980469 203.453125 C 271.695312 203.929688 272.503906 204.160156 273.300781 204.160156 C 274.652344 204.160156 275.976562 203.507812 276.785156 202.296875 C 278.066406 200.378906 277.550781 197.78125 275.632812 196.5 L 213.738281 155.136719 C 216.601562 150.015625 218.835938 144.578125 220.398438 138.917969 C 220.421875 138.824219 220.425781 138.730469 220.445312 138.636719 C 222.15625 132.347656 223.03125 125.871094 223.03125 119.355469 C 223.03125 78.882812 190.105469 45.953125 149.628906 45.953125 C 143.113281 45.953125 136.679688 46.808594 130.453125 48.488281 C 121.429688 30.839844 103.070312 18.726562 81.925781 18.726562 C 51.882812 18.726562 27.441406 43.167969 27.441406 73.207031 C 27.441406 85.171875 31.246094 96.519531 38.4375 106.039062 C 39.832031 107.878906 42.453125 108.242188 44.296875 106.851562 " fill-opacity="1" fill-rule="nonzero"/></g></svg>