<svg xmlns="http://www.w3.org/2000/svg" xmlns:xlink="http://www.w3.org/1999/xlink" width="500" zoomAndPan="magnify" viewBox="0 0 375 374.999991" height="500" preserveAspectRatio="xMidYMid meet" version="1.0"><defs><clipPath id="d26ef860eb"><path d="M 91.8125 8.226562 L 283.0625 8.226562 L 283.0625 366.726562 L 91.8125 366.726562 Z M 91.8125 8.226562 " clip-rule="nonzero"/></clipPath></defs><g clip-path="url(#d26ef860eb)"><path fill="#ff3131" d="M 256.121094 13.335938 C 256.835938 13.335938 257.546875 13.371094 258.257812 13.441406 C 258.96875 13.511719 259.675781 13.613281 260.375 13.753906 C 261.074219 13.894531 261.769531 14.066406 262.449219 14.273438 C 263.132812 14.480469 263.804688 14.722656 264.464844 14.996094 C 265.125 15.269531 265.769531 15.574219 266.398438 15.910156 C 267.03125 16.246094 267.640625 16.613281 268.234375 17.007812 C 268.828125 17.40625 269.402344 17.832031 269.953125 18.285156 C 270.503906 18.738281 271.035156 19.214844 271.539062 19.722656 C 272.042969 20.226562 272.523438 20.753906 272.976562 21.304688 C 273.429688 21.859375 273.851562 22.429688 274.25 23.023438 C 274.648438 23.617188 275.011719 24.230469 275.351562 24.859375 C 275.6875 25.488281 275.992188 26.132812 276.265625 26.792969 C 276.539062 27.453125 276.777344 28.125 276.984375 28.808594 C 277.191406 29.492188 277.367188 30.183594 277.503906 30.882812 C 277.644531 31.585938 277.75 32.289062 277.820312 33 C 277.890625 33.710938 277.925781 34.421875 277.925781 35.136719 L 277.925781 339.851562 C 277.925781 340.566406 277.890625 341.277344 277.820312 341.988281 C 277.75 342.699219 277.644531 343.402344 277.503906 344.105469 C 277.367188 344.804688 277.191406 345.496094 276.984375 346.179688 C 276.777344 346.863281 276.539062 347.535156 276.265625 348.195312 C 275.992188 348.855469 275.6875 349.5 275.351562 350.128906 C 275.011719 350.757812 274.648438 351.371094 274.25 351.964844 C 273.851562 352.558594 273.429688 353.128906 272.976562 353.683594 C 272.523438 354.234375 272.042969 354.761719 271.539062 355.265625 C 271.035156 355.773438 270.503906 356.25 269.953125 356.703125 C 269.402344 357.15625 268.828125 357.582031 268.234375 357.976562 C 267.640625 358.375 267.03125 358.742188 266.398438 359.078125 C 265.769531 359.414062 265.125 359.71875 264.464844 359.992188 C 263.804688 360.265625 263.132812 360.507812 262.449219 360.714844 C 261.769531 360.921875 261.074219 361.09375 260.375 361.234375 C 259.675781 361.375 258.96875 361.476562 258.257812 361.546875 C 257.546875 361.617188 256.835938 361.652344 256.121094 361.652344 L 118.894531 361.652344 C 118.179688 361.652344 117.46875 361.617188 116.757812 361.546875 C 116.046875 361.476562 115.339844 361.375 114.640625 361.234375 C 113.941406 361.09375 113.246094 360.921875 112.566406 360.714844 C 111.882812 360.507812 111.210938 360.265625 110.550781 359.992188 C 109.890625 359.71875 109.246094 359.414062 108.617188 359.078125 C 107.984375 358.742188 107.375 358.375 106.78125 357.980469 C 106.1875 357.582031 105.613281 357.15625 105.0625 356.703125 C 104.511719 356.25 103.980469 355.773438 103.476562 355.265625 C 102.972656 354.761719 102.492188 354.234375 102.039062 353.683594 C 101.585938 353.128906 101.164062 352.558594 100.765625 351.964844 C 100.367188 351.371094 100.003906 350.757812 99.664062 350.128906 C 99.328125 349.5 99.023438 348.855469 98.75 348.195312 C 98.476562 347.535156 98.238281 346.863281 98.03125 346.179688 C 97.824219 345.496094 97.648438 344.804688 97.511719 344.105469 C 97.371094 343.402344 97.265625 342.699219 97.195312 341.988281 C 97.125 341.277344 97.089844 340.566406 97.089844 339.851562 L 97.089844 35.136719 C 97.089844 34.421875 97.125 33.710938 97.195312 33 C 97.265625 32.289062 97.371094 31.585938 97.511719 30.882812 C 97.648438 30.183594 97.824219 29.492188 98.03125 28.808594 C 98.238281 28.125 98.476562 27.453125 98.75 26.792969 C 99.023438 26.132812 99.328125 25.488281 99.664062 24.859375 C 100.003906 24.230469 100.367188 23.617188 100.765625 23.023438 C 101.164062 22.429688 101.585938 21.859375 102.039062 21.304688 C 102.492188 20.753906 102.972656 20.226562 103.476562 19.722656 C 103.980469 19.214844 104.511719 18.738281 105.0625 18.285156 C 105.613281 17.832031 106.1875 17.40625 106.78125 17.007812 C 107.375 16.613281 107.984375 16.246094 108.617188 15.910156 C 109.246094 15.574219 109.890625 15.269531 110.550781 14.996094 C 111.210938 14.722656 111.882812 14.480469 112.566406 14.273438 C 113.246094 14.066406 113.941406 13.894531 114.640625 13.753906 C 115.339844 13.613281 116.046875 13.511719 116.757812 13.441406 C 117.46875 13.371094 118.179688 13.335938 118.894531 13.335938 L 256.121094 13.335938 M 256.121094 8.226562 L 118.894531 8.226562 C 118.011719 8.226562 117.132812 8.273438 116.257812 8.359375 C 115.378906 8.445312 114.507812 8.574219 113.644531 8.75 C 112.78125 8.921875 111.929688 9.136719 111.085938 9.390625 C 110.242188 9.648438 109.414062 9.945312 108.601562 10.28125 C 107.785156 10.621094 106.992188 10.996094 106.214844 11.414062 C 105.4375 11.828125 104.683594 12.28125 103.949219 12.769531 C 103.21875 13.261719 102.511719 13.785156 101.828125 14.34375 C 101.148438 14.902344 100.496094 15.496094 99.875 16.117188 C 99.25 16.742188 98.660156 17.390625 98.101562 18.074219 C 97.542969 18.753906 97.015625 19.460938 96.527344 20.195312 C 96.039062 20.925781 95.585938 21.679688 95.167969 22.457031 C 94.753906 23.234375 94.375 24.03125 94.039062 24.84375 C 93.703125 25.65625 93.40625 26.484375 93.148438 27.328125 C 92.890625 28.171875 92.675781 29.023438 92.503906 29.890625 C 92.332031 30.753906 92.203125 31.625 92.113281 32.5 C 92.027344 33.378906 91.984375 34.257812 91.984375 35.136719 L 91.984375 339.851562 C 91.984375 340.730469 92.027344 341.609375 92.113281 342.488281 C 92.203125 343.363281 92.332031 344.234375 92.503906 345.097656 C 92.675781 345.964844 92.890625 346.816406 93.148438 347.660156 C 93.40625 348.503906 93.703125 349.332031 94.039062 350.144531 C 94.375 350.957031 94.753906 351.753906 95.167969 352.53125 C 95.585938 353.308594 96.039062 354.0625 96.527344 354.792969 C 97.015625 355.527344 97.542969 356.234375 98.101562 356.914062 C 98.660156 357.597656 99.25 358.246094 99.875 358.871094 C 100.496094 359.492188 101.148438 360.085938 101.828125 360.644531 C 102.511719 361.203125 103.21875 361.726562 103.949219 362.21875 C 104.683594 362.707031 105.4375 363.160156 106.214844 363.574219 C 106.992188 363.992188 107.785156 364.367188 108.601562 364.707031 C 109.414062 365.042969 110.242188 365.339844 111.085938 365.597656 C 111.929688 365.851562 112.78125 366.066406 113.644531 366.238281 C 114.507812 366.414062 115.378906 366.542969 116.257812 366.628906 C 117.132812 366.714844 118.011719 366.761719 118.894531 366.761719 L 256.121094 366.761719 C 257.003906 366.761719 257.882812 366.714844 258.757812 366.628906 C 259.636719 366.542969 260.507812 366.414062 261.371094 366.238281 C 262.234375 366.066406 263.085938 365.851562 263.929688 365.597656 C 264.773438 365.339844 265.601562 365.042969 266.414062 364.703125 C 267.230469 364.367188 268.023438 363.992188 268.800781 363.574219 C 269.578125 363.160156 270.332031 362.707031 271.066406 362.21875 C 271.796875 361.726562 272.503906 361.203125 273.1875 360.644531 C 273.867188 360.085938 274.519531 359.492188 275.140625 358.871094 C 275.765625 358.246094 276.355469 357.597656 276.914062 356.914062 C 277.472656 356.234375 278 355.527344 278.488281 354.792969 C 278.976562 354.0625 279.429688 353.308594 279.847656 352.53125 C 280.261719 351.753906 280.640625 350.957031 280.976562 350.144531 C 281.3125 349.332031 281.609375 348.503906 281.867188 347.660156 C 282.125 346.816406 282.339844 345.960938 282.511719 345.097656 C 282.683594 344.234375 282.8125 343.363281 282.902344 342.488281 C 282.988281 341.609375 283.03125 340.730469 283.03125 339.851562 L 283.03125 35.136719 C 283.03125 34.257812 282.988281 33.378906 282.902344 32.5 C 282.8125 31.625 282.683594 30.753906 282.511719 29.890625 C 282.339844 29.023438 282.125 28.171875 281.867188 27.328125 C 281.609375 26.484375 281.3125 25.65625 280.976562 24.84375 C 280.640625 24.03125 280.261719 23.234375 279.847656 22.457031 C 279.429688 21.679688 278.976562 20.925781 278.488281 20.195312 C 278 19.460938 277.472656 18.753906 276.914062 18.074219 C 276.355469 17.390625 275.765625 16.742188 275.140625 16.117188 C 274.519531 15.496094 273.867188 14.902344 273.1875 14.34375 C 272.503906 13.785156 271.796875 13.261719 271.066406 12.769531 C 270.332031 12.28125 269.578125 11.828125 268.800781 11.414062 C 268.023438 10.996094 267.230469 10.621094 266.414062 10.28125 C 265.601562 9.945312 264.773438 9.648438 263.929688 9.390625 C 263.085938 9.136719 262.234375 8.921875 261.371094 8.75 C 260.507812 8.574219 259.636719 8.445312 258.757812 8.359375 C 257.882812 8.273438 257.003906 8.226562 256.121094 8.226562 Z M 256.121094 8.226562 " fill-opacity="1" fill-rule="nonzero"/></g><path fill="#ff3131" d="M 219.765625 28.65625 C 220.039062 28.660156 220.296875 28.714844 220.546875 28.820312 C 220.796875 28.925781 221.015625 29.078125 221.207031 29.269531 C 221.394531 29.460938 221.542969 29.683594 221.644531 29.933594 C 221.746094 30.183594 221.796875 30.445312 221.796875 30.71875 C 221.796875 30.988281 221.746094 31.25 221.644531 31.5 C 221.542969 31.75 221.394531 31.972656 221.207031 32.164062 C 221.015625 32.355469 220.796875 32.507812 220.546875 32.613281 C 220.296875 32.71875 220.039062 32.777344 219.765625 32.78125 L 176.894531 32.78125 C 176.617188 32.785156 176.351562 32.734375 176.09375 32.632812 C 175.835938 32.527344 175.609375 32.378906 175.414062 32.1875 C 175.21875 31.992188 175.066406 31.769531 174.957031 31.511719 C 174.851562 31.257812 174.796875 30.992188 174.796875 30.71875 C 174.796875 30.441406 174.851562 30.175781 174.957031 29.921875 C 175.066406 29.664062 175.21875 29.441406 175.414062 29.246094 C 175.609375 29.054688 175.835938 28.90625 176.09375 28.800781 C 176.351562 28.699219 176.617188 28.648438 176.894531 28.65625 L 219.765625 28.65625 M 219.765625 23.546875 L 176.894531 23.546875 C 176.421875 23.546875 175.957031 23.59375 175.492188 23.683594 C 175.03125 23.777344 174.582031 23.910156 174.148438 24.09375 C 173.714844 24.273438 173.300781 24.492188 172.910156 24.753906 C 172.515625 25.015625 172.15625 25.3125 171.824219 25.644531 C 171.488281 25.980469 171.191406 26.339844 170.929688 26.734375 C 170.667969 27.125 170.449219 27.539062 170.269531 27.972656 C 170.085938 28.40625 169.953125 28.855469 169.859375 29.316406 C 169.769531 29.78125 169.722656 30.246094 169.722656 30.714844 C 169.722656 31.1875 169.769531 31.652344 169.859375 32.117188 C 169.953125 32.578125 170.085938 33.027344 170.269531 33.460938 C 170.449219 33.894531 170.667969 34.308594 170.929688 34.699219 C 171.191406 35.09375 171.488281 35.453125 171.824219 35.789062 C 172.15625 36.121094 172.515625 36.417969 172.910156 36.679688 C 173.300781 36.941406 173.714844 37.160156 174.148438 37.339844 C 174.582031 37.523438 175.03125 37.65625 175.492188 37.75 C 175.957031 37.839844 176.421875 37.886719 176.894531 37.886719 L 219.765625 37.886719 C 220.238281 37.886719 220.703125 37.839844 221.167969 37.75 C 221.628906 37.65625 222.078125 37.523438 222.511719 37.339844 C 222.945312 37.160156 223.359375 36.941406 223.75 36.679688 C 224.144531 36.417969 224.503906 36.121094 224.835938 35.789062 C 225.171875 35.453125 225.46875 35.09375 225.730469 34.699219 C 225.992188 34.308594 226.210938 33.894531 226.390625 33.460938 C 226.574219 33.027344 226.707031 32.578125 226.800781 32.117188 C 226.890625 31.652344 226.9375 31.1875 226.9375 30.714844 C 226.9375 30.246094 226.890625 29.78125 226.800781 29.316406 C 226.707031 28.855469 226.574219 28.40625 226.390625 27.972656 C 226.210938 27.539062 225.992188 27.125 225.730469 26.734375 C 225.46875 26.339844 225.171875 25.980469 224.835938 25.644531 C 224.503906 25.3125 224.144531 25.015625 223.75 24.753906 C 223.359375 24.492188 222.945312 24.273438 222.511719 24.09375 C 222.078125 23.910156 221.628906 23.777344 221.167969 23.683594 C 220.703125 23.59375 220.238281 23.546875 219.765625 23.546875 Z M 219.765625 23.546875 " fill-opacity="1" fill-rule="nonzero"/><path fill="#ff3131" d="M 157.914062 25.988281 C 158.222656 25.988281 158.53125 26.019531 158.835938 26.082031 C 159.140625 26.140625 159.433594 26.230469 159.722656 26.351562 C 160.007812 26.46875 160.28125 26.613281 160.539062 26.785156 C 160.796875 26.960938 161.035156 27.15625 161.253906 27.375 C 161.476562 27.59375 161.671875 27.832031 161.84375 28.089844 C 162.015625 28.347656 162.160156 28.621094 162.28125 28.90625 C 162.398438 29.195312 162.488281 29.492188 162.550781 29.796875 C 162.609375 30.097656 162.640625 30.40625 162.640625 30.71875 C 162.640625 31.027344 162.609375 31.335938 162.550781 31.640625 C 162.488281 31.945312 162.398438 32.238281 162.28125 32.527344 C 162.160156 32.8125 162.015625 33.085938 161.84375 33.34375 C 161.671875 33.601562 161.476562 33.839844 161.253906 34.058594 C 161.035156 34.28125 160.796875 34.476562 160.539062 34.648438 C 160.28125 34.820312 160.007812 34.964844 159.722656 35.085938 C 159.433594 35.203125 159.140625 35.292969 158.835938 35.355469 C 158.53125 35.414062 158.222656 35.445312 157.914062 35.445312 C 157.601562 35.445312 157.296875 35.414062 156.992188 35.355469 C 156.6875 35.292969 156.390625 35.203125 156.105469 35.085938 C 155.816406 34.964844 155.542969 34.820312 155.285156 34.648438 C 155.027344 34.476562 154.789062 34.28125 154.570312 34.058594 C 154.351562 33.839844 154.15625 33.601562 153.980469 33.34375 C 153.808594 33.085938 153.664062 32.8125 153.546875 32.527344 C 153.425781 32.238281 153.335938 31.945312 153.277344 31.640625 C 153.214844 31.335938 153.183594 31.027344 153.183594 30.71875 C 153.1875 30.40625 153.214844 30.097656 153.277344 29.796875 C 153.335938 29.492188 153.425781 29.195312 153.546875 28.910156 C 153.664062 28.621094 153.808594 28.347656 153.980469 28.089844 C 154.15625 27.832031 154.351562 27.59375 154.570312 27.375 C 154.789062 27.15625 155.027344 26.960938 155.285156 26.785156 C 155.542969 26.613281 155.816406 26.46875 156.105469 26.351562 C 156.390625 26.230469 156.6875 26.140625 156.992188 26.082031 C 157.296875 26.019531 157.601562 25.988281 157.914062 25.988281 M 157.914062 20.882812 C 157.265625 20.882812 156.628906 20.945312 155.992188 21.070312 C 155.359375 21.195312 154.746094 21.382812 154.148438 21.628906 C 153.550781 21.878906 152.984375 22.179688 152.449219 22.539062 C 151.910156 22.898438 151.414062 23.304688 150.957031 23.761719 C 150.5 24.21875 150.09375 24.714844 149.734375 25.253906 C 149.375 25.789062 149.074219 26.355469 148.824219 26.953125 C 148.578125 27.550781 148.390625 28.164062 148.265625 28.796875 C 148.140625 29.433594 148.078125 30.070312 148.078125 30.71875 C 148.078125 31.363281 148.140625 32.003906 148.265625 32.636719 C 148.390625 33.269531 148.578125 33.882812 148.824219 34.480469 C 149.074219 35.078125 149.375 35.644531 149.734375 36.183594 C 150.09375 36.71875 150.5 37.214844 150.957031 37.671875 C 151.414062 38.128906 151.910156 38.535156 152.449219 38.894531 C 152.984375 39.253906 153.550781 39.558594 154.148438 39.804688 C 154.746094 40.050781 155.359375 40.238281 155.992188 40.363281 C 156.628906 40.488281 157.265625 40.554688 157.914062 40.554688 C 158.558594 40.554688 159.199219 40.488281 159.832031 40.363281 C 160.464844 40.238281 161.082031 40.050781 161.675781 39.804688 C 162.273438 39.558594 162.839844 39.253906 163.378906 38.894531 C 163.914062 38.535156 164.410156 38.128906 164.867188 37.671875 C 165.324219 37.214844 165.730469 36.71875 166.089844 36.183594 C 166.449219 35.644531 166.753906 35.078125 167 34.480469 C 167.246094 33.882812 167.433594 33.269531 167.558594 32.636719 C 167.6875 32.003906 167.75 31.363281 167.75 30.71875 C 167.746094 30.070312 167.683594 29.433594 167.558594 28.800781 C 167.429688 28.167969 167.246094 27.550781 166.996094 26.957031 C 166.75 26.359375 166.445312 25.792969 166.085938 25.253906 C 165.730469 24.71875 165.320312 24.222656 164.863281 23.765625 C 164.40625 23.308594 163.910156 22.902344 163.375 22.542969 C 162.839844 22.183594 162.269531 21.878906 161.675781 21.632812 C 161.078125 21.386719 160.464844 21.199219 159.832031 21.074219 C 159.199219 20.945312 158.558594 20.882812 157.914062 20.882812 Z M 157.914062 20.882812 " fill-opacity="1" fill-rule="nonzero"/><path fill="#ff3131" d="M 187.507812 357.464844 C 186.507812 357.464844 185.511719 357.367188 184.53125 357.171875 C 183.546875 356.976562 182.59375 356.6875 181.667969 356.304688 C 180.742188 355.921875 179.863281 355.449219 179.03125 354.894531 C 178.195312 354.335938 177.425781 353.703125 176.71875 352.996094 C 176.007812 352.289062 175.375 351.515625 174.820312 350.683594 C 174.261719 349.851562 173.792969 348.972656 173.410156 348.046875 C 173.027344 347.121094 172.738281 346.167969 172.542969 345.183594 C 172.347656 344.199219 172.25 343.207031 172.25 342.207031 C 172.25 341.203125 172.347656 340.210938 172.542969 339.230469 C 172.738281 338.246094 173.027344 337.292969 173.410156 336.367188 C 173.792969 335.441406 174.261719 334.5625 174.820312 333.726562 C 175.375 332.894531 176.007812 332.125 176.71875 331.417969 C 177.425781 330.707031 178.195312 330.074219 179.03125 329.519531 C 179.863281 328.960938 180.742188 328.492188 181.667969 328.109375 C 182.59375 327.726562 183.546875 327.433594 184.53125 327.238281 C 185.511719 327.042969 186.507812 326.945312 187.507812 326.945312 C 188.511719 326.945312 189.503906 327.042969 190.484375 327.238281 C 191.46875 327.433594 192.421875 327.726562 193.347656 328.109375 C 194.273438 328.492188 195.152344 328.960938 195.984375 329.519531 C 196.820312 330.074219 197.589844 330.707031 198.296875 331.417969 C 199.007812 332.125 199.640625 332.894531 200.195312 333.730469 C 200.753906 334.5625 201.222656 335.441406 201.605469 336.367188 C 201.988281 337.292969 202.277344 338.246094 202.472656 339.230469 C 202.667969 340.210938 202.769531 341.203125 202.769531 342.207031 C 202.765625 343.207031 202.667969 344.199219 202.472656 345.183594 C 202.273438 346.164062 201.984375 347.117188 201.601562 348.042969 C 201.21875 348.96875 200.746094 349.847656 200.191406 350.679688 C 199.632812 351.511719 199 352.285156 198.292969 352.992188 C 197.585938 353.699219 196.8125 354.332031 195.980469 354.890625 C 195.148438 355.445312 194.269531 355.917969 193.34375 356.300781 C 192.417969 356.683594 191.464844 356.972656 190.484375 357.171875 C 189.5 357.367188 188.507812 357.464844 187.507812 357.464844 Z M 187.507812 332.054688 C 186.839844 332.054688 186.179688 332.121094 185.527344 332.25 C 184.875 332.378906 184.238281 332.574219 183.625 332.828125 C 183.007812 333.082031 182.421875 333.394531 181.867188 333.765625 C 181.3125 334.136719 180.800781 334.558594 180.328125 335.027344 C 179.859375 335.5 179.4375 336.011719 179.066406 336.566406 C 178.695312 337.121094 178.382812 337.707031 178.128906 338.320312 C 177.875 338.9375 177.679688 339.570312 177.550781 340.226562 C 177.421875 340.878906 177.355469 341.539062 177.355469 342.207031 C 177.355469 342.871094 177.421875 343.53125 177.550781 344.1875 C 177.679688 344.839844 177.875 345.476562 178.128906 346.089844 C 178.382812 346.707031 178.695312 347.292969 179.066406 347.847656 C 179.4375 348.398438 179.859375 348.914062 180.328125 349.382812 C 180.800781 349.855469 181.3125 350.277344 181.867188 350.648438 C 182.421875 351.015625 183.007812 351.328125 183.621094 351.585938 C 184.238281 351.839844 184.875 352.03125 185.527344 352.164062 C 186.179688 352.292969 186.839844 352.359375 187.507812 352.359375 C 188.171875 352.359375 188.832031 352.292969 189.488281 352.164062 C 190.140625 352.03125 190.777344 351.839844 191.390625 351.585938 C 192.007812 351.328125 192.59375 351.015625 193.148438 350.648438 C 193.703125 350.277344 194.214844 349.855469 194.683594 349.382812 C 195.15625 348.914062 195.578125 348.402344 195.949219 347.847656 C 196.316406 347.292969 196.632812 346.707031 196.886719 346.089844 C 197.140625 345.476562 197.332031 344.839844 197.464844 344.1875 C 197.59375 343.53125 197.660156 342.871094 197.660156 342.207031 C 197.65625 341.539062 197.59375 340.878906 197.460938 340.226562 C 197.332031 339.574219 197.136719 338.9375 196.882812 338.324219 C 196.628906 337.707031 196.316406 337.125 195.945312 336.570312 C 195.574219 336.015625 195.152344 335.503906 194.683594 335.03125 C 194.210938 334.5625 193.699219 334.140625 193.144531 333.769531 C 192.589844 333.398438 192.007812 333.085938 191.390625 332.832031 C 190.773438 332.574219 190.140625 332.382812 189.488281 332.253906 C 188.835938 332.121094 188.175781 332.054688 187.507812 332.054688 Z M 187.507812 332.054688 " fill-opacity="1" fill-rule="nonzero"/><path fill="#ff3131" d="M 272.328125 321.148438 L 102.6875 321.148438 L 102.6875 45.542969 L 272.328125 45.542969 Z M 107.796875 316.039062 L 267.21875 316.039062 L 267.21875 50.652344 L 107.796875 50.652344 Z M 107.796875 316.039062 " fill-opacity="1" fill-rule="nonzero"/></svg>