<svg xmlns="http://www.w3.org/2000/svg" xmlns:xlink="http://www.w3.org/1999/xlink" width="500" zoomAndPan="magnify" viewBox="0 0 375 374.999991" height="500" preserveAspectRatio="xMidYMid meet" version="1.0"><defs><clipPath id="6862bd3ac9"><path d="M 17 96.085938 L 358 96.085938 L 358 279 L 17 279 Z M 17 96.085938 " clip-rule="nonzero"/></clipPath></defs><g clip-path="url(#6862bd3ac9)"><path fill="#ff3131" d="M 193.261719 277.757812 C 173.0625 272.617188 161.792969 268.375 153.398438 262.757812 C 135.730469 250.933594 129.429688 243.433594 118.308594 220.980469 C 112.125 208.5 111.917969 208.25 105.457031 205.515625 C 100.429688 203.386719 100.371094 203.433594 100.222656 209.667969 C 99.941406 221.398438 95.082031 231.148438 89.292969 233.386719 C 86.730469 234.378906 84.820312 235.421875 82.070312 234.894531 C 77 233.878906 67.195312 228.554688 59.945312 223.546875 C 55.46875 220.453125 42.761719 207.792969 39.851562 203.527344 C 36.660156 198.84375 31.449219 187.269531 28.394531 178.070312 C 26.730469 173.058594 24.457031 167.53125 23.136719 165.28125 C 21.464844 162.441406 20.742188 160.507812 20.578125 158.449219 C 20.453125 156.867188 19.882812 154.675781 19.308594 153.582031 C 18.238281 151.527344 17.203125 146.746094 17.832031 146.746094 C 18.820312 146.746094 22.183594 148.507812 23.269531 149.589844 C 24.851562 151.175781 24.414062 152.789062 22.652344 151.84375 C 20.867188 150.890625 20.125 151.898438 20.925781 154.191406 C 21.277344 155.203125 21.566406 156.738281 21.566406 157.605469 C 21.566406 158.472656 21.71875 159.585938 21.90625 160.074219 C 22.199219 160.832031 22.40625 160.777344 23.257812 159.722656 L 24.265625 158.480469 L 24.710938 159.875 C 24.957031 160.640625 25.222656 162.292969 25.300781 163.546875 C 25.484375 166.472656 29.554688 180.246094 32.203125 186.886719 C 36.671875 198.117188 40.816406 204.804688 47.378906 211.375 C 50.660156 214.660156 50.804688 214.738281 51.351562 213.511719 C 51.664062 212.808594 52.265625 212.238281 52.6875 212.238281 C 54.144531 212.238281 53.441406 211.167969 48.992188 206.605469 C 44.960938 202.46875 44.085938 201.132812 39.917969 192.753906 C 32.8125 178.480469 29.777344 169.160156 29.476562 160.699219 C 29.40625 158.820312 29.074219 157.09375 28.734375 156.863281 C 28.394531 156.636719 28.882812 156.421875 29.824219 156.394531 C 30.761719 156.363281 31.207031 156.210938 30.8125 156.050781 C 30.417969 155.890625 29.824219 155.207031 29.496094 154.527344 C 29.054688 153.625 29.328125 153.757812 30.523438 155.027344 C 31.421875 155.980469 33.535156 157.351562 35.21875 158.078125 C 41.753906 160.890625 63.765625 171.949219 70.429688 175.769531 C 79.265625 180.839844 83.046875 183.628906 85.597656 186.96875 C 90.894531 193.90625 92.417969 200.253906 92.058594 213.910156 C 91.800781 223.824219 91.121094 226.925781 88.953125 228.078125 C 87.589844 228.800781 82.054688 227.960938 77.941406 226.40625 C 68.378906 222.785156 66.011719 221.492188 59.449219 216.277344 C 55.082031 212.804688 54.023438 212.363281 54.023438 213.996094 C 54.023438 214.59375 53.640625 215.085938 53.171875 215.085938 C 49.300781 215.085938 61.164062 224.074219 72.53125 229.753906 C 81.742188 234.355469 82.734375 234.589844 87.230469 233.21875 C 94.5 231 96.941406 226.199219 98.769531 210.53125 C 98.933594 209.121094 99.179688 207.421875 99.320312 206.753906 C 99.460938 206.066406 99.0625 204.898438 98.398438 204.050781 C 97.75 203.226562 97.402344 202.558594 97.617188 202.558594 C 97.835938 202.558594 97.695312 202.171875 97.304688 201.703125 C 96.914062 201.234375 96.742188 200.847656 96.921875 200.847656 C 97.207031 200.847656 95.621094 195.695312 94.644531 193.445312 C 94.4375 192.976562 94.25 192.421875 94.222656 192.210938 C 94.195312 192.003906 93.980469 191.640625 93.746094 191.40625 C 93.089844 190.75 93.238281 187.179688 93.921875 187.179688 C 94.253906 187.179688 94.367188 187.4375 94.171875 187.75 C 93.980469 188.0625 94.035156 188.320312 94.300781 188.320312 C 94.5625 188.320312 94.832031 188.972656 94.898438 189.769531 C 95.066406 191.792969 97.664062 199.585938 98.695312 201.160156 C 99.164062 201.875 100.976562 202.996094 102.722656 203.648438 C 111.882812 207.078125 112.679688 207.914062 119.125 220.917969 C 122.113281 226.949219 126.402344 234.703125 128.652344 238.148438 C 136.140625 249.617188 147.609375 259.453125 161.65625 266.453125 C 171.183594 271.203125 192.847656 277.804688 199.242188 277.90625 C 200.964844 277.933594 204.898438 277.664062 207.984375 277.308594 C 215.214844 276.476562 219.148438 274.671875 221.148438 271.261719 C 222.761719 268.503906 224.941406 260.71875 226.558594 251.910156 C 227.875 244.738281 228.910156 242.289062 231.34375 240.574219 C 232.960938 239.4375 236.546875 236.632812 241.097656 232.945312 C 242.699219 231.648438 244.078125 230.773438 246.792969 229.339844 C 247.417969 229.007812 248.699219 228.246094 249.640625 227.644531 C 250.578125 227.042969 252.273438 226.046875 253.402344 225.425781 C 262.238281 220.582031 308.296875 190.914062 308.296875 190.066406 C 308.296875 189.785156 308.53125 189.339844 308.816406 189.078125 C 309.117188 188.804688 309.160156 188.902344 308.921875 189.316406 C 308.699219 189.707031 308.722656 190.019531 308.972656 190.011719 C 309.804688 189.976562 311.714844 188.285156 311.714844 187.585938 C 311.714844 187.207031 312.15625 186.898438 312.695312 186.898438 C 313.238281 186.898438 315.105469 185.785156 316.847656 184.425781 C 319.121094 182.652344 319.925781 181.675781 319.703125 180.96875 C 319.511719 180.371094 319.917969 179.492188 320.738281 178.722656 C 321.679688 177.835938 322 177.03125 321.8125 176.035156 C 321.648438 175.1875 321.914062 174.199219 322.464844 173.589844 C 322.972656 173.027344 323.195312 172.355469 322.960938 172.09375 C 322.726562 171.835938 322.886719 171.828125 323.320312 172.078125 C 323.875 172.402344 325.585938 171.039062 329.101562 167.472656 C 335.167969 161.320312 341.96875 155.121094 346.527344 151.589844 C 349.226562 149.5 353.570312 145.058594 353.570312 144.390625 C 353.570312 143.085938 349.179688 144.289062 346.46875 146.335938 C 346.144531 146.582031 344.066406 148.117188 341.851562 149.753906 C 339.632812 151.390625 337.398438 153.113281 336.886719 153.582031 C 336.371094 154.050781 335.238281 154.992188 334.367188 155.671875 C 333.496094 156.351562 330.863281 158.402344 328.511719 160.234375 C 324.335938 163.484375 315.40625 169.558594 313.707031 170.304688 C 313.238281 170.511719 312.082031 171.179688 311.144531 171.796875 C 310.203125 172.410156 308.410156 173.492188 307.15625 174.199219 C 305.90625 174.90625 303.855469 176.066406 302.601562 176.777344 C 301.347656 177.488281 299.105469 178.617188 297.617188 179.285156 C 295.035156 180.445312 293.960938 182.054688 295.765625 182.054688 C 296.238281 182.054688 296.621094 182.445312 296.621094 182.921875 C 296.621094 184.207031 290.941406 189.652344 288.644531 190.566406 C 287.550781 191.003906 286.363281 191.582031 286.003906 191.855469 C 285.644531 192.125 284.777344 192.460938 284.074219 192.59375 C 283.375 192.730469 282.4375 193.359375 281.992188 193.996094 C 281.546875 194.632812 280.796875 195.152344 280.328125 195.152344 C 279.859375 195.152344 277.957031 196.183594 276.101562 197.445312 C 273.589844 199.148438 272.375 199.648438 271.355469 199.390625 C 270.433594 199.160156 269.257812 199.496094 267.78125 200.414062 C 266.574219 201.164062 263.320312 203.007812 260.550781 204.503906 C 257.777344 206.003906 252.9375 208.75 249.789062 210.609375 L 244.066406 213.988281 L 241.878906 212.472656 C 239.824219 211.046875 239.210938 210.941406 231.851562 210.707031 C 224.171875 210.460938 223.472656 210.324219 197.53125 204 C 182.96875 200.449219 162.851562 195.5625 152.828125 193.144531 C 142.808594 190.726562 134.222656 188.550781 133.753906 188.308594 C 131.726562 187.261719 119.128906 184.859375 113.074219 184.367188 C 105.761719 183.769531 104.398438 183.257812 99.582031 179.316406 C 96.238281 176.578125 89.507812 173.222656 73.101562 166.128906 C 62.121094 161.378906 45.929688 153.558594 44.414062 152.273438 C 43.90625 151.84375 42.59375 151.15625 41.496094 150.746094 C 40.402344 150.339844 38.542969 149.363281 37.363281 148.582031 C 35.625 147.421875 35.351562 147.007812 35.902344 146.34375 C 36.273438 145.894531 37.089844 145.664062 37.714844 145.828125 C 38.480469 146.027344 39.964844 145.285156 42.285156 143.542969 C 47.667969 139.496094 48.691406 139.078125 50.433594 140.21875 C 51.71875 141.058594 51.851562 141.457031 51.597656 143.710938 C 51.394531 145.496094 51.503906 146.175781 51.96875 145.996094 C 52.332031 145.855469 56.082031 143.773438 60.304688 141.363281 C 64.523438 138.953125 75.152344 133.441406 83.921875 129.121094 C 99.070312 121.652344 111.996094 114.609375 113.785156 112.84375 C 115.828125 110.832031 113.191406 111.589844 104.878906 115.40625 C 99.941406 117.671875 95.0625 119.664062 94.039062 119.828125 C 92.355469 120.101562 92.179688 120 92.179688 118.703125 C 92.179688 116.871094 92.714844 116.46875 97.875 114.414062 C 103.851562 112.035156 110.308594 109.246094 112.792969 107.96875 C 115.570312 106.539062 115.914062 106.585938 116.929688 108.546875 L 117.789062 110.210938 L 126.511719 105.71875 C 144.132812 96.640625 150.28125 97.210938 166.496094 109.421875 C 175.660156 116.324219 180.707031 120.703125 181.976562 122.851562 C 183.867188 126.054688 185.5 125.546875 186.945312 121.304688 L 187.828125 118.710938 L 186.199219 117.1875 C 183.578125 114.738281 166.882812 103.78125 162.226562 101.453125 C 159.875 100.28125 156.671875 98.839844 155.105469 98.25 C 152.683594 97.34375 152.554688 97.230469 154.253906 97.484375 C 157.214844 97.925781 165.855469 102.261719 172.25 106.519531 C 183.722656 114.152344 187.777344 117.136719 188.113281 118.195312 C 188.558594 119.601562 186.363281 125.472656 185.226562 125.90625 C 183.957031 126.394531 182.445312 125.40625 181.183594 123.265625 C 179.820312 120.957031 174.953125 116.691406 165.640625 109.644531 C 157.59375 103.554688 153.847656 101.554688 148.65625 100.570312 C 142.730469 99.445312 138.523438 100.515625 128.058594 105.804688 C 123.203125 108.257812 117.929688 111.128906 116.339844 112.179688 C 109.433594 116.746094 102.808594 120.382812 86.769531 128.410156 C 64.039062 139.785156 44.839844 150.460938 45.089844 151.589844 C 45.277344 152.429688 60.625 159.964844 73.972656 165.769531 C 89.867188 172.683594 97.226562 176.429688 100.5 179.261719 C 104.335938 182.582031 106.015625 183.144531 113.980469 183.769531 C 121.375 184.355469 122.03125 184.496094 151.121094 191.664062 C 226.691406 210.289062 223.238281 209.515625 232.042969 209.753906 L 240.070312 209.96875 L 252.257812 203.222656 C 276.953125 189.558594 288.96875 182.992188 290.917969 182.097656 C 292.019531 181.59375 293.558594 180.777344 294.34375 180.28125 C 295.125 179.785156 299.738281 177.136719 304.59375 174.398438 C 316.054688 167.929688 324.5 162.359375 331.980469 156.34375 C 340.828125 149.226562 346.777344 144.765625 348.839844 143.703125 C 352.035156 142.054688 356.867188 142.78125 355.558594 144.710938 C 352.542969 149.164062 350.644531 151.40625 344.683594 157.566406 C 340.890625 161.484375 335.109375 167.761719 331.828125 171.519531 C 325.257812 179.050781 321.6875 182.453125 315.695312 186.894531 C 307.820312 192.730469 259.609375 223.226562 246.789062 230.480469 C 240.824219 233.855469 229.941406 242.402344 229.128906 244.351562 C 228.722656 245.324219 227.722656 249.582031 226.910156 253.808594 C 223.433594 271.894531 220.902344 275.765625 211.453125 277.449219 C 208.964844 277.894531 206.800781 278.269531 206.644531 278.289062 C 200.621094 278.921875 195.144531 278.234375 193.261719 277.757812 Z M 89.203125 226.566406 C 90.492188 225.746094 91.105469 222.355469 91.433594 214.230469 C 92.167969 195.910156 88.0625 187.332031 74.527344 178.921875 C 68.667969 175.28125 43.792969 162.703125 36.261719 159.574219 C 31.011719 157.394531 30.445312 157.714844 30.933594 162.558594 C 31.824219 171.375 36.320312 184.855469 41.621094 194.582031 C 42.898438 196.933594 44.28125 199.5 44.691406 200.292969 C 45.839844 202.496094 56.039062 212.230469 61.148438 215.996094 C 66.90625 220.238281 72.335938 223.09375 78.824219 225.292969 C 83.835938 226.988281 87.777344 227.472656 89.203125 226.566406 Z M 247.929688 210.738281 C 251.898438 208.347656 268.328125 199.140625 270.425781 198.136719 C 271.207031 197.761719 272.875 196.820312 274.128906 196.046875 C 277.636719 193.878906 279.640625 192.875 280.449219 192.875 C 280.855469 192.875 281.394531 192.527344 281.644531 192.101562 C 281.894531 191.679688 282.699219 191.015625 283.429688 190.632812 C 284.160156 190.25 284.632812 189.804688 284.472656 189.648438 C 284.234375 189.40625 277.824219 192.769531 269.285156 197.613281 C 268.191406 198.234375 264.21875 200.390625 260.460938 202.402344 C 250.15625 207.917969 243.660156 211.75 243.660156 212.304688 C 243.660156 213.148438 244.382812 212.882812 247.929688 210.738281 Z M 287.191406 188.585938 C 288.078125 187.914062 288.117188 187.746094 287.402344 187.746094 C 286.910156 187.746094 286.191406 188.132812 285.800781 188.601562 C 284.898438 189.6875 285.746094 189.679688 287.191406 188.585938 Z M 46.65625 147.578125 C 48.792969 146.15625 50.699219 144.5 50.890625 143.898438 C 51.371094 142.378906 50.230469 140.480469 48.835938 140.480469 C 47.328125 140.480469 43.476562 143.160156 40.777344 146.089844 L 38.640625 148.414062 L 40.210938 149.265625 C 41.074219 149.734375 42 150.128906 42.273438 150.140625 C 42.542969 150.152344 44.515625 149 46.65625 147.578125 Z M 100.808594 115.914062 C 103.207031 114.703125 105.5625 113.714844 106.046875 113.714844 C 106.527344 113.714844 107.640625 113.070312 108.519531 112.28125 L 110.117188 110.847656 L 108.40625 111.222656 C 106.355469 111.675781 103.773438 112.925781 101.925781 114.367188 C 101.175781 114.949219 99.96875 115.425781 99.238281 115.425781 C 97.375 115.425781 93.886719 117.1875 93.886719 118.132812 C 93.886719 119.15625 95.21875 118.730469 100.808594 115.914062 Z M 191.550781 276.015625 C 184.929688 274.5 174.070312 271.105469 168.492188 268.8125 C 155.078125 263.292969 141.054688 253.335938 133.882812 244.234375 C 128.289062 237.140625 118.085938 218.601562 118.703125 216.65625 C 118.929688 215.9375 118.636719 215.167969 117.859375 214.441406 C 117.203125 213.832031 116.664062 212.988281 116.664062 212.570312 C 116.664062 211.109375 111.429688 207.007812 106.617188 204.699219 C 103.945312 203.414062 101.417969 201.832031 100.996094 201.179688 C 100.574219 200.527344 99.710938 197.886719 99.074219 195.3125 C 98.441406 192.738281 97.519531 189.855469 97.027344 188.90625 C 95.992188 186.90625 95.96875 186.917969 98.625 188.027344 C 100.617188 188.859375 102.714844 188.671875 102.121094 187.714844 C 101.957031 187.449219 100.296875 186.929688 98.433594 186.5625 C 95.449219 185.976562 94.792969 185.589844 92.929688 183.316406 L 90.8125 180.734375 L 90.335938 182.167969 C 89.972656 183.265625 90.613281 185.875 93.050781 193.222656 C 94.804688 198.511719 96.78125 203.59375 97.4375 204.515625 C 98.625 206.175781 98.625 206.234375 97.671875 212.203125 C 96.601562 218.855469 95.097656 224.765625 94.46875 224.765625 C 94.03125 224.765625 93.324219 215.101562 93.304688 208.875 C 93.289062 203.855469 91.429688 195.660156 89.355469 191.453125 C 85.773438 184.1875 81.65625 180.882812 64.558594 171.535156 C 46.164062 161.480469 39.925781 157.652344 41.835938 157.589844 C 42.707031 157.558594 53.789062 162.828125 57.820312 165.1875 C 61.601562 167.398438 71.945312 172.132812 74.277344 172.71875 C 76.925781 173.386719 75.351562 171.949219 71.058594 169.789062 C 68.886719 168.695312 63.996094 166.519531 60.1875 164.953125 C 56.382812 163.386719 52.910156 161.8125 52.472656 161.449219 C 50.855469 160.109375 41.796875 156.4375 40.84375 156.738281 C 39.761719 157.082031 36.324219 155.285156 27.300781 149.660156 C 24.035156 147.625 21.65625 145.863281 22.015625 145.742188 C 23.269531 145.324219 41.820312 151.800781 46.027344 154.125 C 50.347656 156.511719 65.515625 163.609375 72.246094 166.390625 C 78.855469 169.125 93.542969 175.972656 95.878906 177.410156 C 97.132812 178.183594 99.265625 179.785156 100.621094 180.972656 C 103.542969 183.53125 106.953125 184.753906 112.394531 185.1875 C 117.933594 185.632812 122.390625 186.589844 147.132812 192.648438 C 159.035156 195.5625 172.871094 198.871094 177.882812 199.996094 C 185.292969 201.664062 210.871094 208.15625 213.984375 209.160156 C 214.421875 209.300781 214.652344 209.542969 214.5 209.695312 C 214.21875 209.976562 209.882812 209.15625 200.488281 207.042969 C 197.570312 206.386719 195.042969 205.992188 194.871094 206.164062 C 194.582031 206.453125 196.390625 207.011719 203.507812 208.816406 C 215.550781 211.871094 230.125 216.148438 230.816406 216.828125 C 231.757812 217.757812 233.753906 217.417969 237.679688 215.65625 C 239.773438 214.714844 241.71875 213.945312 242.003906 213.945312 C 243.246094 213.945312 242.320312 215.09375 239.964844 216.472656 C 238.5625 217.296875 237.152344 218.460938 236.832031 219.058594 C 236.507812 219.660156 236.265625 223.476562 236.292969 227.542969 C 236.316406 231.703125 236.074219 235.425781 235.738281 236.054688 C 235.410156 236.667969 233.847656 238.097656 232.269531 239.234375 C 230.6875 240.371094 228.921875 242.074219 228.34375 243.027344 C 227.765625 243.976562 226.503906 248.777344 225.542969 253.695312 C 223.519531 264.019531 221.5 270.429688 219.628906 272.464844 C 217.332031 274.964844 213.941406 276.058594 206.753906 276.613281 C 198.011719 277.292969 196.925781 277.25 191.550781 276.019531 Z M 200.878906 273.226562 C 202.160156 272.414062 201.035156 271.460938 198.777344 271.453125 C 196.164062 271.445312 194.113281 270.917969 194.113281 270.257812 C 194.113281 269.980469 194.882812 269.753906 195.824219 269.753906 C 196.761719 269.753906 197.53125 269.949219 197.53125 270.1875 C 197.53125 270.429688 199.902344 270.664062 202.796875 270.710938 C 205.695312 270.757812 209.125 270.859375 210.417969 270.933594 C 213.972656 271.140625 216.554688 269.292969 217.960938 265.535156 C 220.421875 258.964844 220.835938 247.429688 218.878906 239.925781 C 216.457031 230.625 212.902344 224.851562 207.074219 220.761719 C 203.441406 218.207031 194.351562 214.089844 193.726562 214.710938 C 193.585938 214.855469 194.445312 215.28125 195.640625 215.660156 C 203.507812 218.160156 211.300781 223.851562 214.234375 229.246094 C 219.925781 239.703125 221.292969 256.621094 217.171875 265.644531 C 215.195312 269.972656 213.929688 270.390625 204.707031 269.734375 C 192.007812 268.835938 182.410156 266.808594 170.765625 262.5625 C 163.4375 259.894531 160.773438 258.660156 153.703125 254.664062 C 146.023438 250.324219 141.480469 245.410156 138.351562 238.066406 C 137.4375 235.917969 135.550781 232.113281 134.160156 229.605469 C 132.769531 227.101562 130.648438 222.488281 129.449219 219.355469 C 128.25 216.222656 126.921875 213.242188 126.496094 212.734375 C 125.421875 211.441406 122.929688 204.398438 122.929688 202.660156 C 122.929688 200.113281 124.414062 199.140625 128.285156 199.140625 C 137.304688 199.148438 159.980469 204.292969 184.402344 211.878906 C 187.992188 212.992188 191.027344 213.804688 191.148438 213.683594 C 191.269531 213.5625 189.742188 212.960938 187.757812 212.355469 C 185.769531 211.746094 180.390625 210.070312 175.796875 208.628906 C 161.28125 204.082031 139.578125 199.121094 130.449219 198.269531 C 125.480469 197.804688 123.425781 198.480469 121.792969 201.125 C 120.289062 203.558594 120.347656 205.277344 121.984375 206.796875 C 122.894531 207.636719 123.445312 208.964844 123.707031 210.949219 C 123.921875 212.550781 125.214844 216.378906 126.582031 219.457031 C 129.308594 225.582031 135.445312 236.839844 137.0625 238.691406 C 137.625 239.332031 138.371094 240.53125 138.71875 241.351562 C 139.070312 242.175781 140.175781 243.785156 141.183594 244.929688 C 142.1875 246.078125 142.824219 247.199219 142.59375 247.421875 C 142.363281 247.644531 141.175781 246.675781 139.957031 245.265625 C 138.734375 243.859375 137.734375 242.890625 137.734375 243.113281 C 137.734375 243.691406 144.191406 252.1875 145.488281 253.316406 C 146.96875 254.605469 161.011719 261.910156 166.207031 264.097656 C 168.554688 265.085938 172.144531 266.109375 174.179688 266.371094 C 182.960938 267.488281 184.925781 268.179688 184.574219 270.027344 C 184.351562 271.191406 184.621094 271.46875 186.507812 272.003906 C 192.421875 273.683594 199.242188 274.261719 200.875 273.226562 Z M 189.308594 270.253906 C 186.203125 269.523438 186.183594 269.277344 189.234375 269.324219 C 190.679688 269.347656 192.128906 269.707031 192.480469 270.128906 C 193.226562 271.027344 192.707031 271.046875 189.308594 270.253906 Z M 146.785156 253.273438 C 146.039062 252.648438 145.695312 252.128906 146.027344 252.117188 C 146.910156 252.089844 148.898438 253.65625 148.496094 254.0625 C 148.304688 254.25 147.535156 253.894531 146.785156 253.273438 Z M 215.136719 267.234375 C 217.410156 265.175781 218.316406 260.59375 218.300781 251.246094 C 218.285156 242.011719 217.273438 236.828125 214.378906 231.136719 C 209.839844 222.214844 204.859375 219.265625 182.152344 212.054688 C 162.625 205.855469 141.574219 200.886719 130.851562 199.945312 C 122.652344 199.226562 121.898438 201.597656 128.03125 208.820312 C 132.976562 214.644531 134.867188 218.839844 136.886719 228.46875 C 138.808594 237.636719 140.035156 240.414062 144.566406 245.875 C 146.757812 248.515625 148.871094 250.773438 149.261719 250.898438 C 149.65625 251.019531 151.816406 252.230469 154.0625 253.582031 C 161.921875 258.320312 175.679688 263.628906 186.203125 265.992188 C 195.351562 268.042969 199.671875 268.542969 207.292969 268.429688 C 212.953125 268.34375 214.101562 268.167969 215.136719 267.234375 Z M 229.929688 230.808594 C 230.847656 229.832031 231.15625 228.90625 231.027344 227.550781 C 230.867188 225.882812 230.589844 225.59375 228.722656 225.15625 C 226.289062 224.585938 223.335938 225.578125 222.84375 227.136719 C 221.570312 231.140625 226.984375 233.941406 229.929688 230.808594 Z M 224.261719 230.425781 C 222.285156 228.449219 223.035156 227.300781 226.164062 227.5 C 228.339844 227.636719 228.851562 227.492188 228.851562 226.738281 C 228.851562 225.355469 230.246094 226.074219 230.464844 227.570312 C 230.707031 229.21875 228.519531 231.597656 226.757812 231.597656 C 226.03125 231.597656 224.90625 231.070312 224.261719 230.425781 Z M 227.996094 229.558594 C 227.996094 228.742188 227.527344 228.421875 226.144531 228.289062 C 224.617188 228.140625 224.296875 228.308594 224.296875 229.246094 C 224.296875 229.972656 224.757812 230.46875 225.578125 230.625 C 227.492188 230.984375 227.996094 230.761719 227.996094 229.558594 Z M 161.082031 199.230469 C 161.082031 198.492188 154.875 196.742188 142.601562 194.015625 C 138.234375 193.046875 131.058594 191.394531 126.65625 190.347656 C 118.003906 188.285156 112.675781 187.507812 112.675781 188.304688 C 112.675781 188.582031 114.148438 189.101562 115.949219 189.460938 C 117.75 189.820312 126.402344 191.882812 135.171875 194.039062 C 148.136719 197.234375 157.332031 199.257812 160.65625 199.65625 C 160.890625 199.683594 161.082031 199.492188 161.082031 199.230469 Z M 75.359375 229.691406 C 72.414062 228.597656 66.078125 225.175781 63.878906 223.492188 C 63.507812 223.207031 63.332031 222.628906 63.492188 222.210938 C 63.714844 221.632812 64.835938 221.933594 68.160156 223.460938 C 73.371094 225.855469 79.121094 227.933594 82.074219 228.480469 C 84.46875 228.925781 85.320312 229.765625 84.136719 230.515625 C 82.773438 231.378906 78.917969 231.015625 75.359375 229.691406 Z M 243.96875 227.65625 C 243.734375 227.277344 243.441406 224.75 243.3125 222.039062 C 243.1875 219.324219 242.941406 216.652344 242.765625 216.097656 C 242.53125 215.363281 242.875 214.921875 244.011719 214.488281 C 244.875 214.160156 247.648438 212.652344 250.171875 211.140625 C 252.695312 209.625 258.28125 206.429688 262.582031 204.035156 C 269.390625 200.246094 270.542969 199.773438 271.519531 200.382812 C 272.433594 200.953125 272.824219 200.917969 273.664062 200.183594 C 274.230469 199.6875 276.230469 198.449219 278.109375 197.429688 C 279.992188 196.410156 281.914062 195.242188 282.382812 194.832031 C 282.855469 194.425781 285.210938 193.15625 287.617188 192.011719 C 290.242188 190.765625 292.382812 189.324219 292.964844 188.414062 C 293.5 187.578125 294.796875 186.171875 295.847656 185.289062 C 296.898438 184.402344 297.757812 183.3125 297.757812 182.867188 C 297.757812 182.421875 298.105469 182.054688 298.53125 182.054688 C 298.957031 182.054688 301.453125 180.804688 304.082031 179.28125 C 315.710938 172.53125 322.632812 168.382812 323.953125 167.371094 C 324.738281 166.773438 326.019531 165.957031 326.800781 165.558594 C 327.585938 165.15625 328.925781 164.175781 329.785156 163.375 C 330.644531 162.574219 331.480469 162.058594 331.648438 162.222656 C 332.066406 162.640625 323.03125 170.101562 318.066406 173.4375 C 315.824219 174.945312 310.914062 178.03125 307.15625 180.289062 C 298.496094 185.503906 295.480469 187.636719 295.480469 188.554688 C 295.480469 189.757812 293.914062 190.835938 283.855469 196.558594 C 276.109375 200.964844 273.925781 201.96875 272.683594 201.695312 C 271.5625 201.453125 270.332031 201.835938 268.195312 203.097656 C 266.574219 204.050781 265.027344 204.832031 264.761719 204.832031 C 264.492188 204.832031 262.941406 205.730469 261.3125 206.828125 C 259.683594 207.921875 258.136719 208.820312 257.875 208.820312 C 257.398438 208.820312 248.894531 213.769531 246.800781 215.265625 C 245.898438 215.910156 245.808594 216.238281 246.351562 216.894531 C 246.867188 217.515625 246.886719 218.675781 246.421875 221.667969 C 245.738281 226.097656 244.648438 228.753906 243.96875 227.65625 Z M 230.703125 216.019531 C 228.714844 215.03125 229.191406 214.34375 231.550781 214.789062 C 234.128906 215.269531 234.667969 215.566406 234.238281 216.261719 C 233.820312 216.933594 232.347656 216.832031 230.703125 216.019531 Z M 232.269531 213.621094 C 232.269531 213.441406 232.640625 212.921875 233.09375 212.46875 C 233.691406 211.871094 234.574219 211.75 236.3125 212.027344 C 238.492188 212.375 238.613281 212.476562 237.65625 213.175781 C 236.640625 213.921875 232.269531 214.277344 232.269531 213.621094 Z M 46.171875 209.144531 C 41.714844 204.378906 39.671875 201.367188 36.332031 194.617188 C 30.519531 182.882812 25.523438 164.679688 27.035156 160.746094 C 27.621094 159.214844 28.328125 159.746094 28.691406 161.980469 C 30.476562 173.070312 32.980469 180.398438 39.289062 193.007812 C 41.160156 196.746094 42.632812 200.449219 42.632812 201.414062 C 42.632812 202.878906 43.097656 203.4375 45.71875 205.113281 C 48.609375 206.960938 51.175781 209.71875 51.175781 210.972656 C 51.175781 211.277344 50.824219 211.820312 50.394531 212.175781 C 49.777344 212.691406 48.902344 212.0625 46.171875 209.144531 Z M 223.050781 211.847656 C 223.464844 211.683594 223.953125 211.703125 224.144531 211.890625 C 224.332031 212.082031 223.996094 212.214844 223.394531 212.191406 C 222.734375 212.164062 222.597656 212.027344 223.050781 211.847656 Z M 218.496094 210.707031 C 218.90625 210.542969 219.398438 210.5625 219.589844 210.753906 C 219.777344 210.941406 219.441406 211.078125 218.839844 211.050781 C 218.175781 211.023438 218.042969 210.890625 218.496094 210.707031 Z M 315.410156 183.511719 C 315.410156 183.023438 315.667969 182.625 315.980469 182.625 C 316.292969 182.625 316.550781 182.863281 316.550781 183.160156 C 316.550781 183.453125 316.292969 183.855469 315.980469 184.046875 C 315.667969 184.242188 315.410156 184 315.410156 183.511719 Z M 315.183594 179.300781 C 314.703125 178.519531 316.242188 176.765625 319.191406 174.742188 C 320.949219 173.535156 321.421875 173.34375 320.484375 174.214844 C 319.667969 174.96875 318.828125 176.28125 318.613281 177.132812 C 318.402344 177.988281 317.976562 178.53125 317.667969 178.339844 C 317.363281 178.152344 316.957031 178.398438 316.769531 178.886719 C 316.398438 179.859375 315.648438 180.050781 315.183594 179.300781 Z M 353.324219 167.492188 C 352.613281 166.785156 352.429688 165.25 352.429688 160.125 C 352.429688 152.59375 352.375 145.628906 354.382812 145.628906 C 355.453125 145.628906 355.425781 142.863281 355.886719 144.285156 C 356.605469 146.519531 357.988281 166.671875 357.359375 167.675781 C 356.738281 168.667969 354.394531 168.5625 353.324219 167.492188 Z M 356.667969 167.292969 C 357.167969 166.492188 355.523438 156.691406 354.882812 156.054688 C 353.8125 154.980469 353.609375 155.648438 353.648438 160.761719 C 353.671875 163.546875 353.925781 166.273438 354.214844 166.820312 C 354.785156 167.890625 356.140625 168.152344 356.667969 167.292969 Z M 17.085938 145.195312 C 16.988281 143.597656 18.433594 142.671875 23.558594 141.039062 C 25.75 140.339844 30.875 138.28125 34.945312 136.457031 C 39.019531 134.632812 46.195312 131.488281 50.890625 129.46875 C 64.671875 123.539062 72.949219 119.679688 75.273438 118.097656 C 76.46875 117.285156 80.183594 115.574219 83.53125 114.289062 C 86.878906 113.007812 92.179688 110.964844 95.3125 109.75 C 105.726562 105.714844 131.726562 97.429688 134.890625 96.964844 C 139.871094 96.230469 137.726562 96.71875 132.894531 98.003906 C 126.433594 99.726562 101.332031 108.214844 93.03125 111.433594 C 77.226562 117.566406 77.699219 117.347656 76.898438 119.027344 C 76.234375 120.414062 76.253906 120.769531 77.035156 121.632812 C 78.199219 122.917969 78.195312 124.476562 77.03125 124.921875 C 75.964844 125.332031 75.117188 124.21875 75.101562 122.402344 C 75.09375 120.820312 75.109375 120.820312 71.5 122.480469 C 69.875 123.230469 65.34375 125.308594 61.425781 127.101562 C 53.144531 130.890625 52.425781 131.351562 53.703125 132.070312 C 54.816406 132.691406 54.875 135.695312 53.78125 136.117188 C 52.617188 136.5625 51.566406 135.039062 51.886719 133.367188 C 52.066406 132.414062 51.902344 131.941406 51.390625 131.941406 C 50.570312 131.941406 34.113281 139.558594 31.949219 140.9375 C 31.179688 141.429688 30.003906 141.628906 29.027344 141.433594 C 27.019531 141.03125 26.546875 141.433594 27.324219 142.882812 C 28.179688 144.480469 27.757812 144.597656 24.929688 143.554688 C 21.667969 142.355469 17.792969 143.199219 17.410156 145.191406 L 17.164062 146.460938 Z M 53.566406 133.535156 C 53.035156 133.003906 52.882812 133.15625 52.882812 134.21875 C 52.882812 135.28125 53.035156 135.433594 53.566406 134.902344 C 54.101562 134.371094 54.101562 134.066406 53.566406 133.535156 Z M 31.386719 144.9375 C 30.367188 144.308594 29.535156 143.578125 29.535156 143.316406 C 29.535156 143.050781 31.648438 141.824219 34.234375 140.589844 C 41.550781 137.089844 50.402344 133.078125 50.808594 133.078125 C 51.011719 133.078125 51.175781 133.667969 51.175781 134.390625 C 51.175781 137.152344 54.160156 138.066406 55.265625 135.640625 C 55.746094 134.585938 55.75 133.855469 55.273438 132.816406 C 54.921875 132.042969 54.816406 131.300781 55.042969 131.167969 C 56.363281 130.375 73.46875 122.828125 73.945312 122.828125 C 74.265625 122.828125 74.523438 123.289062 74.523438 123.855469 C 74.523438 126.222656 77.445312 127.097656 78.539062 125.054688 C 79.011719 124.171875 79.003906 123.453125 78.511719 122.261719 C 77.21875 119.144531 77.859375 118.136719 82.210938 116.421875 C 102.804688 108.316406 128.402344 99.675781 137.183594 97.867188 C 142.015625 96.875 141.167969 96.566406 139.121094 96.707031 C 131.171875 97.261719 140.523438 96.101562 143.714844 96.234375 C 147.09375 96.375 149.734375 96.566406 147.417969 96.585938 C 145.429688 96.605469 145.488281 96.96875 148.476562 97.394531 C 156.515625 98.539062 164.167969 102.511719 181.488281 114.546875 C 184.097656 116.355469 186.371094 118.203125 186.539062 118.648438 C 186.980469 119.800781 185.402344 123.648438 184.410156 123.832031 C 183.953125 123.917969 183.066406 123.207031 182.441406 122.25 C 181.085938 120.1875 175.082031 115.027344 166.589844 108.636719 C 158.996094 102.917969 155.523438 100.933594 151.140625 99.792969 C 143.582031 97.828125 137.839844 99.019531 126.554688 104.882812 L 118.414062 109.113281 L 117.65625 107.570312 C 116.757812 105.738281 114.6875 105.640625 112.246094 107.316406 C 111.386719 107.90625 109.40625 108.851562 107.839844 109.417969 C 106.273438 109.984375 103.839844 111.023438 102.429688 111.726562 C 101.019531 112.433594 98.128906 113.710938 96.003906 114.574219 C 93.878906 115.433594 91.886719 116.621094 91.570312 117.207031 C 91.257812 117.792969 90.558594 118.273438 90.023438 118.269531 C 87.914062 118.261719 83.046875 120.828125 82.707031 122.125 C 82.367188 123.425781 83.292969 125.105469 84.347656 125.105469 C 85.386719 125.105469 91.609375 122.113281 91.609375 121.613281 C 91.609375 121.34375 92.269531 121.121094 93.074219 121.121094 C 93.878906 121.121094 97.355469 119.8125 100.796875 118.214844 C 104.238281 116.613281 107.191406 115.441406 107.359375 115.609375 C 107.9375 116.1875 102.691406 119.042969 85.089844 127.71875 C 75.363281 132.511719 64.257812 138.242188 60.40625 140.453125 C 56.558594 142.660156 53.320312 144.46875 53.210938 144.46875 C 53.101562 144.46875 52.84375 143.570312 52.636719 142.472656 C 52.40625 141.246094 51.710938 140.113281 50.84375 139.542969 C 49.164062 138.445312 48.257812 138.75 42.894531 142.222656 C 41 143.449219 38.625 144.617188 37.613281 144.816406 C 36.605469 145.019531 35.640625 145.410156 35.46875 145.679688 C 34.984375 146.46875 33.390625 146.179688 31.386719 144.9375 Z M 83.636719 122.839844 C 83.636719 121.507812 88.742188 118.652344 90.15625 119.195312 C 91.796875 119.824219 91.058594 121.09375 88.210938 122.535156 C 84.796875 124.265625 83.636719 124.34375 83.636719 122.839844 Z M 147.929688 96.539062 C 148.320312 96.382812 151.140625 96.726562 151.550781 96.824219 C 157.167969 98.191406 154.980469 97.890625 150.835938 97.113281 C 150.066406 96.96875 147.535156 96.699219 147.929688 96.539062 Z M 147.929688 96.539062 " fill-opacity="1" fill-rule="nonzero"/></g></svg>