<svg xmlns="http://www.w3.org/2000/svg" xmlns:xlink="http://www.w3.org/1999/xlink" width="500" zoomAndPan="magnify" viewBox="0 0 375 374.999991" height="500" preserveAspectRatio="xMidYMid meet" version="1.0"><defs><clipPath id="1eff17f402"><path d="M 132 145 L 314.285156 145 L 314.285156 337.5 L 132 337.5 Z M 132 145 " clip-rule="nonzero"/></clipPath><clipPath id="de7472672b"><path d="M 60.785156 91 L 134 91 L 134 201 L 60.785156 201 Z M 60.785156 91 " clip-rule="nonzero"/></clipPath><clipPath id="1a4454f739"><path d="M 137 37.5 L 210 37.5 L 210 144 L 137 144 Z M 137 37.5 " clip-rule="nonzero"/></clipPath></defs><g clip-path="url(#1eff17f402)"><path fill="#ff3131" d="M 149.949219 222.070312 C 149.324219 221.929688 148.972656 221.804688 148.617188 221.78125 C 146.386719 221.636719 144.371094 220.933594 142.589844 219.554688 C 142.082031 219.164062 141.515625 218.804688 140.917969 218.585938 C 138.835938 217.820312 137.296875 216.296875 135.691406 214.886719 C 135.164062 214.421875 134.90625 213.640625 134.5625 212.980469 C 133.800781 211.515625 133.347656 209.976562 133.242188 208.304688 C 133.105469 206.207031 132.777344 204.125 132.613281 202.027344 C 132.558594 201.332031 132.617188 200.566406 132.863281 199.925781 C 133.667969 197.828125 134.585938 195.777344 135.449219 193.703125 C 135.847656 192.746094 136.460938 191.96875 137.164062 191.203125 C 138.445312 189.796875 139.566406 188.25 140.796875 186.800781 C 141.367188 186.128906 142.027344 185.53125 142.660156 184.917969 C 143.773438 183.835938 144.625 182.457031 146.121094 181.804688 C 147.363281 181.261719 148.222656 180.210938 149.3125 179.472656 C 150.089844 178.945312 151.015625 178.632812 151.863281 178.199219 C 154.070312 177.074219 156.269531 175.917969 158.488281 174.808594 C 159.277344 174.414062 160.136719 174.160156 160.929688 173.773438 C 163.09375 172.714844 165.207031 171.554688 167.402344 170.5625 C 169.074219 169.808594 170.835938 169.265625 172.554688 168.609375 C 172.996094 168.441406 173.402344 168.1875 173.839844 168.003906 C 174.554688 167.703125 175.277344 167.425781 176 167.144531 C 176.0625 167.121094 176.144531 167.152344 176.203125 167.125 C 178.28125 166.125 180.59375 165.789062 182.652344 164.648438 C 184.65625 163.535156 186.691406 162.417969 188.964844 161.824219 C 190.324219 161.46875 191.695312 160.945312 192.886719 160.21875 C 194.636719 159.152344 196.632812 158.828125 198.457031 158.019531 C 199.59375 157.515625 200.679688 156.894531 201.789062 156.316406 C 201.96875 156.222656 202.117188 156.066406 202.304688 155.988281 C 203.753906 155.402344 205.21875 154.84375 206.664062 154.238281 C 207.820312 153.753906 208.953125 153.210938 210.105469 152.714844 C 211.257812 152.222656 212.425781 151.757812 213.585938 151.28125 C 214.054688 151.089844 214.523438 150.890625 214.988281 150.695312 C 216.027344 150.261719 217.039062 149.757812 218.105469 149.414062 C 220.308594 148.707031 222.53125 148.058594 224.761719 147.441406 C 225.371094 147.269531 226.042969 147.324219 226.679688 147.238281 C 227.652344 147.113281 228.648438 147.0625 229.578125 146.78125 C 230.496094 146.507812 231.367188 146.308594 232.34375 146.292969 C 234.894531 146.242188 237.4375 146.011719 239.988281 145.871094 C 240.628906 145.835938 241.277344 145.859375 241.921875 145.871094 C 242.125 145.871094 242.339844 145.96875 242.53125 145.929688 C 244.101562 145.601562 245.539062 146.03125 247.011719 146.53125 C 248.15625 146.917969 249.375 147.125 250.574219 147.316406 C 252.253906 147.582031 253.671875 148.339844 254.917969 149.453125 C 256.03125 150.445312 257.183594 151.410156 258.222656 152.476562 C 258.78125 153.050781 259.183594 153.792969 259.570312 154.503906 C 260.179688 155.636719 260.773438 156.789062 261.273438 157.976562 C 261.707031 159.003906 262.175781 160.066406 262.324219 161.15625 C 262.597656 163.195312 262.785156 165.257812 261.972656 167.269531 C 261.566406 168.277344 261.40625 169.378906 261.015625 170.394531 C 260.140625 172.660156 259.738281 175.121094 258.285156 177.160156 C 258.175781 177.3125 258.144531 177.523438 258.007812 177.886719 C 258.425781 177.835938 258.714844 177.84375 258.980469 177.765625 C 261.015625 177.179688 262.953125 177.558594 264.863281 178.316406 C 265.210938 178.457031 265.574219 178.640625 265.933594 178.644531 C 267.394531 178.65625 268.496094 179.496094 269.648438 180.195312 C 270.960938 180.988281 272.257812 181.8125 273.492188 182.71875 C 274.628906 183.554688 275.617188 184.5625 275.859375 186.054688 C 275.980469 186.792969 275.996094 187.554688 276.179688 188.273438 C 276.390625 189.078125 276.726562 189.851562 277.03125 190.628906 C 277.484375 191.796875 277.964844 192.949219 278.410156 194.117188 C 278.789062 195.089844 279.128906 196.078125 279.496094 197.058594 C 279.722656 197.65625 279.957031 198.257812 280.21875 198.84375 C 280.957031 200.523438 281.742188 202.183594 282.445312 203.875 C 282.847656 204.84375 283.183594 205.847656 283.445312 206.863281 C 283.71875 207.914062 284.222656 208.8125 284.921875 209.621094 C 285.414062 210.191406 285.898438 210.757812 285.910156 211.582031 C 285.914062 211.808594 286.023438 212.054688 286.144531 212.25 C 287.148438 213.878906 288 215.570312 288.523438 217.417969 C 288.632812 217.804688 288.894531 218.148438 289.09375 218.503906 C 289.847656 219.835938 290.464844 221.277344 291.40625 222.464844 C 292.335938 223.648438 292.613281 224.964844 292.984375 226.328125 C 293.207031 227.160156 293.777344 227.894531 294.128906 228.699219 C 294.589844 229.757812 294.996094 230.839844 295.414062 231.917969 C 295.609375 232.421875 295.765625 232.941406 295.957031 233.449219 C 296.261719 234.25 297.230469 234.78125 296.917969 235.855469 C 296.871094 236.011719 297.171875 236.246094 297.253906 236.46875 C 297.425781 236.929688 297.636719 237.398438 297.691406 237.882812 C 297.761719 238.515625 297.886719 239.0625 298.421875 239.492188 C 298.699219 239.71875 298.957031 240.054688 299.066406 240.390625 C 300.054688 243.492188 301.527344 246.34375 303.347656 249.035156 C 303.75 249.632812 303.914062 250.386719 304.183594 251.070312 C 304.589844 252.109375 304.953125 253.167969 305.410156 254.1875 C 305.699219 254.832031 306.144531 255.40625 306.472656 256.035156 C 307.179688 257.390625 307.859375 258.757812 308.550781 260.121094 C 308.628906 260.273438 308.671875 260.449219 308.769531 260.582031 C 310.222656 262.527344 310.75 264.804688 311.144531 267.132812 C 311.175781 267.296875 311.234375 267.476562 311.335938 267.601562 C 312.535156 269.085938 312.757812 270.949219 313.332031 272.675781 C 313.925781 274.460938 313.589844 276.335938 313.914062 278.144531 C 314.195312 279.714844 313.964844 281.160156 312.984375 282.46875 C 312.75 282.785156 312.550781 283.230469 312.566406 283.605469 C 312.617188 284.753906 312.054688 285.835938 312.238281 286.996094 C 312.269531 287.175781 312.1875 287.417969 312.070312 287.5625 C 311.464844 288.332031 310.808594 289.0625 310.21875 289.839844 C 309.933594 290.214844 309.808594 290.707031 309.519531 291.074219 C 308.128906 292.832031 306.75 294.605469 305.285156 296.300781 C 304.3125 297.425781 303.269531 298.507812 301.871094 299.167969 C 301.46875 299.359375 301.21875 299.855469 300.832031 300.125 C 299.414062 301.121094 297.984375 302.097656 296.53125 303.039062 C 295.21875 303.890625 293.941406 304.792969 292.402344 305.246094 C 291.910156 305.390625 291.539062 305.917969 291.050781 306.128906 C 290.085938 306.542969 289.078125 306.847656 288.097656 307.21875 C 287.621094 307.398438 287.15625 307.609375 286.699219 307.835938 C 285.390625 308.484375 284.097656 309.152344 282.785156 309.789062 C 282.480469 309.933594 282.128906 310.074219 281.804688 310.0625 C 280.601562 310.027344 279.566406 310.511719 278.523438 311.007812 C 278.25 311.140625 277.929688 311.167969 277.648438 311.289062 C 276.714844 311.6875 275.707031 311.984375 274.878906 312.542969 C 273.71875 313.324219 272.550781 313.757812 271.148438 313.566406 C 270.789062 313.519531 270.355469 313.527344 270.050781 313.683594 C 268.632812 314.410156 267.015625 314.414062 265.566406 314.953125 C 263.976562 315.542969 262.464844 316.347656 260.910156 317.03125 C 259.296875 317.746094 257.675781 318.445312 256.046875 319.128906 C 254.824219 319.640625 253.566406 320.074219 252.359375 320.621094 C 251.164062 321.160156 250.023438 321.835938 248.832031 322.386719 C 247.511719 323 246.152344 323.523438 244.820312 324.113281 C 244.234375 324.375 243.703125 324.777344 243.105469 325.003906 C 241.078125 325.773438 239.027344 326.492188 236.988281 327.238281 C 236.703125 327.34375 236.375 327.429688 236.167969 327.628906 C 234.535156 329.191406 232.34375 329.5 230.34375 330.195312 C 227.972656 331.023438 225.542969 331.6875 223.136719 332.417969 C 222.84375 332.503906 222.542969 332.5625 222.25 332.640625 C 221.777344 332.773438 221.304688 332.921875 220.828125 333.050781 C 220.503906 333.140625 220.175781 333.214844 219.847656 333.296875 C 218.769531 333.558594 217.695312 333.863281 216.605469 334.074219 C 214.84375 334.414062 213.269531 335.441406 211.386719 335.371094 C 210.597656 335.34375 209.789062 335.625 209 335.800781 C 207.644531 336.101562 206.292969 336.324219 204.890625 336.300781 C 204.386719 336.292969 203.863281 336.621094 203.371094 336.847656 C 202.289062 337.355469 201.179688 337.5 199.992188 337.285156 C 198.390625 337 196.777344 336.785156 195.167969 336.539062 C 195.136719 336.535156 195.09375 336.535156 195.070312 336.519531 C 193.53125 335.429688 191.613281 335.589844 189.949219 334.976562 C 188.761719 334.539062 187.699219 333.738281 186.609375 333.054688 C 185.777344 332.535156 185 331.929688 184.179688 331.394531 C 183.300781 330.824219 182.414062 330.253906 181.5 329.742188 C 179.691406 328.734375 178.207031 327.351562 176.988281 325.714844 C 176.390625 324.914062 176.019531 323.933594 175.597656 323.015625 C 175.1875 322.125 174.835938 321.207031 174.472656 320.296875 C 173.53125 317.9375 172.246094 315.691406 172.152344 313.058594 C 172.140625 312.734375 172.039062 312.324219 171.824219 312.109375 C 170.660156 310.96875 170.597656 309.441406 170.234375 308 C 170.023438 307.160156 169.640625 306.355469 169.277344 305.5625 C 168.816406 304.546875 168.289062 303.558594 167.804688 302.550781 C 167.703125 302.339844 167.652344 302.101562 167.601562 301.871094 C 167.398438 300.953125 167.222656 300.027344 167.003906 299.113281 C 166.792969 298.226562 166.613281 297.320312 166.289062 296.472656 C 165.796875 295.203125 165.316406 293.902344 164.605469 292.753906 C 163.65625 291.226562 163.0625 289.574219 162.421875 287.921875 C 162.265625 287.519531 162.003906 287.15625 161.832031 286.757812 C 161.484375 285.945312 161.046875 285.148438 160.859375 284.300781 C 160.683594 283.503906 160.347656 282.84375 159.917969 282.179688 C 159.472656 281.5 159.117188 280.765625 158.730469 280.054688 C 158.679688 279.964844 158.679688 279.835938 158.613281 279.773438 C 157.433594 278.652344 157.503906 277.035156 156.964844 275.660156 C 156.949219 275.628906 156.925781 275.59375 156.929688 275.566406 C 157.3125 273.515625 155.675781 272.066406 155.3125 270.214844 C 155.070312 268.980469 154.265625 267.867188 153.816406 266.664062 C 153.496094 265.8125 153.378906 264.890625 153.113281 264.015625 C 152.667969 262.554688 152.164062 261.109375 151.71875 259.644531 C 151.542969 259.0625 151.46875 258.453125 151.324219 257.859375 C 150.871094 256 150.148438 254.25 149.3125 252.527344 C 148.941406 251.757812 148.914062 250.828125 148.683594 249.984375 C 148.085938 247.816406 147.460938 245.660156 146.855469 243.5 C 146.726562 243.039062 146.660156 242.5625 146.515625 242.109375 C 146.339844 241.570312 146.132812 241.039062 145.898438 240.519531 C 145.578125 239.808594 145.1875 239.148438 145.347656 238.289062 C 145.429688 237.84375 145.265625 237.34375 145.167969 236.882812 C 144.964844 235.953125 144.667969 235.039062 144.539062 234.101562 C 144.464844 233.550781 144.660156 232.972656 144.695312 232.402344 C 144.785156 230.980469 145.09375 229.675781 146.148438 228.589844 C 146.800781 227.917969 147.195312 227.078125 147.425781 226.105469 C 147.628906 225.257812 148.257812 224.507812 148.734375 223.742188 C 149.050781 223.234375 149.4375 222.765625 149.949219 222.070312 Z M 255.03125 200.910156 C 255.152344 200.824219 255.273438 200.742188 255.394531 200.660156 C 255.402344 200.664062 255.410156 200.671875 255.417969 200.675781 C 255.292969 200.753906 255.167969 200.832031 255.046875 200.910156 C 254.855469 200.945312 254.664062 200.976562 254.476562 201.011719 C 253.226562 201.179688 252.082031 201.578125 251.175781 202.511719 C 252.507812 202.535156 253.339844 201.460938 254.453125 200.996094 C 254.644531 200.964844 254.839844 200.9375 255.03125 200.910156 Z M 234.488281 189.246094 C 233.835938 189.089844 233.242188 189.183594 232.617188 189.492188 C 231.492188 190.046875 230.320312 190.503906 229.160156 190.984375 C 228.601562 191.21875 228.027344 191.433594 227.457031 191.636719 C 226.015625 192.144531 224.566406 192.628906 223.132812 193.15625 C 221.675781 193.6875 220.035156 193.761719 218.820312 194.914062 C 218.648438 195.082031 218.3125 195.078125 218.058594 195.15625 C 216.632812 195.597656 215.1875 195.972656 213.800781 196.503906 C 212.695312 196.929688 211.679688 197.570312 210.601562 198.0625 C 209.925781 198.371094 209.214844 198.636719 208.496094 198.816406 C 206.9375 199.195312 205.359375 199.492188 204.183594 200.726562 C 204.050781 200.863281 203.839844 200.945312 203.648438 201.011719 C 202.105469 201.554688 200.53125 202.019531 199.023438 202.640625 C 197.148438 203.417969 195.253906 204.207031 193.5 205.21875 C 192.289062 205.914062 191.101562 206.605469 189.792969 207.101562 C 188.808594 207.476562 187.769531 207.792969 186.910156 208.363281 C 185.753906 209.132812 184.625 209.75 183.203125 209.894531 C 182.5625 209.957031 181.96875 210.472656 181.355469 210.785156 C 181.378906 210.871094 181.40625 210.953125 181.433594 211.039062 C 182.800781 211.214844 184.179688 211.328125 185.535156 211.582031 C 186.527344 211.769531 187.488281 212.132812 188.457031 212.425781 C 188.78125 212.523438 189.105469 212.757812 189.417969 212.734375 C 190.667969 212.652344 191.9375 212.601562 193.15625 212.335938 C 195.753906 211.769531 198.28125 211.097656 200.976562 212.027344 C 203.242188 212.808594 205.117188 213.863281 205.992188 216.238281 C 206.28125 217.019531 206.324219 217.757812 205.945312 218.507812 C 205.277344 219.816406 204.300781 220.828125 203.027344 221.554688 C 201.789062 222.261719 200.597656 223.082031 199.289062 223.621094 C 197.660156 224.289062 195.949219 224.785156 194.238281 225.226562 C 192.671875 225.632812 191.113281 226.105469 189.433594 226.007812 C 188.4375 225.953125 187.417969 226.210938 186.414062 226.335938 C 186.28125 226.351562 186.152344 226.417969 186.035156 226.484375 C 185.3125 226.929688 184.617188 227.425781 183.863281 227.816406 C 182.273438 228.640625 180.898438 229.902344 179.046875 230.222656 C 178.621094 230.296875 178.222656 230.542969 177.824219 230.738281 C 176.820312 231.230469 175.820312 231.734375 174.820312 232.238281 C 174.511719 232.390625 174.210938 232.558594 173.90625 232.71875 C 173.945312 232.820312 173.984375 232.921875 174.023438 233.023438 C 174.738281 232.867188 175.492188 232.808594 176.164062 232.535156 C 177.488281 231.996094 178.796875 231.476562 180.230469 231.261719 C 180.988281 231.148438 181.71875 230.789062 182.429688 230.460938 C 183.59375 229.925781 184.640625 229.097656 186.011719 229.109375 C 187.246094 229.117188 188.335938 228.644531 189.402344 228.09375 C 189.640625 227.96875 189.914062 227.910156 190.167969 227.820312 C 190.925781 227.546875 191.746094 227.371094 192.429688 226.972656 C 193.367188 226.421875 194.332031 226.097656 195.402344 225.976562 C 196.007812 225.910156 196.617188 225.785156 197.191406 225.589844 C 198.25 225.234375 199.28125 224.808594 200.324219 224.414062 C 200.515625 224.34375 200.734375 224.320312 200.902344 224.21875 C 202.683594 223.117188 204.742188 222.882812 206.714844 222.425781 C 208.277344 222.066406 209.691406 221.523438 210.941406 220.503906 C 211.761719 219.835938 212.671875 219.289062 213.8125 219.335938 C 214.074219 219.347656 214.371094 219.28125 214.605469 219.160156 C 216.027344 218.425781 217.433594 217.664062 218.847656 216.917969 C 219.234375 216.710938 219.625 216.507812 220.03125 216.332031 C 221.996094 215.484375 223.964844 214.644531 225.9375 213.8125 C 226.339844 213.640625 226.777344 213.542969 227.179688 213.375 C 228.082031 212.988281 228.976562 212.589844 229.863281 212.175781 C 230.261719 211.988281 230.625 211.726562 231.027344 211.542969 C 232.515625 210.863281 234.003906 210.191406 235.507812 209.546875 C 236.847656 208.972656 238.203125 208.433594 239.558594 207.890625 C 240.0625 207.6875 240.582031 207.519531 241.085938 207.308594 C 241.582031 207.097656 242.074219 206.875 242.550781 206.621094 C 243.894531 205.902344 245.132812 204.9375 246.757812 204.886719 C 246.980469 204.878906 247.238281 204.777344 247.414062 204.632812 C 248.0625 204.09375 248.683594 203.519531 249.316406 202.957031 C 248.472656 203.199219 247.699219 203.597656 246.890625 203.914062 C 245.921875 204.292969 245.070312 204.9375 243.976562 205.042969 C 242.910156 205.144531 241.851562 205.292969 240.878906 205.882812 C 240.410156 206.167969 239.769531 206.171875 239.210938 206.3125 C 238.296875 206.539062 237.386719 206.773438 236.476562 207.015625 C 236.28125 207.070312 236.113281 207.238281 235.917969 207.261719 C 234.617188 207.433594 233.59375 208.171875 232.535156 208.847656 C 230.367188 210.234375 228.03125 211.207031 225.515625 211.765625 C 225.066406 211.867188 224.652344 212.121094 224.21875 212.296875 C 223.972656 212.398438 223.726562 212.523438 223.464844 212.5625 C 222.65625 212.675781 221.84375 212.761719 221.03125 212.84375 C 219.417969 213.003906 217.941406 212.527344 216.515625 211.847656 C 215.539062 211.382812 214.945312 210.46875 214.863281 209.511719 C 214.691406 207.585938 215.019531 205.675781 216.269531 204.097656 C 217.773438 202.203125 219.359375 200.34375 221.523438 199.179688 C 222.703125 198.546875 223.695312 197.847656 224.507812 196.734375 C 225.273438 195.675781 226.585938 195.222656 227.820312 194.808594 C 228.960938 194.421875 229.941406 193.75 230.605469 192.816406 C 231.667969 191.328125 232.832031 190.019531 234.503906 189.21875 L 234.480469 189.167969 Z M 150.855469 241.332031 C 150.796875 241.371094 150.738281 241.410156 150.679688 241.453125 C 150.847656 241.804688 151.011719 242.164062 151.1875 242.515625 C 151.335938 242.820312 151.523438 243.109375 151.648438 243.421875 C 152.15625 244.679688 152.65625 245.9375 153.136719 247.203125 C 153.761719 248.851562 154.382812 250.503906 154.980469 252.160156 C 155.382812 253.265625 155.367188 254.464844 155.980469 255.550781 C 156.566406 256.597656 156.832031 257.820312 157.261719 258.957031 C 157.367188 259.238281 157.554688 259.488281 157.710938 259.75 C 157.996094 260.238281 158.355469 260.691406 158.558594 261.210938 C 158.941406 262.179688 159.011719 263.289062 159.960938 263.976562 C 160.082031 264.066406 160.136719 264.269531 160.183594 264.429688 C 160.523438 265.640625 160.839844 266.863281 161.199219 268.066406 C 161.421875 268.8125 161.691406 269.542969 161.972656 270.269531 C 162.273438 271.058594 162.667969 271.816406 162.917969 272.617188 C 163.527344 274.5625 164.011719 276.546875 164.671875 278.472656 C 165.296875 280.304688 166.113281 282.066406 166.789062 283.882812 C 167.273438 285.179688 167.660156 286.511719 168.101562 287.820312 C 168.199219 288.109375 168.296875 288.425781 168.484375 288.648438 C 169.410156 289.738281 169.910156 291.007812 170.363281 292.347656 C 171.589844 296.011719 172.925781 299.636719 174.210938 303.277344 C 174.371094 303.722656 174.511719 304.175781 174.636719 304.628906 C 174.925781 305.675781 175.082031 306.777344 175.507812 307.761719 C 176.308594 309.597656 177.273438 311.363281 178.152344 313.164062 C 178.554688 313.988281 179.015625 314.804688 179.265625 315.675781 C 180.042969 318.390625 181.316406 320.855469 182.972656 323.105469 C 184.34375 324.972656 186.410156 326.117188 188.257812 327.394531 C 190.210938 328.746094 192.582031 329.503906 194.773438 330.511719 C 195.359375 330.78125 196.03125 330.925781 196.53125 331.304688 C 197.246094 331.84375 198.007812 331.988281 198.839844 331.925781 C 201.777344 331.710938 204.722656 331.550781 207.601562 330.835938 C 207.929688 330.753906 208.273438 330.734375 208.609375 330.679688 C 209.582031 330.527344 210.585938 330.480469 211.519531 330.199219 C 213.691406 329.550781 215.648438 328.242188 217.984375 328.0625 C 218.113281 328.054688 218.234375 327.953125 218.363281 327.917969 C 219.347656 327.65625 220.324219 327.375 221.316406 327.144531 C 222.4375 326.886719 223.621094 326.8125 224.6875 326.414062 C 226.675781 325.660156 228.589844 324.703125 230.558594 323.890625 C 231.554688 323.476562 232.601562 323.21875 233.480469 322.523438 C 233.855469 322.230469 234.417969 322.171875 234.898438 322.019531 C 235.90625 321.707031 236.925781 321.441406 237.914062 321.082031 C 238.808594 320.757812 239.667969 320.335938 240.542969 319.957031 C 240.636719 319.914062 240.757812 319.917969 240.828125 319.855469 C 241.601562 319.167969 242.636719 319.125 243.519531 318.730469 C 244.976562 318.082031 246.375 317.300781 247.800781 316.585938 C 248.132812 316.417969 248.46875 316.238281 248.824219 316.136719 C 250.246094 315.734375 251.585938 315.167969 252.792969 314.304688 C 253.148438 314.050781 253.558594 313.789062 253.976562 313.726562 C 255.566406 313.472656 256.847656 312.539062 258.210938 311.828125 C 259.605469 311.101562 261.03125 310.53125 262.550781 310.148438 C 263.402344 309.933594 264.25 309.675781 265.074219 309.371094 C 266.054688 309.011719 266.976562 308.40625 267.980469 308.226562 C 270.289062 307.808594 272.375 306.582031 274.753906 306.457031 C 275.074219 306.441406 275.378906 306.207031 275.695312 306.078125 C 276.453125 305.773438 277.1875 305.347656 277.976562 305.191406 C 279.460938 304.898438 280.792969 304.464844 282.039062 303.492188 C 283.140625 302.632812 284.527344 302.085938 285.859375 301.585938 C 288.683594 300.527344 291.257812 299.035156 293.738281 297.351562 C 293.902344 297.238281 294.109375 297.191406 294.289062 297.09375 C 294.761719 296.84375 295.289062 296.644531 295.695312 296.308594 C 296.765625 295.425781 297.75 294.433594 298.835938 293.566406 C 300.832031 291.972656 302.492188 290.128906 303.609375 287.808594 C 303.886719 287.238281 304.285156 286.707031 304.707031 286.230469 C 306.273438 284.464844 307.167969 282.488281 306.824219 280.070312 C 306.738281 279.464844 306.675781 278.855469 306.679688 278.246094 C 306.6875 276.769531 306.363281 275.449219 305.386719 274.265625 C 304.957031 273.742188 304.816406 272.972656 304.589844 272.300781 C 303.859375 270.113281 303.804688 267.742188 302.660156 265.652344 C 302.246094 264.894531 302.0625 263.875 302.160156 263.019531 C 302.238281 262.3125 302.128906 261.796875 301.828125 261.21875 C 301.28125 260.167969 300.785156 259.089844 300.257812 258.035156 C 299.417969 256.363281 298.625 254.667969 297.695312 253.050781 C 297.25 252.277344 296.808594 251.546875 296.609375 250.660156 C 296.511719 250.21875 296.175781 249.828125 295.929688 249.429688 C 295.5625 248.832031 295.117188 248.273438 294.808594 247.648438 C 294.34375 246.703125 294.054688 245.664062 293.53125 244.757812 C 293.0625 243.945312 292.347656 243.277344 291.796875 242.507812 C 291.503906 242.097656 291.261719 241.628906 291.113281 241.148438 C 290.757812 240.019531 290.523438 238.851562 290.148438 237.726562 C 289.703125 236.40625 289.261719 235.070312 288.644531 233.832031 C 287.773438 232.082031 286.460938 230.546875 286.128906 228.535156 C 286.101562 228.371094 286.023438 228.210938 285.945312 228.058594 C 285.320312 226.90625 285.414062 225.472656 284.507812 224.425781 C 284.390625 224.289062 284.429688 224.03125 284.367188 223.835938 C 284.226562 223.386719 284.164062 222.871094 283.898438 222.503906 C 283.203125 221.546875 283.078125 220.4375 282.851562 219.335938 C 282.707031 218.613281 282.542969 217.816406 282.132812 217.234375 C 281.117188 215.804688 280.734375 214.140625 280.136719 212.550781 C 279.996094 212.175781 279.851562 211.722656 279.558594 211.507812 C 278.628906 210.824219 278.402344 209.886719 278.320312 208.828125 C 278.28125 208.292969 278.1875 207.734375 277.972656 207.246094 C 277.273438 205.660156 276.484375 204.113281 275.78125 202.527344 C 275.453125 201.785156 275.238281 200.992188 274.972656 200.222656 C 274.597656 199.136719 274.226562 198.046875 273.847656 196.960938 C 273.710938 196.578125 273.550781 196.199219 273.371094 195.734375 C 272.613281 196.363281 271.992188 196.839844 271.417969 197.363281 C 269.785156 198.847656 267.839844 199.847656 265.949219 200.929688 C 265.71875 201.0625 265.441406 201.191406 265.183594 201.199219 C 264.054688 201.226562 263.195312 201.832031 262.328125 202.449219 C 261.167969 203.28125 260.003906 204.105469 258.609375 204.535156 C 258.160156 204.675781 257.75 204.925781 257.316406 205.117188 C 255.792969 205.792969 254.265625 206.449219 252.75 207.140625 C 252.078125 207.445312 251.433594 207.8125 250.78125 208.160156 C 250.066406 208.542969 249.382812 209 248.640625 209.3125 C 247.507812 209.789062 246.371094 210.226562 245.445312 211.089844 C 245.085938 211.421875 244.589844 211.734375 244.121094 211.796875 C 242.261719 212.046875 240.714844 212.953125 239.199219 213.949219 C 238.148438 214.640625 237.148438 215.414062 235.8125 215.480469 C 234.578125 215.539062 233.550781 216.167969 232.507812 216.75 C 232.179688 216.929688 231.828125 217.0625 231.480469 217.203125 C 229.816406 217.875 228.148438 218.539062 226.480469 219.210938 C 225.789062 219.488281 225.121094 219.925781 224.40625 220.023438 C 223.109375 220.195312 222.042969 220.835938 220.910156 221.367188 C 219.316406 222.113281 217.730469 222.886719 216.113281 223.585938 C 214.929688 224.097656 213.6875 224.472656 212.503906 224.976562 C 211.378906 225.449219 210.328125 226.09375 209.1875 226.519531 C 207.535156 227.136719 205.816406 227.570312 204.25 228.429688 C 203.75 228.707031 203.179688 228.914062 202.617188 229.007812 C 201.488281 229.195312 200.476562 229.636719 199.441406 230.097656 C 198.683594 230.433594 197.785156 230.4375 196.984375 230.703125 C 195.347656 231.25 193.734375 231.875 192.109375 232.460938 C 189.460938 233.410156 186.808594 234.363281 184.152344 235.285156 C 183.484375 235.515625 182.777344 235.628906 182.09375 235.8125 C 180.945312 236.117188 179.804688 236.449219 178.65625 236.742188 C 177.136719 237.128906 175.574219 237.375 174.101562 237.886719 C 171.640625 238.742188 169.300781 239.957031 166.667969 240.292969 C 166.605469 240.300781 166.542969 240.34375 166.480469 240.375 C 164.675781 241.273438 162.828125 242.03125 160.769531 242.101562 C 160.5 242.109375 160.238281 242.210938 159.96875 242.261719 C 158.027344 242.613281 156.074219 243.027344 154.113281 242.472656 C 153.007812 242.160156 151.9375 241.71875 150.855469 241.332031 Z M 256.320312 166.976562 C 256.398438 165.230469 255.96875 163.839844 255.457031 162.476562 C 254.90625 161.015625 254.265625 159.585938 253.691406 158.132812 C 253.339844 157.246094 253.054688 156.335938 252.703125 155.453125 C 252.59375 155.179688 252.410156 154.898438 252.183594 154.714844 C 251.578125 154.222656 250.925781 153.785156 250.300781 153.320312 C 248.863281 152.25 247.355469 151.414062 245.5 151.238281 C 244.160156 151.113281 242.839844 150.777344 241.527344 150.460938 C 240.417969 150.195312 239.335938 150.046875 238.195312 150.285156 C 237.097656 150.515625 235.976562 150.625 234.863281 150.765625 C 233.824219 150.898438 232.78125 150.992188 231.742188 151.125 C 230.804688 151.246094 229.867188 151.539062 228.9375 151.511719 C 226.507812 151.441406 224.230469 152.03125 221.960938 152.792969 C 219.285156 153.695312 216.96875 155.425781 214.199219 156.132812 C 213.488281 156.316406 212.882812 156.917969 212.171875 157.078125 C 210.523438 157.449219 209.003906 158.085938 207.503906 158.824219 C 206.195312 159.46875 204.734375 159.773438 203.535156 160.667969 C 203.21875 160.902344 202.78125 160.964844 202.40625 161.125 C 200.71875 161.839844 198.953125 162.414062 197.371094 163.316406 C 195.191406 164.558594 192.8125 165.207031 190.496094 166.0625 C 189.085938 166.582031 187.707031 167.105469 186.21875 167.328125 C 186.0625 167.355469 185.929688 167.507812 185.773438 167.574219 C 185.023438 167.894531 184.273438 168.210938 183.515625 168.519531 C 182.476562 168.945312 181.425781 169.347656 180.394531 169.789062 C 178.871094 170.441406 177.40625 171.3125 175.824219 171.730469 C 174.238281 172.148438 172.828125 172.824219 171.429688 173.605469 C 170.894531 173.90625 170.386719 174.320312 169.8125 174.464844 C 168.03125 174.914062 166.453125 175.761719 164.921875 176.730469 C 164.109375 177.242188 163.265625 177.636719 162.300781 177.8125 C 161.851562 177.894531 161.457031 178.289062 161.039062 178.546875 C 160.535156 178.863281 160.070312 179.269531 159.527344 179.492188 C 158.238281 180.015625 156.894531 180.398438 155.621094 180.941406 C 155.011719 181.203125 154.523438 181.738281 153.941406 182.074219 C 152.0625 183.171875 150.101562 184.140625 148.296875 185.339844 C 147.121094 186.121094 146.132812 187.199219 145.109375 188.195312 C 144.410156 188.878906 143.777344 189.632812 143.148438 190.382812 C 142.472656 191.191406 141.914062 192.121094 141.15625 192.835938 C 140.515625 193.445312 140.015625 194.089844 139.695312 194.890625 C 139.332031 195.808594 139.074219 196.777344 138.617188 197.648438 C 137.550781 199.675781 137.484375 201.828125 137.742188 204.007812 C 137.921875 205.542969 138.179688 207.074219 138.546875 208.570312 C 138.820312 209.675781 139.171875 210.820312 139.769531 211.773438 C 140.226562 212.5 141.058594 213.066406 141.839844 213.496094 C 143.054688 214.164062 144.449219 214.523438 145.625 215.246094 C 147.9375 216.664062 150.265625 216.511719 152.675781 215.679688 C 153.1875 215.503906 153.703125 215.320312 154.230469 215.191406 C 156.144531 214.714844 158.089844 214.347656 159.964844 213.769531 C 161.417969 213.320312 162.78125 212.59375 164.199219 212.027344 C 165.117188 211.660156 166.082031 211.414062 166.984375 211.015625 C 168.507812 210.34375 169.992188 209.59375 171.496094 208.878906 C 171.648438 208.804688 171.808594 208.699219 171.96875 208.691406 C 173.496094 208.636719 174.734375 207.828125 176.066406 207.222656 C 178.007812 206.339844 180.011719 205.589844 181.96875 204.730469 C 183.835938 203.910156 185.675781 203.027344 187.523438 202.167969 C 188.136719 201.878906 188.714844 201.5 189.351562 201.28125 C 190.539062 200.875 191.792969 200.652344 192.949219 200.175781 C 194.296875 199.625 195.574219 198.890625 196.875 198.21875 C 198.230469 197.519531 199.566406 196.785156 201.109375 196.554688 C 201.4375 196.503906 201.742188 196.328125 202.0625 196.21875 C 202.898438 195.941406 203.738281 195.671875 204.574219 195.394531 C 205.082031 195.222656 205.613281 195.089844 206.097656 194.863281 C 207.851562 194.042969 209.558594 193.105469 211.507812 192.789062 C 211.703125 192.757812 211.910156 192.671875 212.0625 192.550781 C 213.339844 191.550781 214.6875 190.964844 216.378906 190.726562 C 218.46875 190.433594 220.527344 189.65625 222.503906 188.855469 C 225 187.839844 227.507812 186.898438 230.128906 186.257812 C 230.953125 186.054688 231.769531 185.8125 232.578125 185.550781 C 234.261719 185.007812 235.949219 184.476562 237.609375 183.871094 C 239.460938 183.195312 241.289062 182.453125 243.117188 181.71875 C 243.96875 181.375 244.769531 180.851562 245.648438 180.636719 C 247.371094 180.21875 248.9375 179.636719 250.488281 178.652344 C 252.929688 177.097656 254.226562 174.804688 255.542969 172.4375 C 255.574219 172.378906 255.570312 172.300781 255.59375 172.238281 C 256.207031 170.449219 256.390625 168.601562 256.320312 166.976562 Z M 183.199219 215.082031 C 182.59375 215.144531 181.976562 215.144531 181.386719 215.277344 C 179.796875 215.636719 178.203125 215.992188 176.644531 216.464844 C 175.542969 216.796875 174.429688 217.203125 173.453125 217.789062 C 172.300781 218.472656 171.4375 219.644531 169.953125 219.742188 C 169.894531 219.746094 169.835938 219.808594 169.777344 219.84375 C 168.007812 220.835938 166.191406 221.761719 164.480469 222.84375 C 162.292969 224.230469 160.210938 225.769531 158.960938 228.148438 C 158.488281 229.042969 158.609375 229.953125 159.433594 230.515625 C 160.703125 231.390625 162.082031 231.996094 163.714844 231.808594 C 165.0625 231.65625 166.261719 231.121094 167.492188 230.613281 C 168.898438 230.039062 170.144531 229.089844 171.738281 228.9375 C 172.457031 228.867188 173.179688 228.554688 173.839844 228.230469 C 175.335938 227.488281 176.765625 226.625 178.269531 225.898438 C 179.792969 225.160156 181.375 224.539062 182.921875 223.847656 C 183.816406 223.445312 184.65625 222.835938 185.59375 222.628906 C 187.4375 222.214844 189.328125 221.984375 191.207031 221.742188 C 192.277344 221.605469 193.433594 221.808594 194.425781 221.480469 C 196.746094 220.714844 198.996094 219.734375 201.265625 218.816406 C 201.53125 218.707031 201.746094 218.441406 201.953125 218.214844 C 202.367188 217.765625 202.351562 217.359375 201.902344 216.886719 C 201.296875 216.25 200.589844 215.824219 199.773438 215.539062 C 198.0625 214.9375 196.363281 214.527344 194.707031 215.695312 C 194.574219 215.789062 194.390625 215.808594 194.226562 215.851562 C 192.539062 216.308594 190.847656 216.660156 189.089844 216.257812 C 188.898438 216.214844 188.679688 216.296875 188.484375 216.269531 C 187.859375 216.183594 187.207031 216.171875 186.628906 215.953125 C 185.519531 215.535156 184.480469 214.886719 183.199219 215.082031 Z M 227.0625 199.648438 C 226.847656 199.703125 226.316406 199.695312 225.960938 199.941406 C 224.453125 200.980469 222.882812 201.976562 221.558594 203.222656 C 220.484375 204.230469 219.703125 205.558594 218.855469 206.789062 C 218.621094 207.125 218.535156 207.628906 218.550781 208.050781 C 218.558594 208.296875 218.863281 208.679688 219.105469 208.742188 C 219.621094 208.875 220.226562 208.988281 220.714844 208.847656 C 222.144531 208.429688 223.539062 207.894531 224.9375 207.378906 C 225.445312 207.191406 225.9375 206.949219 226.421875 206.703125 C 227.867188 205.957031 229.382812 205.3125 230.726562 204.414062 C 232.433594 203.269531 234.136719 202.1875 236.15625 201.6875 C 237.179688 201.433594 238.183594 201.121094 239.195312 200.84375 C 241.363281 200.253906 243.554688 199.746094 245.6875 199.054688 C 247.070312 198.605469 248.339844 197.828125 249.707031 197.320312 C 251.625 196.601562 253.445312 195.730469 255.148438 194.574219 C 256.445312 193.695312 257.34375 192.59375 257.8125 191.097656 C 258.042969 190.351562 257.84375 189.835938 257.25 189.421875 C 256.003906 188.550781 254.613281 188.167969 253.105469 188.308594 C 252.101562 188.40625 251.101562 188.578125 250.109375 188.765625 C 248.113281 189.144531 246.136719 189.625 244.132812 189.933594 C 242.085938 190.25 240.171875 190.8125 238.441406 192 C 237.160156 192.878906 235.625 193.457031 234.832031 194.898438 C 234.253906 195.949219 233.324219 196.527344 232.371094 197.125 C 231.914062 197.410156 231.480469 197.738281 231.03125 198.039062 C 229.890625 198.808594 228.902344 199.914062 227.0625 199.648438 Z M 254.925781 184.144531 C 256.507812 184.574219 257.9375 184.949219 259.363281 185.355469 C 261.6875 186.015625 263.132812 188.203125 263.234375 190.441406 C 263.320312 192.238281 262.675781 193.933594 261.511719 195.34375 C 260.996094 195.96875 260.292969 196.433594 259.765625 197.046875 C 259.054688 197.882812 258.402344 198.753906 257.363281 199.214844 C 257.199219 199.289062 257.09375 199.484375 256.964844 199.621094 C 257.457031 199.691406 257.890625 199.632812 258.277344 199.46875 C 258.964844 199.175781 259.605469 198.761719 260.304688 198.5 C 263.117188 197.4375 265.457031 195.597656 267.863281 193.878906 C 269.160156 192.957031 269.648438 191.492188 269.777344 189.964844 C 269.863281 188.941406 269.652344 187.886719 268.792969 187.191406 C 267.714844 186.3125 266.578125 185.503906 265.429688 184.71875 C 264.59375 184.144531 263.605469 184.019531 262.609375 183.949219 C 261.566406 183.878906 260.523438 183.773438 259.476562 183.726562 C 258.664062 183.6875 257.839844 183.769531 257.035156 183.683594 C 256.320312 183.609375 255.695312 183.738281 254.925781 184.144531 Z M 159.054688 222.476562 C 158.992188 222.398438 158.929688 222.320312 158.871094 222.246094 C 158.75 222.285156 158.605469 222.292969 158.511719 222.367188 C 156.875 223.695312 155.167969 224.949219 154.085938 226.835938 C 153.800781 227.332031 153.53125 227.878906 153.121094 228.257812 C 151.476562 229.757812 150.832031 231.753906 150.296875 233.796875 C 150.222656 234.074219 150.414062 234.574219 150.644531 234.746094 C 151.679688 235.523438 152.746094 236.261719 153.855469 236.917969 C 154.335938 237.203125 154.949219 237.386719 155.503906 237.402344 C 158.003906 237.46875 160.460938 237.105469 162.882812 236.527344 C 163.257812 236.4375 163.601562 236.21875 163.851562 236.105469 C 163.003906 236.0625 162.085938 236.113281 161.203125 235.957031 C 159.191406 235.601562 157.550781 234.515625 156.097656 233.125 C 155.066406 232.144531 154.671875 230.726562 154.679688 229.507812 C 154.695312 227.550781 155.746094 225.824219 157.117188 224.378906 C 157.742188 223.726562 158.40625 223.109375 159.054688 222.476562 Z M 159.054688 222.476562 " fill-opacity="1" fill-rule="nonzero"/></g><g clip-path="url(#de7472672b)"><path fill="#ff3131" d="M 102.679688 143.789062 C 103.261719 146.238281 103.820312 148.578125 104.378906 150.921875 C 104.425781 151.121094 104.476562 151.320312 104.492188 151.523438 C 104.675781 153.515625 105.128906 155.472656 104.933594 157.511719 C 104.839844 158.515625 105.292969 159.5625 105.40625 160.601562 C 105.640625 162.683594 105.753906 164.78125 106.023438 166.859375 C 106.199219 168.203125 106.488281 169.542969 106.867188 170.839844 C 107.175781 171.882812 107.074219 172.921875 107.140625 173.960938 C 107.1875 174.703125 107.289062 175.441406 107.363281 176.179688 C 107.386719 176.414062 107.410156 176.652344 107.445312 176.886719 C 107.742188 178.933594 108.054688 180.980469 108.335938 183.027344 C 108.398438 183.488281 108.378906 183.960938 108.367188 184.429688 C 108.359375 184.769531 108.214844 185.125 108.28125 185.441406 C 108.597656 186.910156 108.144531 188.277344 107.828125 189.667969 C 107.789062 189.832031 107.703125 190.015625 107.738281 190.164062 C 108.230469 192.257812 106.9375 193.714844 105.960938 195.296875 C 105.460938 196.101562 105.09375 196.996094 104.546875 197.765625 C 104.160156 198.300781 103.636719 198.820312 103.058594 199.128906 C 101.246094 200.089844 99.320312 200.558594 97.242188 200.078125 C 96.484375 199.90625 95.695312 199.871094 94.925781 199.734375 C 93.484375 199.484375 92.351562 198.671875 91.394531 197.625 C 89.65625 195.726562 88.550781 193.503906 88.1875 190.9375 C 88.167969 190.800781 88.179688 190.652344 88.128906 190.53125 C 86.867188 187.589844 86.996094 184.339844 86.007812 181.304688 C 85.261719 179.015625 85.28125 176.488281 84.878906 174.078125 C 84.664062 172.816406 84.261719 171.585938 83.972656 170.335938 C 83.816406 169.644531 83.621094 168.9375 83.617188 168.238281 C 83.609375 166.851562 83.445312 165.5625 82.683594 164.339844 C 82.304688 163.734375 82.171875 162.9375 82.070312 162.207031 C 81.914062 161.101562 81.925781 159.96875 81.773438 158.859375 C 81.628906 157.816406 81.484375 156.75 81.128906 155.769531 C 80.644531 154.421875 80.539062 153.074219 80.546875 151.671875 C 80.550781 150.421875 80.355469 149.171875 80.320312 147.921875 C 80.300781 147.148438 80.449219 146.367188 80.464844 145.589844 C 80.472656 145.171875 80.367188 144.75 80.292969 144.335938 C 80.261719 144.171875 80.132812 144.023438 80.109375 143.859375 C 79.8125 141.402344 79.355469 138.949219 79.300781 136.488281 C 79.277344 135.34375 79.089844 134.824219 78.054688 134.363281 C 75.945312 133.425781 73.90625 132.328125 71.847656 131.277344 C 71.03125 130.855469 70.25 130.371094 69.4375 129.9375 C 68.902344 129.652344 68.34375 129.402344 67.796875 129.140625 C 67.703125 129.09375 67.589844 129.078125 67.519531 129.011719 C 65.589844 127.332031 63.269531 126.015625 62.289062 123.445312 C 61.828125 122.246094 61.222656 121.101562 61.261719 119.746094 C 61.28125 119.113281 61.054688 118.476562 60.976562 117.835938 C 60.800781 116.328125 60.871094 114.855469 61.523438 113.441406 C 61.851562 112.730469 62.019531 111.945312 62.378906 111.253906 C 62.765625 110.515625 63.199219 109.761719 63.769531 109.167969 C 64.921875 107.976562 66.136719 106.835938 67.417969 105.789062 C 68.027344 105.289062 68.835938 105.011719 69.582031 104.710938 C 71.929688 103.765625 73.875 102.296875 75.484375 100.355469 C 75.605469 100.210938 75.789062 100.03125 75.957031 100.011719 C 77.691406 99.824219 79 98.6875 80.511719 98.011719 C 81.257812 97.675781 82.035156 97.378906 82.710938 96.933594 C 83.890625 96.148438 84.976562 95.21875 86.164062 94.441406 C 86.707031 94.085938 87.390625 93.9375 88.015625 93.695312 C 88.265625 93.597656 88.542969 93.542969 88.773438 93.410156 C 90.726562 92.261719 92.886719 91.867188 95.105469 91.710938 C 95.535156 91.679688 95.984375 91.796875 96.410156 91.914062 C 97.753906 92.277344 99.089844 92.667969 100.425781 93.0625 C 100.714844 93.148438 100.984375 93.308594 101.273438 93.410156 C 102.003906 93.664062 102.730469 94.078125 103.480469 94.121094 C 104.617188 94.183594 105.46875 94.679688 106.328125 95.328125 C 107 95.835938 107.722656 96.3125 108.492188 96.632812 C 110.308594 97.386719 111.484375 98.835938 112.660156 100.289062 C 113.023438 100.738281 113.304688 100.925781 113.953125 100.972656 C 115.070312 101.050781 116.230469 100.914062 117.332031 101.484375 C 118.34375 102.011719 119.507812 102.230469 120.59375 102.613281 C 120.910156 102.722656 121.203125 102.910156 121.480469 103.101562 C 122.570312 103.855469 123.625 104.667969 124.746094 105.371094 C 125.339844 105.738281 126.058594 105.898438 126.695312 106.203125 C 127.089844 106.394531 127.507812 106.617188 127.796875 106.933594 C 129.402344 108.707031 131.320312 110.234375 132.382812 112.441406 C 132.835938 113.382812 133.191406 114.394531 133.4375 115.410156 C 134.164062 118.40625 133.902344 121.378906 132.792969 124.230469 C 132.292969 125.515625 131.476562 126.679688 130.824219 127.90625 C 130.601562 128.324219 130.417969 128.765625 130.265625 129.210938 C 130 130 129.628906 130.6875 128.941406 131.210938 C 127.53125 132.28125 126.203125 133.46875 124.738281 134.460938 C 123.855469 135.0625 122.824219 135.496094 121.796875 135.816406 C 120.503906 136.21875 119.15625 136.449219 117.824219 136.707031 C 117.230469 136.820312 116.617188 136.832031 116.011719 136.871094 C 114.859375 136.949219 113.710938 137.019531 112.558594 137.078125 C 111.945312 137.109375 111.722656 137.589844 111.421875 137.996094 C 110.816406 138.808594 110.328125 139.769531 109.5625 140.382812 C 107.738281 141.839844 105.859375 143.277344 103.414062 143.582031 C 103.25 143.601562 103.09375 143.667969 102.679688 143.789062 Z M 83.339844 130.210938 C 83.230469 129.707031 83.234375 129.378906 83.09375 129.136719 C 82.105469 127.4375 81.492188 125.632812 81.476562 123.648438 C 81.476562 123.515625 81.410156 123.382812 81.398438 123.246094 C 81.191406 121.015625 80.882812 118.785156 80.828125 116.550781 C 80.792969 115.070312 81.160156 113.582031 81.289062 112.09375 C 81.519531 109.351562 82.738281 107.09375 84.609375 105.144531 C 85.078125 104.660156 85.59375 104.707031 85.777344 105.351562 C 85.953125 105.949219 86 106.632812 85.90625 107.25 C 85.710938 108.523438 85.332031 109.769531 85.128906 111.039062 C 84.902344 112.445312 84.640625 113.871094 84.664062 115.285156 C 84.695312 117.214844 84.976562 119.140625 85.160156 121.066406 C 85.183594 121.339844 85.246094 121.605469 85.304688 121.871094 C 85.46875 122.597656 85.625 123.328125 85.800781 124.050781 C 85.894531 124.441406 86.011719 124.828125 86.136719 125.210938 C 86.367188 125.917969 86.609375 126.617188 86.851562 127.320312 C 86.992188 127.738281 87.066406 128.195312 87.289062 128.566406 C 88.117188 129.972656 88.960938 131.367188 89.863281 132.722656 C 90.113281 133.09375 90.570312 133.539062 90.957031 133.566406 C 92.800781 133.691406 94.308594 134.664062 95.925781 135.355469 C 96.605469 135.644531 97.214844 136.09375 97.859375 136.46875 C 98.261719 136.703125 98.65625 136.964844 99.078125 137.148438 C 100.773438 137.882812 102.507812 137.496094 104.210938 137.214844 C 105.175781 137.054688 105.789062 136.289062 106.546875 135.574219 C 105.777344 135.214844 105.179688 134.894531 104.550781 134.648438 C 102.910156 134 101.585938 132.691406 99.769531 132.40625 C 99.554688 132.375 99.320312 132.207031 99.171875 132.035156 C 98.578125 131.339844 97.9375 130.660156 97.457031 129.886719 C 96.519531 128.371094 95.953125 126.703125 95.738281 124.917969 C 95.449219 122.496094 94.898438 120.097656 95.304688 117.628906 C 95.394531 117.074219 95.25 116.480469 95.242188 115.90625 C 95.234375 115.574219 95.230469 115.226562 95.316406 114.910156 C 95.589844 113.929688 95.871094 112.949219 96.210938 111.988281 C 96.597656 110.894531 97.046875 109.839844 97.839844 108.949219 C 98.761719 107.917969 99.609375 106.824219 100.515625 105.777344 C 101.824219 104.257812 103.390625 103.105469 105.300781 102.429688 C 106.050781 102.164062 106.765625 101.796875 107.75 101.363281 C 106.9375 100.851562 106.367188 100.441406 105.753906 100.117188 C 105.0625 99.753906 104.238281 99.589844 103.636719 99.128906 C 102.402344 98.179688 100.910156 97.921875 99.535156 97.363281 C 99.128906 97.199219 98.675781 97.011719 98.253906 97.035156 C 95.882812 97.171875 93.492188 96.738281 91.128906 97.320312 C 90.382812 97.503906 89.683594 97.613281 89.136719 98.21875 C 88.953125 98.425781 88.609375 98.585938 88.332031 98.59375 C 87.734375 98.609375 87.3125 98.878906 86.902344 99.273438 C 86.636719 99.527344 86.3125 99.742188 85.980469 99.90625 C 83.984375 100.914062 82.261719 102.316406 80.59375 103.769531 C 79.40625 104.800781 78.070312 105.4375 76.574219 105.820312 C 76.351562 105.878906 76.023438 105.933594 75.941406 106.089844 C 75.402344 107.117188 74.328125 107.527344 73.535156 108.257812 C 73.273438 108.5 72.914062 108.628906 72.601562 108.824219 C 71.375 109.589844 70.082031 110.269531 68.949219 111.160156 C 67.949219 111.941406 67.132812 112.964844 66.226562 113.871094 C 65.539062 114.5625 64.671875 115.167969 65.230469 116.355469 C 65.265625 116.433594 65.1875 116.554688 65.191406 116.65625 C 65.246094 117.804688 65.234375 118.964844 65.398438 120.101562 C 65.46875 120.589844 65.875 121.046875 66.179688 121.484375 C 67.203125 122.960938 68.949219 123.460938 70.320312 124.472656 C 71.109375 125.050781 72.035156 125.433594 72.84375 125.988281 C 74.0625 126.828125 75.359375 127.464844 76.789062 127.84375 C 77.25 127.964844 77.691406 128.152344 78.128906 128.332031 C 79.503906 128.90625 80.867188 129.503906 82.242188 130.058594 C 82.507812 130.167969 82.824219 130.144531 83.339844 130.210938 Z M 85.675781 138.273438 C 85.980469 140.117188 86.242188 141.722656 86.511719 143.324219 C 86.84375 145.296875 87.238281 147.257812 87.507812 149.242188 C 87.839844 151.734375 88.074219 154.238281 88.347656 156.742188 C 88.496094 158.09375 88.84375 159.464844 88.734375 160.796875 C 88.609375 162.285156 88.804688 163.703125 89.027344 165.140625 C 89.332031 167.117188 89.453125 169.132812 90.195312 171.03125 C 90.3125 171.332031 90.296875 171.707031 90.257812 172.042969 C 90.089844 173.449219 90.230469 174.808594 90.726562 176.148438 C 90.980469 176.839844 91.117188 177.582031 91.21875 178.316406 C 91.46875 180.117188 91.339844 181.992188 92.457031 183.601562 C 92.652344 183.886719 92.65625 184.316406 92.707031 184.6875 C 92.816406 185.488281 92.855469 186.304688 93.011719 187.097656 C 93.109375 187.574219 93.527344 188.019531 93.535156 188.480469 C 93.554688 189.570312 93.859375 190.558594 94.355469 191.488281 C 94.914062 192.542969 95.113281 193.773438 96.214844 194.570312 C 97.207031 195.296875 99.765625 195.515625 100.542969 194.53125 C 101.621094 193.167969 102.914062 191.871094 103.027344 189.953125 C 103.074219 189.148438 103.277344 188.351562 103.273438 187.550781 C 103.265625 185.519531 103.25 183.488281 103.101562 181.464844 C 102.972656 179.710938 102.808594 177.941406 102.167969 176.265625 C 102.074219 176.023438 102.140625 175.726562 102.117188 175.457031 C 102.007812 174.316406 101.957031 173.164062 101.765625 172.039062 C 101.527344 170.648438 101.085938 169.285156 100.882812 167.890625 C 100.6875 166.558594 100.605469 165.195312 100.621094 163.851562 C 100.632812 162.886719 100.304688 162.152344 99.730469 161.433594 C 99.425781 161.050781 99.117188 160.558594 99.078125 160.097656 C 98.949219 158.507812 98.941406 156.914062 98.878906 155.320312 C 98.871094 155.085938 98.851562 154.84375 98.792969 154.617188 C 98.351562 152.976562 98.289062 151.335938 98.640625 149.667969 C 98.71875 149.28125 98.734375 148.84375 98.644531 148.464844 C 98.347656 147.210938 97.980469 145.988281 97.910156 144.679688 C 97.847656 143.421875 97.507812 142.277344 95.832031 142.324219 C 95.339844 142.339844 94.828125 142.148438 94.34375 141.996094 C 93.898438 141.855469 93.464844 141.65625 93.039062 141.453125 C 92.648438 141.269531 92.292969 140.984375 91.886719 140.847656 C 90.082031 140.238281 88.214844 139.796875 86.664062 138.59375 C 86.46875 138.441406 86.167969 138.425781 85.675781 138.273438 Z M 117.152344 132.765625 C 117.160156 132.671875 117.167969 132.578125 117.175781 132.484375 C 116.378906 131.648438 115.640625 130.75 114.777344 129.992188 C 112.890625 128.332031 111.628906 126.300781 110.832031 123.9375 C 109.84375 121.011719 110.816406 117.898438 113.324219 116.210938 C 113.882812 115.835938 114.511719 115.574219 115.097656 115.234375 C 116.472656 114.4375 117.960938 113.976562 119.519531 113.757812 C 120.460938 113.625 120.847656 114.070312 120.691406 115.015625 C 120.5625 115.757812 119.953125 116.082031 119.371094 116.277344 C 117.933594 116.761719 116.65625 117.53125 115.410156 118.351562 C 114.558594 118.914062 113.964844 119.726562 113.960938 120.804688 C 113.960938 121.882812 114.058594 122.960938 114.078125 124.039062 C 114.085938 124.652344 114.175781 125.144531 114.816406 125.46875 C 115.210938 125.667969 115.59375 126.054688 115.789062 126.453125 C 116.242188 127.382812 116.972656 128.011719 117.777344 128.59375 C 118.054688 128.792969 118.378906 128.960938 118.582031 129.21875 C 119.550781 130.449219 121.015625 130.304688 122.304688 130.527344 C 123.828125 130.792969 126.207031 128.789062 126.585938 127.03125 C 126.816406 125.976562 127.152344 124.886719 127.714844 123.984375 C 128.359375 122.945312 128.734375 121.867188 128.984375 120.703125 C 129.472656 118.386719 129.441406 116.070312 128.113281 114.085938 C 126.855469 112.210938 125.285156 110.542969 123.804688 108.824219 C 123.34375 108.289062 122.769531 107.839844 122.1875 107.429688 C 121.023438 106.605469 119.867188 105.753906 118.621094 105.066406 C 117.617188 104.515625 116.507812 104.125 115.40625 103.785156 C 114.929688 103.632812 114.355469 103.742188 113.832031 103.804688 C 113.539062 103.839844 113.269531 104.078125 112.976562 104.121094 C 110.875 104.414062 109.15625 105.511719 107.496094 106.71875 C 107.003906 107.074219 106.664062 107.660156 106.148438 107.953125 C 105.03125 108.597656 104.125 109.40625 103.464844 110.515625 C 103.191406 110.972656 102.765625 111.347656 102.515625 111.816406 C 102.132812 112.53125 101.863281 113.308594 101.5 114.035156 C 100.90625 115.226562 100.234375 116.382812 100.226562 117.765625 C 100.222656 119.394531 100.246094 121.023438 100.25 122.648438 C 100.25 123.683594 100.371094 124.683594 100.859375 125.621094 C 101.1875 126.253906 101.472656 126.910156 101.746094 127.566406 C 102.15625 128.558594 102.875 129.25 103.792969 129.765625 C 104.089844 129.929688 104.519531 130.054688 104.636719 130.3125 C 105.046875 131.207031 105.785156 131.472656 106.652344 131.59375 C 106.785156 131.613281 106.925781 131.667969 107.027344 131.746094 C 107.96875 132.484375 109.125 132.523438 110.222656 132.714844 C 111.015625 132.859375 111.835938 132.914062 112.644531 132.929688 C 113.65625 132.945312 114.667969 132.890625 115.679688 132.855469 C 116.171875 132.839844 116.660156 132.796875 117.152344 132.765625 Z M 117.152344 132.765625 " fill-opacity="1" fill-rule="nonzero"/></g><g clip-path="url(#1a4454f739)"><path fill="#ff3131" d="M 165.589844 90.707031 C 164.542969 90.050781 163.515625 89.460938 162.554688 88.78125 C 162.039062 88.417969 161.632812 87.902344 161.179688 87.453125 C 160.648438 86.929688 160.101562 86.417969 159.597656 85.867188 C 158.894531 85.09375 158.226562 84.285156 157.535156 83.503906 C 156.992188 82.894531 156.460938 82.273438 155.871094 81.710938 C 155.683594 81.527344 155.335938 81.484375 155.054688 81.421875 C 154.070312 81.210938 153.078125 81.023438 152.09375 80.820312 C 151.167969 80.628906 150.230469 80.484375 149.324219 80.230469 C 147.214844 79.636719 145.402344 78.539062 143.949219 76.882812 C 143.007812 75.808594 142.027344 74.761719 141.148438 73.636719 C 139.792969 71.894531 138.96875 69.882812 138.40625 67.761719 C 138.023438 66.320312 137.628906 64.878906 137.328125 63.421875 C 137.066406 62.171875 137.203125 60.921875 137.636719 59.710938 C 137.742188 59.425781 137.882812 59.140625 137.910156 58.84375 C 138.113281 56.773438 139.035156 55.054688 140.425781 53.554688 C 140.515625 53.453125 140.605469 53.34375 140.671875 53.226562 C 141.199219 52.308594 141.777344 51.460938 142.632812 50.78125 C 143.199219 50.328125 143.59375 49.652344 144.070312 49.082031 C 144.175781 48.953125 144.292969 48.828125 144.425781 48.726562 C 145.734375 47.765625 147.011719 46.746094 148.378906 45.878906 C 149.164062 45.378906 150.09375 45.109375 150.976562 44.773438 C 151.351562 44.628906 151.773438 44.597656 152.164062 44.476562 C 153.910156 43.9375 155.683594 43.800781 157.496094 44.046875 C 157.746094 44.078125 158.085938 43.972656 158.289062 43.808594 C 159.613281 42.75 160.9375 41.683594 162.214844 40.566406 C 163.324219 39.589844 164.585938 39.058594 166.039062 38.8125 C 168.109375 38.457031 170.160156 37.976562 172.222656 37.574219 C 172.546875 37.507812 172.902344 37.507812 173.234375 37.550781 C 174.546875 37.710938 175.855469 37.914062 177.167969 38.074219 C 177.875 38.160156 178.589844 38.164062 179.300781 38.242188 C 179.832031 38.300781 180.375 38.359375 180.886719 38.515625 C 183.167969 39.222656 185.191406 40.472656 187.304688 41.546875 C 189.902344 42.859375 192.355469 44.386719 194.660156 46.109375 C 195.851562 47 197.148438 47.429688 198.445312 47.988281 C 199.152344 48.292969 199.816406 48.722656 200.46875 49.144531 C 201.179688 49.601562 201.878906 50.082031 202.539062 50.609375 C 203.917969 51.699219 205.273438 52.828125 206.632812 53.945312 C 206.789062 54.074219 206.882812 54.292969 207.054688 54.382812 C 208.074219 54.910156 208.410156 55.84375 208.625 56.878906 C 208.773438 57.605469 208.96875 58.328125 209.191406 59.035156 C 209.515625 60.0625 209.410156 61.109375 209.46875 62.15625 C 209.574219 64.066406 209.066406 65.855469 208.734375 67.6875 C 208.417969 69.441406 207.359375 70.683594 206.089844 71.808594 C 205.863281 72.011719 205.582031 72.195312 205.441406 72.449219 C 204.859375 73.5 203.933594 74.195312 203 74.886719 C 201.78125 75.785156 200.546875 76.667969 199.316406 77.558594 C 199.152344 77.675781 199 77.855469 198.8125 77.898438 C 196.972656 78.3125 195.492188 79.4375 193.910156 80.355469 C 192.929688 80.921875 191.9375 81.386719 190.628906 81.320312 C 190.6875 82.566406 190.796875 83.738281 190.792969 84.910156 C 190.789062 86.277344 191.019531 87.675781 190.351562 88.992188 C 190.148438 89.398438 190.230469 89.9375 190.09375 90.390625 C 189.699219 91.683594 189.238281 92.953125 188.851562 94.25 C 188.671875 94.847656 188.46875 95.488281 188.507812 96.097656 C 188.617188 97.769531 188.179688 99.273438 187.566406 100.804688 C 187.070312 102.050781 186.816406 103.417969 186.609375 104.75 C 186.476562 105.589844 186.394531 106.378906 185.953125 107.152344 C 185.632812 107.71875 185.542969 108.457031 185.5 109.125 C 185.402344 110.679688 185.402344 112.242188 185.34375 113.800781 C 185.328125 114.242188 185.304688 114.695312 185.191406 115.117188 C 184.953125 115.980469 184.644531 116.824219 184.382812 117.683594 C 184.308594 117.941406 184.230469 118.230469 184.269531 118.488281 C 184.597656 120.609375 183.828125 122.589844 183.472656 124.621094 C 183.351562 125.332031 182.984375 126.003906 182.851562 126.714844 C 182.710938 127.441406 182.726562 128.199219 182.667969 128.941406 C 182.652344 129.109375 182.636719 129.292969 182.566406 129.441406 C 181.910156 130.808594 181.640625 132.273438 181.492188 133.769531 C 181.472656 133.964844 181.394531 134.167969 181.3125 134.351562 C 180.867188 135.335938 180.382812 136.304688 179.96875 137.300781 C 179.328125 138.855469 178.472656 140.242188 177.328125 141.492188 C 176.699219 142.179688 176.058594 142.78125 175.226562 143.210938 C 174.355469 143.664062 173.464844 143.847656 172.472656 143.761719 C 171.492188 143.671875 170.492188 143.664062 169.511719 143.742188 C 168.582031 143.820312 167.894531 143.480469 167.207031 142.910156 C 164.96875 141.042969 163.5625 138.554688 162.027344 136.15625 C 161.738281 135.699219 161.359375 135.285156 161.128906 134.796875 C 160.828125 134.160156 160.546875 133.492188 160.414062 132.804688 C 160.214844 131.789062 160.285156 130.707031 160.003906 129.71875 C 159.644531 128.441406 159.824219 127.214844 160.015625 125.976562 C 160.296875 124.171875 160.453125 122.363281 161.167969 120.617188 C 161.601562 119.566406 161.351562 118.257812 161.539062 117.082031 C 161.828125 115.273438 162.261719 113.488281 162.574219 111.679688 C 162.796875 110.371094 162.996094 109.050781 163.085938 107.726562 C 163.324219 104.1875 163.644531 100.664062 164.359375 97.183594 C 164.757812 95.25 165.121094 93.3125 165.492188 91.375 C 165.539062 91.148438 165.558594 90.917969 165.589844 90.707031 Z M 161.824219 80.796875 C 163.046875 81.492188 164.058594 82.324219 165.210938 82.65625 C 166.382812 82.992188 167.699219 82.921875 168.945312 82.871094 C 169.707031 82.84375 170.464844 82.546875 171.210938 82.328125 C 173.773438 81.5625 176.253906 80.601562 178.421875 78.984375 C 179.425781 78.238281 180.535156 77.609375 181.171875 76.445312 C 181.757812 75.375 182.535156 74.390625 182.996094 73.269531 C 183.378906 72.339844 183.421875 71.273438 184.214844 70.511719 C 184.339844 70.386719 184.339844 70.132812 184.40625 69.941406 C 184.835938 68.730469 185.261719 67.519531 185.699219 66.308594 C 185.835938 65.925781 186.089844 65.566406 186.140625 65.175781 C 186.308594 63.976562 186.785156 62.859375 187.023438 61.671875 C 187.316406 60.195312 187.269531 58.691406 187.652344 57.246094 C 187.941406 56.140625 187.59375 55.09375 187.40625 54.019531 C 187.230469 53.023438 187.183594 52.003906 187.136719 50.996094 C 187.128906 50.777344 187.332031 50.402344 187.5 50.359375 C 187.746094 50.296875 188.066406 50.445312 188.324219 50.558594 C 188.652344 50.707031 188.941406 51.027344 189.269531 51.070312 C 189.859375 51.144531 190.0625 51.539062 190.28125 51.964844 C 190.585938 52.5625 190.894531 53.152344 191.175781 53.757812 C 191.347656 54.125 191.542969 54.503906 191.601562 54.898438 C 191.746094 55.871094 191.882812 56.855469 191.914062 57.835938 C 192.003906 60.472656 192.617188 63.058594 192.117188 65.761719 C 191.769531 67.636719 190.933594 69.296875 190.5 71.109375 C 190.308594 71.914062 189.804688 72.636719 189.492188 73.417969 C 189.101562 74.398438 188.765625 75.40625 188.40625 76.398438 C 188.480469 76.46875 188.550781 76.542969 188.621094 76.613281 C 189.046875 76.453125 189.484375 76.320312 189.890625 76.128906 C 190.535156 75.824219 191.144531 75.441406 191.796875 75.160156 C 192.945312 74.664062 194.117188 74.222656 195.277344 73.761719 C 195.375 73.722656 195.46875 73.683594 195.566406 73.65625 C 197.628906 73.070312 199.363281 71.859375 201.128906 70.714844 C 201.445312 70.511719 201.726562 70.132812 201.855469 69.773438 C 202.300781 68.53125 202.730469 67.28125 203.054688 66.003906 C 203.335938 64.886719 203.515625 63.738281 203.636719 62.59375 C 203.679688 62.152344 203.449219 61.671875 203.304688 61.222656 C 203.042969 60.390625 202.757812 59.5625 202.472656 58.738281 C 202.273438 58.164062 202.222656 57.433594 201.828125 57.054688 C 200.910156 56.175781 199.914062 55.300781 198.792969 54.730469 C 197.550781 54.097656 196.492188 53.300781 195.476562 52.386719 C 195.128906 52.074219 194.714844 51.820312 194.304688 51.589844 C 193.863281 51.339844 193.371094 51.183594 192.933594 50.929688 C 191.808594 50.277344 190.808594 49.382812 189.472656 49.121094 C 189.441406 49.113281 189.40625 49.101562 189.378906 49.085938 C 187.476562 47.894531 185.519531 46.777344 183.691406 45.484375 C 182.289062 44.496094 180.972656 43.445312 179.144531 43.453125 C 178.988281 43.453125 178.832031 43.328125 178.671875 43.269531 C 176.554688 42.480469 174.484375 41.796875 172.140625 42.660156 C 170.632812 43.21875 168.945312 43.285156 167.355469 43.648438 C 166.339844 43.882812 165.371094 44.277344 164.636719 45.28125 C 165.679688 46.058594 166.699219 46.769531 167.65625 47.558594 C 168.308594 48.097656 168.910156 48.707031 169.453125 49.351562 C 170.46875 50.566406 171.3125 51.882812 172.035156 53.316406 C 172.746094 54.726562 173.441406 56.101562 173.703125 57.667969 C 173.847656 58.511719 173.871094 59.410156 174.203125 60.179688 C 174.738281 61.433594 174.820312 62.738281 174.921875 64.046875 C 175.15625 67.117188 173.742188 69.773438 172.683594 72.511719 C 172.644531 72.605469 172.566406 72.679688 172.507812 72.761719 C 172.023438 73.496094 171.480469 74.203125 171.0625 74.972656 C 170.214844 76.523438 168.855469 77.578125 167.566406 78.691406 C 167.125 79.074219 166.503906 79.292969 165.925781 79.476562 C 164.863281 79.816406 163.769531 80.066406 162.695312 80.375 C 162.425781 80.453125 162.183594 80.617188 161.824219 80.796875 Z M 186.921875 82.910156 C 186.664062 82.859375 186.59375 82.820312 186.535156 82.835938 C 183.554688 83.664062 181.046875 85.285156 178.863281 87.441406 C 178.628906 87.671875 178.359375 87.890625 178.066406 88.039062 C 177.570312 88.292969 177.050781 88.511719 176.523438 88.703125 C 176.027344 88.882812 175.519531 89.085938 175 89.140625 C 174.574219 89.1875 174.128906 89.035156 173.6875 88.972656 C 173.09375 88.886719 171.226562 89.980469 171.09375 90.550781 C 170.886719 91.445312 170.761719 92.355469 170.574219 93.253906 C 170.402344 94.078125 170.304688 94.9375 169.976562 95.695312 C 169.632812 96.492188 169.566406 97.21875 169.683594 98.066406 C 169.835938 99.191406 169.96875 100.328125 169.476562 101.46875 C 169.035156 102.484375 168.738281 103.558594 168.714844 104.71875 C 168.6875 105.933594 168.425781 107.144531 168.257812 108.355469 C 168.167969 109.015625 168.03125 109.675781 167.96875 110.34375 C 167.910156 111.007812 167.921875 111.679688 167.886719 112.351562 C 167.847656 113.089844 167.828125 113.835938 167.738281 114.574219 C 167.617188 115.574219 167.742188 116.621094 167.15625 117.546875 C 166.4375 118.6875 166.3125 120.035156 166.371094 121.289062 C 166.417969 122.328125 166.3125 123.304688 166.148438 124.308594 C 165.953125 125.480469 165.734375 126.652344 165.628906 127.835938 C 165.519531 129.050781 165.578125 130.277344 165.488281 131.496094 C 165.378906 133.023438 165.785156 134.351562 166.777344 135.515625 C 167 135.773438 167.222656 136.035156 167.40625 136.320312 C 168.203125 137.558594 169.3125 138.207031 170.804688 138.195312 C 171.175781 138.191406 171.582031 138.207031 171.90625 138.359375 C 172.574219 138.667969 173.046875 138.410156 173.433594 137.933594 C 173.925781 137.328125 174.257812 136.5625 174.835938 136.070312 C 176.050781 135.03125 176.382812 133.605469 176.410156 132.21875 C 176.464844 129.640625 177.527344 127.265625 177.65625 124.722656 C 177.664062 124.558594 177.765625 124.402344 177.8125 124.238281 C 178.253906 122.773438 178.78125 121.324219 179.113281 119.832031 C 179.679688 117.285156 180.160156 114.714844 180.613281 112.140625 C 180.941406 110.269531 181.140625 108.375 181.449219 106.5 C 181.792969 104.425781 181.574219 102.300781 182.234375 100.238281 C 182.785156 98.503906 182.882812 96.644531 183.601562 94.917969 C 184.089844 93.738281 184.300781 92.4375 184.628906 91.191406 C 184.855469 90.335938 184.902344 89.386719 185.320312 88.644531 C 186.324219 86.855469 186.109375 84.796875 186.921875 82.910156 Z M 159.773438 77.414062 C 160.523438 77.414062 161.101562 77.539062 161.601562 77.390625 C 163.089844 76.949219 164.542969 76.402344 166.007812 75.886719 C 166.125 75.84375 166.222656 75.726562 166.316406 75.628906 C 167.761719 74.0625 168.894531 72.300781 169.691406 70.316406 C 170.152344 69.160156 170.695312 68.03125 171.128906 66.863281 C 171.703125 65.316406 171.371094 63.699219 171.234375 62.140625 C 171.066406 60.199219 170.839844 58.222656 169.898438 56.441406 C 169.710938 56.085938 169.425781 55.761719 169.324219 55.382812 C 168.886719 53.773438 167.789062 52.734375 166.476562 51.8125 C 165.511719 51.132812 164.679688 50.269531 163.710938 49.601562 C 162.605469 48.839844 161.527344 47.980469 159.992188 48.253906 C 158.691406 48.484375 157.355469 48.527344 156.039062 48.695312 C 155.472656 48.769531 154.792969 48.78125 154.390625 49.105469 C 153.203125 50.058594 151.773438 50.398438 150.40625 50.902344 C 149.597656 51.195312 148.996094 51.667969 148.511719 52.375 C 147.875 53.304688 147.109375 54.097656 146.105469 54.683594 C 144.636719 55.542969 143.40625 56.726562 142.878906 58.363281 C 142.457031 59.671875 142.179688 61.085938 142.15625 62.460938 C 142.121094 64.296875 142.542969 66.15625 143.5 67.71875 C 144.800781 69.835938 145.988281 72.09375 148.113281 73.582031 C 148.222656 73.660156 148.296875 73.785156 148.402344 73.871094 C 149.382812 74.644531 150.285156 75.5625 151.363281 76.152344 C 153.238281 77.179688 155.378906 77.386719 157.457031 77.742188 C 157.585938 77.765625 157.726562 77.726562 157.859375 77.707031 C 158.566406 77.601562 159.269531 77.492188 159.773438 77.414062 Z M 159.773438 77.414062 " fill-opacity="1" fill-rule="nonzero"/></g><path fill="#ff3131" d="M 206.011719 208.316406 C 205.09375 208.304688 204.183594 207.621094 204.078125 206.996094 C 203.972656 206.339844 204.472656 205.511719 205.21875 205.257812 C 205.757812 205.070312 206.328125 204.929688 206.894531 204.871094 C 207.496094 204.804688 207.917969 205.15625 208.183594 205.679688 C 208.457031 206.226562 208.269531 206.636719 207.8125 206.992188 C 207.4375 207.285156 207.125 207.652344 206.746094 207.933594 C 206.488281 208.128906 206.167969 208.238281 206.011719 208.316406 Z M 206.011719 208.316406 " fill-opacity="1" fill-rule="nonzero"/><path fill="#ff3131" d="M 122.652344 118.257812 C 124.308594 118.335938 125.417969 119.691406 125.21875 121.527344 C 125.097656 122.636719 124.886719 123.6875 124.09375 124.613281 C 123.277344 125.5625 122.34375 125.875 121.195312 125.703125 C 120.1875 125.550781 119.617188 124.878906 119.289062 123.933594 C 118.535156 121.769531 119.410156 119.476562 121.394531 118.582031 C 121.785156 118.40625 122.230469 118.363281 122.652344 118.257812 Z M 122.652344 118.257812 " fill-opacity="1" fill-rule="nonzero"/><path fill="#ff3131" d="M 150.402344 73.484375 C 150.464844 73.265625 150.457031 73.097656 150.539062 73.03125 C 151.4375 72.28125 152.332031 71.53125 153.257812 70.824219 C 154.832031 69.621094 155.320312 68.003906 155.039062 66.136719 C 154.921875 65.339844 154.625 64.558594 154.347656 63.796875 C 153.832031 62.378906 152.753906 61.460938 151.5 60.71875 C 150.464844 60.109375 149.492188 59.378906 148.3125 59.039062 C 148.152344 58.996094 147.976562 58.910156 147.875 58.789062 C 147.738281 58.625 147.613281 58.40625 147.601562 58.207031 C 147.597656 58.125 147.921875 57.925781 148.066406 57.953125 C 148.507812 58.03125 148.660156 57.679688 148.9375 57.53125 C 149.53125 57.21875 150.289062 57.09375 150.980469 57.097656 C 151.636719 57.101562 152.289062 57.359375 152.945312 57.511719 C 153.207031 57.570312 153.507812 57.582031 153.722656 57.71875 C 155.617188 58.953125 157.105469 60.464844 157.652344 62.789062 C 157.953125 64.078125 158.230469 65.296875 157.726562 66.574219 C 157.667969 66.726562 157.648438 66.921875 157.691406 67.074219 C 158.039062 68.375 157.410156 69.371094 156.75 70.394531 C 155.917969 71.695312 154.703125 72.5625 153.476562 73.414062 C 153.113281 73.664062 152.578125 73.761719 152.121094 73.765625 C 151.59375 73.773438 151.0625 73.601562 150.402344 73.484375 Z M 150.402344 73.484375 " fill-opacity="1" fill-rule="nonzero"/><path fill="#ff3131" d="M 147.898438 62.007812 C 148.300781 62.148438 148.738281 62.222656 149.09375 62.4375 C 150.640625 63.390625 151.613281 64.777344 151.976562 66.554688 C 152.324219 68.234375 151.253906 69.371094 149.539062 69.347656 C 147.355469 69.316406 146.027344 68.039062 145.136719 66.292969 C 144.140625 64.351562 145.597656 62.222656 147.898438 62.007812 Z M 147.898438 62.007812 " fill-opacity="1" fill-rule="nonzero"/></svg>