<svg xmlns="http://www.w3.org/2000/svg" xmlns:xlink="http://www.w3.org/1999/xlink" width="500" zoomAndPan="magnify" viewBox="0 0 375 374.999991" height="500" preserveAspectRatio="xMidYMid meet" version="1.0"><defs><clipPath id="7a243128d9"><path d="M 7.875 79.722656 L 367.125 79.722656 L 367.125 294.972656 L 7.875 294.972656 Z M 7.875 79.722656 " clip-rule="nonzero"/></clipPath></defs><g clip-path="url(#7a243128d9)"><path fill="#ff3131" d="M 336.332031 79.722656 L 38.667969 79.722656 C 21.6875 79.722656 7.878906 93.53125 7.878906 110.511719 L 7.878906 264.46875 C 7.878906 281.460938 21.6875 295.265625 38.667969 295.265625 L 336.320312 295.265625 C 353.3125 295.265625 367.117188 281.460938 367.117188 264.480469 L 367.117188 110.511719 C 367.117188 93.53125 353.3125 79.722656 336.332031 79.722656 Z M 38.667969 91.699219 L 336.320312 91.699219 C 346.703125 91.699219 355.144531 100.140625 355.144531 110.511719 L 355.144531 253.570312 L 19.855469 253.570312 L 19.855469 110.511719 C 19.855469 100.140625 28.296875 91.699219 38.667969 91.699219 Z M 336.332031 283.292969 L 38.667969 283.292969 C 28.65625 283.292969 20.523438 275.414062 19.960938 265.546875 L 355.035156 265.546875 C 354.472656 275.414062 346.332031 283.292969 336.332031 283.292969 Z M 336.332031 283.292969 " fill-opacity="1" fill-rule="nonzero"/></g><path fill="#ff3131" d="M 50.113281 231.550781 L 125.792969 231.550781 C 135.996094 231.550781 144.292969 223.253906 144.292969 213.050781 L 144.292969 137.359375 C 144.292969 127.15625 135.996094 118.871094 125.792969 118.871094 L 50.113281 118.871094 C 39.910156 118.871094 31.613281 127.167969 31.613281 137.359375 L 31.613281 213.050781 C 31.613281 223.253906 39.910156 231.550781 50.113281 231.550781 Z M 63.875 219.574219 L 63.875 202.226562 C 63.875 188.945312 74.675781 178.144531 87.953125 178.144531 C 101.234375 178.144531 112.035156 188.945312 112.035156 202.226562 L 112.035156 219.574219 Z M 78.074219 156.277344 C 78.074219 150.816406 82.519531 146.386719 87.964844 146.386719 C 93.414062 146.386719 97.855469 150.828125 97.855469 156.277344 C 97.855469 161.726562 93.414062 166.167969 87.964844 166.167969 C 82.519531 166.167969 78.074219 161.726562 78.074219 156.277344 Z M 43.589844 137.347656 C 43.589844 133.753906 46.523438 130.832031 50.113281 130.832031 L 125.804688 130.832031 C 129.398438 130.832031 132.332031 133.753906 132.332031 137.347656 L 132.332031 213.039062 C 132.332031 216.628906 129.398438 219.5625 125.804688 219.5625 L 124.023438 219.5625 L 124.023438 202.226562 C 124.023438 188.347656 116.046875 176.40625 104.527344 170.382812 C 107.785156 166.5625 109.832031 161.679688 109.832031 156.277344 C 109.832031 144.21875 100.023438 134.414062 87.964844 134.414062 C 75.90625 134.414062 66.101562 144.21875 66.101562 156.277344 C 66.101562 161.679688 68.148438 166.5625 71.40625 170.382812 C 59.886719 176.40625 51.910156 188.347656 51.910156 202.226562 L 51.910156 219.574219 L 50.113281 219.574219 C 46.523438 219.574219 43.589844 216.640625 43.589844 213.050781 Z M 43.589844 137.347656 " fill-opacity="1" fill-rule="nonzero"/><path fill="#ff3131" d="M 171.035156 193.484375 L 331.410156 193.484375 C 334.714844 193.484375 337.398438 190.800781 337.398438 187.496094 C 337.398438 184.191406 334.714844 181.507812 331.410156 181.507812 L 171.035156 181.507812 C 167.730469 181.507812 165.046875 184.191406 165.046875 187.496094 C 165.046875 190.800781 167.730469 193.484375 171.035156 193.484375 Z M 171.035156 193.484375 " fill-opacity="1" fill-rule="nonzero"/><path fill="#ff3131" d="M 171.035156 223.851562 L 277.523438 223.851562 C 280.828125 223.851562 283.511719 221.167969 283.511719 217.863281 C 283.511719 214.558594 280.828125 211.875 277.523438 211.875 L 171.035156 211.875 C 167.730469 211.875 165.046875 214.558594 165.046875 217.863281 C 165.046875 221.167969 167.730469 223.851562 171.035156 223.851562 Z M 171.035156 223.851562 " fill-opacity="1" fill-rule="nonzero"/><path fill="#ff3131" d="M 171.035156 163.117188 L 277.523438 163.117188 C 280.828125 163.117188 283.511719 160.433594 283.511719 157.128906 C 283.511719 153.824219 280.828125 151.140625 277.523438 151.140625 L 171.035156 151.140625 C 167.730469 151.140625 165.046875 153.824219 165.046875 157.128906 C 165.046875 160.433594 167.730469 163.117188 171.035156 163.117188 Z M 171.035156 163.117188 " fill-opacity="1" fill-rule="nonzero"/><path fill="#ff3131" d="M 171.035156 132.761719 L 301.257812 132.761719 C 304.5625 132.761719 307.246094 130.078125 307.246094 126.773438 C 307.246094 123.46875 304.5625 120.785156 301.257812 120.785156 L 171.035156 120.785156 C 167.730469 120.785156 165.046875 123.46875 165.046875 126.773438 C 165.046875 130.078125 167.730469 132.761719 171.035156 132.761719 Z M 171.035156 132.761719 " fill-opacity="1" fill-rule="nonzero"/></svg>