<svg xmlns="http://www.w3.org/2000/svg" xmlns:xlink="http://www.w3.org/1999/xlink" width="1366" zoomAndPan="magnify" viewBox="0 0 1024.5 576" height="768" preserveAspectRatio="xMidYMid meet" version="1.0"><defs><clipPath id="d232fe4e61"><path d="M 0 0.140625 L 1024 0.140625 L 1024 575.859375 L 0 575.859375 Z M 0 0.140625 " clip-rule="nonzero"/></clipPath><clipPath id="5a07711f18"><path d="M 28 83.804688 L 32 83.804688 L 32 88 L 28 88 Z M 28 83.804688 " clip-rule="nonzero"/></clipPath><clipPath id="a4a5d56b46"><path d="M 185 191 L 227.140625 191 L 227.140625 227 L 185 227 Z M 185 191 " clip-rule="nonzero"/></clipPath><clipPath id="98c287a94c"><path d="M 61 242 L 65 242 L 65 246.476562 L 61 246.476562 Z M 61 242 " clip-rule="nonzero"/></clipPath><clipPath id="4054655ac0"><path d="M 978 248 L 1023.992188 248 L 1023.992188 300 L 978 300 Z M 978 248 " clip-rule="nonzero"/></clipPath><clipPath id="cb7b5e9fba"><path d="M 979 246.347656 L 985 246.347656 L 985 251 L 979 251 Z M 979 246.347656 " clip-rule="nonzero"/></clipPath><clipPath id="61bb05d278"><path d="M 964 298 L 1023.992188 298 L 1023.992188 350 L 964 350 Z M 964 298 " clip-rule="nonzero"/></clipPath><clipPath id="be34e7618a"><path d="M 701.917969 398 L 762 398 L 762 449 L 701.917969 449 Z M 701.917969 398 " clip-rule="nonzero"/></clipPath><clipPath id="7b834974ac"><path d="M 932 471 L 938 471 L 938 476.484375 L 932 476.484375 Z M 932 471 " clip-rule="nonzero"/></clipPath><clipPath id="04f19fe0af"><path d="M 964 348 L 1023.992188 348 L 1023.992188 399 L 964 399 Z M 964 348 " clip-rule="nonzero"/></clipPath></defs><g clip-path="url(#d232fe4e61)"><path fill="#ffffff" d="M 0 0.140625 L 1024 0.140625 L 1024 575.859375 L 0 575.859375 Z M 0 0.140625 " fill-opacity="1" fill-rule="nonzero"/><path fill="#ffffff" d="M 0 0.140625 L 1024 0.140625 L 1024 575.859375 L 0 575.859375 Z M 0 0.140625 " fill-opacity="1" fill-rule="nonzero"/></g><path fill="#f87171" d="M 31.375 157.128906 C 31.300781 157.128906 31.226562 157.109375 31.15625 157.070312 C 30.949219 156.949219 30.878906 156.683594 31 156.476562 L 41.199219 138.902344 L 31.078125 121.285156 C 30.960938 121.078125 31.03125 120.8125 31.238281 120.695312 C 31.449219 120.574219 31.714844 120.644531 31.832031 120.855469 L 42.203125 138.90625 L 31.75 156.914062 C 31.671875 157.050781 31.523438 157.128906 31.375 157.128906 " fill-opacity="1" fill-rule="nonzero"/><path fill="#f87171" d="M 62.207031 210.585938 C 62.132812 210.585938 62.058594 210.566406 61.992188 210.527344 C 61.785156 210.40625 61.710938 210.140625 61.832031 209.933594 L 72.03125 192.359375 L 61.914062 174.742188 C 61.792969 174.535156 61.863281 174.269531 62.074219 174.148438 C 62.28125 174.03125 62.546875 174.101562 62.664062 174.308594 L 73.035156 192.363281 L 62.585938 210.367188 C 62.503906 210.507812 62.359375 210.585938 62.207031 210.585938 " fill-opacity="1" fill-rule="nonzero"/><path fill="#f87171" d="M 62.226562 174.921875 C 62.152344 174.921875 62.078125 174.902344 62.011719 174.863281 C 61.800781 174.742188 61.730469 174.476562 61.851562 174.269531 L 72.050781 156.699219 L 61.929688 139.082031 C 61.8125 138.871094 61.882812 138.605469 62.09375 138.488281 C 62.300781 138.367188 62.566406 138.441406 62.683594 138.648438 L 73.054688 156.699219 L 62.605469 174.707031 C 62.523438 174.84375 62.378906 174.921875 62.226562 174.921875 " fill-opacity="1" fill-rule="nonzero"/><path fill="#f87171" d="M 134.289062 227.761719 L 154.675781 227.808594 L 164.90625 210.175781 L 154.753906 192.5 L 134.367188 192.453125 L 124.136719 210.085938 Z M 154.855469 228.125 L 154.765625 228.125 L 134.105469 228.078125 L 123.773438 210.085938 L 134.1875 192.136719 L 134.277344 192.140625 L 154.9375 192.183594 L 165.273438 210.179688 Z M 154.855469 228.125 " fill-opacity="1" fill-rule="nonzero"/><path fill="#f87171" d="M 185.683594 210.207031 L 164.863281 210.207031 L 154.332031 191.960938 L 164.863281 173.714844 L 184.132812 173.714844 C 184.371094 173.714844 184.566406 173.90625 184.566406 174.148438 C 184.566406 174.386719 184.371094 174.582031 184.132812 174.582031 L 165.367188 174.582031 L 155.332031 191.960938 L 165.367188 209.335938 L 185.683594 209.335938 C 185.921875 209.335938 186.117188 209.53125 186.117188 209.773438 C 186.117188 210.011719 185.921875 210.207031 185.683594 210.207031 " fill-opacity="1" fill-rule="nonzero"/><path fill="#f87171" d="M 184.050781 175.78125 C 184.953125 175.78125 185.683594 175.050781 185.683594 174.148438 C 185.683594 173.246094 184.953125 172.515625 184.050781 172.515625 C 183.148438 172.515625 182.417969 173.246094 182.417969 174.148438 C 182.417969 175.050781 183.148438 175.78125 184.050781 175.78125 " fill-opacity="1" fill-rule="nonzero"/><path fill="#f87171" d="M 31.355469 121.503906 L 10.535156 121.503906 L 0 103.257812 L 10.535156 85.011719 L 29.800781 85.011719 C 30.042969 85.011719 30.238281 85.207031 30.238281 85.445312 C 30.238281 85.683594 30.042969 85.878906 29.800781 85.878906 L 11.035156 85.878906 L 1.003906 103.257812 L 11.035156 120.636719 L 31.355469 120.636719 C 31.59375 120.636719 31.789062 120.828125 31.789062 121.070312 C 31.789062 121.308594 31.59375 121.503906 31.355469 121.503906 " fill-opacity="1" fill-rule="nonzero"/><g clip-path="url(#5a07711f18)"><path fill="#f87171" d="M 29.722656 87.078125 C 30.621094 87.078125 31.355469 86.347656 31.355469 85.445312 C 31.355469 84.542969 30.621094 83.8125 29.722656 83.8125 C 28.820312 83.8125 28.089844 84.542969 28.089844 85.445312 C 28.089844 86.347656 28.820312 87.078125 29.722656 87.078125 " fill-opacity="1" fill-rule="nonzero"/></g><path fill="#f87171" d="M 72.605469 192.15625 L 92.984375 192.15625 L 103.175781 174.507812 L 92.984375 156.859375 L 72.605469 156.859375 L 62.417969 174.507812 Z M 93.175781 192.484375 L 72.417969 192.484375 L 62.039062 174.507812 L 62.085938 174.425781 L 72.417969 156.53125 L 93.175781 156.53125 L 103.554688 174.507812 L 103.507812 174.589844 Z M 93.175781 192.484375 " fill-opacity="1" fill-rule="nonzero"/><path fill="#f87171" d="M 103.484375 209.589844 L 123.859375 209.589844 L 134.050781 191.941406 L 123.859375 174.292969 L 103.484375 174.292969 L 93.292969 191.941406 Z M 124.050781 209.917969 L 103.292969 209.917969 L 92.914062 191.941406 L 103.292969 173.964844 L 124.050781 173.964844 L 134.429688 191.941406 Z M 124.050781 209.917969 " fill-opacity="1" fill-rule="nonzero"/><path fill="#f87171" d="M 154.804688 157.128906 L 133.988281 157.128906 L 123.453125 138.882812 L 133.988281 120.636719 L 153.253906 120.636719 C 153.496094 120.636719 153.6875 120.828125 153.6875 121.070312 C 153.6875 121.308594 153.496094 121.503906 153.253906 121.503906 L 134.488281 121.503906 L 124.457031 138.882812 L 134.488281 156.261719 L 154.804688 156.261719 C 155.046875 156.261719 155.238281 156.453125 155.238281 156.695312 C 155.238281 156.933594 155.046875 157.128906 154.804688 157.128906 " fill-opacity="1" fill-rule="nonzero"/><path fill="#f87171" d="M 153.171875 122.703125 C 154.074219 122.703125 154.804688 121.972656 154.804688 121.070312 C 154.804688 120.167969 154.074219 119.4375 153.171875 119.4375 C 152.269531 119.4375 151.539062 120.167969 151.539062 121.070312 C 151.539062 121.972656 152.269531 122.703125 153.171875 122.703125 " fill-opacity="1" fill-rule="nonzero"/><path fill="#f87171" d="M 41.753906 209.96875 L 62.132812 209.96875 L 72.320312 192.320312 L 62.132812 174.671875 L 41.753906 174.671875 L 31.566406 192.320312 Z M 62.324219 210.296875 L 41.566406 210.296875 L 31.1875 192.320312 L 41.566406 174.34375 L 62.324219 174.34375 L 72.703125 192.320312 Z M 62.324219 210.296875 " fill-opacity="1" fill-rule="nonzero"/><path fill="#f87171" d="M 72.605469 227.78125 L 92.984375 227.78125 L 103.175781 210.132812 L 92.984375 192.484375 L 72.605469 192.484375 L 62.417969 210.132812 Z M 93.175781 228.109375 L 72.417969 228.109375 L 62.039062 210.132812 L 72.417969 192.15625 L 93.175781 192.15625 L 103.554688 210.132812 L 103.507812 210.214844 Z M 93.175781 228.109375 " fill-opacity="1" fill-rule="nonzero"/><path fill="#f87171" d="M 134.332031 192.15625 L 154.710938 192.15625 L 164.898438 174.507812 L 154.710938 156.859375 L 134.332031 156.859375 L 124.144531 174.507812 Z M 154.902344 192.484375 L 134.144531 192.484375 L 123.765625 174.507812 L 123.8125 174.425781 L 134.144531 156.53125 L 154.902344 156.53125 L 165.28125 174.507812 Z M 154.902344 192.484375 " fill-opacity="1" fill-rule="nonzero"/><path fill="#f87171" d="M 41.753906 174.324219 L 62.132812 174.324219 L 72.320312 156.675781 L 62.132812 139.027344 L 41.753906 139.027344 L 31.566406 156.675781 Z M 62.324219 174.652344 L 41.566406 174.652344 L 31.1875 156.675781 L 41.566406 138.699219 L 62.324219 138.699219 L 72.703125 156.675781 L 72.65625 156.757812 Z M 62.324219 174.652344 " fill-opacity="1" fill-rule="nonzero"/><path fill="#f87171" d="M 72.636719 156.53125 L 93.015625 156.53125 L 103.207031 138.882812 L 93.015625 121.234375 L 72.636719 121.234375 L 62.449219 138.882812 Z M 93.207031 156.859375 L 72.449219 156.859375 L 62.070312 138.882812 L 72.449219 120.90625 L 93.207031 120.90625 L 103.585938 138.882812 L 103.539062 138.964844 Z M 93.207031 156.859375 " fill-opacity="1" fill-rule="nonzero"/><path fill="#f87171" d="M 10.882812 156.511719 L 31.257812 156.511719 L 41.449219 138.863281 L 31.257812 121.214844 L 10.882812 121.214844 L 0.691406 138.863281 Z M 31.449219 156.839844 L 10.691406 156.839844 L 0.3125 138.863281 L 10.691406 120.886719 L 31.449219 120.886719 L 41.828125 138.863281 L 41.78125 138.945312 Z M 31.449219 156.839844 " fill-opacity="1" fill-rule="nonzero"/><path fill="#f87171" d="M 123.957031 210.566406 L 103.136719 210.566406 L 92.601562 192.320312 L 103.136719 174.074219 L 123.957031 174.074219 C 124.195312 174.074219 124.390625 174.265625 124.390625 174.507812 C 124.390625 174.746094 124.195312 174.941406 123.957031 174.941406 L 103.636719 174.941406 L 93.605469 192.320312 L 103.636719 209.699219 L 123.957031 209.699219 C 124.195312 209.699219 124.390625 209.890625 124.390625 210.132812 C 124.390625 210.371094 124.195312 210.566406 123.957031 210.566406 " fill-opacity="1" fill-rule="nonzero"/><path fill="#f87171" d="M 155.234375 192.753906 L 134.417969 192.753906 C 134.175781 192.753906 133.980469 192.558594 133.980469 192.320312 C 133.980469 192.078125 134.175781 191.886719 134.417969 191.886719 L 154.734375 191.886719 L 164.765625 174.507812 L 154.734375 157.128906 L 134.417969 157.128906 C 134.175781 157.128906 133.980469 156.933594 133.980469 156.695312 C 133.980469 156.453125 134.175781 156.261719 134.417969 156.261719 L 155.234375 156.261719 L 165.769531 174.507812 Z M 155.234375 192.753906 " fill-opacity="1" fill-rule="nonzero"/><g clip-path="url(#a4a5d56b46)"><path fill="#f87171" d="M 217.277344 226.695312 C 217.203125 226.695312 217.128906 226.675781 217.058594 226.636719 C 216.851562 226.515625 216.78125 226.25 216.902344 226.042969 L 226.3125 209.808594 L 216.3125 192.414062 L 196.246094 192.375 L 186.054688 209.953125 C 185.933594 210.160156 185.667969 210.230469 185.460938 210.109375 C 185.253906 209.992188 185.183594 209.722656 185.304688 209.515625 L 195.746094 191.507812 L 216.816406 191.542969 L 227.316406 209.808594 L 217.652344 226.480469 C 217.574219 226.617188 217.425781 226.695312 217.277344 226.695312 " fill-opacity="1" fill-rule="nonzero"/></g><path fill="#f87171" d="M 218.730469 227.007812 C 218.28125 227.789062 217.28125 228.054688 216.5 227.601562 C 215.71875 227.152344 215.453125 226.152344 215.90625 225.371094 C 216.359375 224.589844 217.359375 224.324219 218.136719 224.777344 C 218.917969 225.230469 219.183594 226.230469 218.730469 227.007812 " fill-opacity="1" fill-rule="nonzero"/><path fill="#f87171" d="M 62.972656 244.941406 C 62.898438 244.941406 62.824219 244.921875 62.757812 244.882812 C 62.546875 244.761719 62.476562 244.496094 62.597656 244.289062 L 72.011719 228.054688 L 62.007812 210.660156 L 41.941406 210.621094 L 31.75 228.199219 C 31.632812 228.40625 31.367188 228.476562 31.160156 228.355469 C 30.949219 228.238281 30.878906 227.972656 31 227.765625 L 41.441406 209.753906 L 62.511719 209.789062 L 73.011719 228.054688 L 63.351562 244.726562 C 63.269531 244.863281 63.125 244.941406 62.972656 244.941406 " fill-opacity="1" fill-rule="nonzero"/><g clip-path="url(#98c287a94c)"><path fill="#f87171" d="M 64.425781 245.253906 C 63.976562 246.035156 62.976562 246.300781 62.195312 245.847656 C 61.414062 245.398438 61.148438 244.398438 61.601562 243.617188 C 62.054688 242.835938 63.054688 242.570312 63.835938 243.023438 C 64.613281 243.476562 64.878906 244.476562 64.425781 245.253906 " fill-opacity="1" fill-rule="nonzero"/></g><path fill="#f87171" d="M 10.039062 191.429688 C 9.890625 191.429688 9.746094 191.351562 9.664062 191.214844 L 0 174.546875 L 10.503906 156.28125 L 31.570312 156.242188 L 42.011719 174.253906 C 42.132812 174.460938 42.0625 174.726562 41.855469 174.847656 C 41.648438 174.964844 41.382812 174.894531 41.261719 174.6875 L 31.070312 157.109375 L 11.003906 157.148438 L 1.003906 174.542969 L 10.414062 190.777344 C 10.535156 190.984375 10.464844 191.25 10.257812 191.371094 C 10.191406 191.410156 10.113281 191.429688 10.039062 191.429688 " fill-opacity="1" fill-rule="nonzero"/><path fill="#f87171" d="M 11.410156 190.105469 C 11.863281 190.886719 11.597656 191.886719 10.816406 192.339844 C 10.039062 192.789062 9.039062 192.523438 8.585938 191.746094 C 8.132812 190.964844 8.398438 189.964844 9.179688 189.511719 C 9.960938 189.058594 10.960938 189.328125 11.410156 190.105469 " fill-opacity="1" fill-rule="nonzero"/><path fill="#f87171" d="M 979.539062 350.234375 C 979.644531 350.234375 979.75 350.207031 979.847656 350.152344 C 980.144531 349.980469 980.242188 349.605469 980.070312 349.308594 L 965.625 324.414062 L 979.960938 299.453125 C 980.128906 299.15625 980.027344 298.78125 979.734375 298.613281 C 979.4375 298.441406 979.0625 298.542969 978.894531 298.839844 L 964.203125 324.417969 L 979.007812 349.925781 C 979.121094 350.125 979.328125 350.234375 979.539062 350.234375 " fill-opacity="1" fill-rule="nonzero"/><path fill="#f87171" d="M 935.855469 425.96875 C 935.960938 425.96875 936.066406 425.941406 936.164062 425.886719 C 936.457031 425.714844 936.558594 425.339844 936.390625 425.042969 L 921.941406 400.148438 L 936.277344 375.1875 C 936.445312 374.894531 936.34375 374.515625 936.050781 374.347656 C 935.753906 374.179688 935.378906 374.28125 935.210938 374.574219 L 920.519531 400.152344 L 935.324219 425.664062 C 935.4375 425.859375 935.644531 425.96875 935.855469 425.96875 " fill-opacity="1" fill-rule="nonzero"/><path fill="#f87171" d="M 935.828125 375.445312 C 935.933594 375.445312 936.042969 375.417969 936.136719 375.359375 C 936.433594 375.191406 936.53125 374.8125 936.363281 374.519531 L 921.914062 349.625 L 936.25 324.664062 C 936.417969 324.367188 936.316406 323.992188 936.023438 323.820312 C 935.726562 323.652344 935.351562 323.753906 935.183594 324.050781 L 920.492188 349.625 L 935.296875 375.136719 C 935.410156 375.335938 935.617188 375.445312 935.828125 375.445312 " fill-opacity="1" fill-rule="nonzero"/><path fill="#f87171" d="M 833.734375 450.308594 L 804.851562 450.371094 L 790.355469 425.390625 L 804.738281 400.347656 L 833.621094 400.28125 L 848.117188 425.261719 Z M 804.59375 450.820312 L 804.722656 450.820312 L 833.992188 450.753906 L 848.636719 425.261719 L 833.878906 399.835938 L 833.75 399.835938 L 804.480469 399.898438 L 789.835938 425.394531 Z M 804.59375 450.820312 " fill-opacity="1" fill-rule="nonzero"/><path fill="#f87171" d="M 760.917969 425.433594 L 790.414062 425.433594 L 805.339844 399.582031 L 790.414062 373.730469 L 763.117188 373.730469 C 762.777344 373.730469 762.5 374.003906 762.5 374.34375 C 762.5 374.683594 762.777344 374.960938 763.117188 374.960938 L 789.703125 374.960938 L 803.917969 399.582031 L 789.703125 424.203125 L 760.917969 424.203125 C 760.578125 424.203125 760.304688 424.476562 760.304688 424.816406 C 760.304688 425.15625 760.578125 425.433594 760.917969 425.433594 " fill-opacity="1" fill-rule="nonzero"/><path fill="#f87171" d="M 763.230469 376.660156 C 761.953125 376.660156 760.917969 375.621094 760.917969 374.34375 C 760.917969 373.066406 761.953125 372.03125 763.230469 372.03125 C 764.511719 372.03125 765.546875 373.066406 765.546875 374.34375 C 765.546875 375.621094 764.511719 376.660156 763.230469 376.660156 " fill-opacity="1" fill-rule="nonzero"/><g clip-path="url(#4054655ac0)"><path fill="#f87171" d="M 979.570312 299.761719 L 1009.066406 299.761719 L 1023.992188 273.910156 L 1009.066406 248.058594 L 981.769531 248.058594 C 981.429688 248.058594 981.152344 248.332031 981.152344 248.671875 C 981.152344 249.011719 981.429688 249.289062 981.769531 249.289062 L 1008.355469 249.289062 L 1022.570312 273.910156 L 1008.355469 298.53125 L 979.570312 298.53125 C 979.230469 298.53125 978.957031 298.804688 978.957031 299.144531 C 978.957031 299.484375 979.230469 299.761719 979.570312 299.761719 " fill-opacity="1" fill-rule="nonzero"/></g><g clip-path="url(#cb7b5e9fba)"><path fill="#f87171" d="M 981.886719 250.988281 C 980.605469 250.988281 979.570312 249.949219 979.570312 248.671875 C 979.570312 247.394531 980.605469 246.359375 981.886719 246.359375 C 983.164062 246.359375 984.199219 247.394531 984.199219 248.671875 C 984.199219 249.949219 983.164062 250.988281 981.886719 250.988281 " fill-opacity="1" fill-rule="nonzero"/></g><path fill="#f87171" d="M 921.125 399.859375 L 892.253906 399.859375 L 877.816406 374.855469 L 892.253906 349.851562 L 921.125 349.851562 L 935.558594 374.855469 Z M 891.984375 400.324219 L 921.394531 400.324219 L 936.097656 374.855469 L 936.03125 374.738281 L 921.394531 349.386719 L 891.984375 349.386719 L 877.277344 374.855469 L 877.347656 374.972656 Z M 891.984375 400.324219 " fill-opacity="1" fill-rule="nonzero"/><path fill="#f87171" d="M 877.378906 424.558594 L 848.507812 424.558594 L 834.074219 399.554688 L 848.507812 374.550781 L 877.378906 374.550781 L 891.816406 399.554688 Z M 848.238281 425.023438 L 877.648438 425.023438 L 892.355469 399.554688 L 877.648438 374.085938 L 848.238281 374.085938 L 833.535156 399.554688 Z M 848.238281 425.023438 " fill-opacity="1" fill-rule="nonzero"/><path fill="#f87171" d="M 804.664062 350.234375 L 834.160156 350.234375 L 849.085938 324.382812 L 834.160156 298.53125 L 806.863281 298.53125 C 806.523438 298.53125 806.25 298.804688 806.25 299.144531 C 806.25 299.484375 806.523438 299.761719 806.863281 299.761719 L 833.449219 299.761719 L 847.667969 324.382812 L 833.449219 349.003906 L 804.664062 349.003906 C 804.328125 349.003906 804.050781 349.277344 804.050781 349.617188 C 804.050781 349.957031 804.328125 350.234375 804.664062 350.234375 " fill-opacity="1" fill-rule="nonzero"/><path fill="#f87171" d="M 806.980469 301.460938 C 805.703125 301.460938 804.664062 300.421875 804.664062 299.144531 C 804.664062 297.867188 805.703125 296.832031 806.980469 296.832031 C 808.257812 296.832031 809.292969 297.867188 809.292969 299.144531 C 809.292969 300.421875 808.257812 301.460938 806.980469 301.460938 " fill-opacity="1" fill-rule="nonzero"/><path fill="#f87171" d="M 964.835938 425.09375 L 935.964844 425.09375 L 921.527344 400.089844 L 935.964844 375.085938 L 964.835938 375.085938 L 979.269531 400.089844 Z M 935.695312 425.5625 L 965.105469 425.5625 L 979.808594 400.089844 L 965.105469 374.621094 L 935.695312 374.621094 L 920.988281 400.089844 Z M 935.695312 425.5625 " fill-opacity="1" fill-rule="nonzero"/><path fill="#f87171" d="M 921.125 450.332031 L 892.253906 450.332031 L 877.816406 425.328125 L 892.253906 400.324219 L 921.125 400.324219 L 935.558594 425.328125 Z M 891.984375 450.796875 L 921.394531 450.796875 L 936.097656 425.328125 L 921.394531 399.859375 L 891.984375 399.859375 L 877.277344 425.328125 L 877.347656 425.445312 Z M 891.984375 450.796875 " fill-opacity="1" fill-rule="nonzero"/><path fill="#f87171" d="M 833.671875 399.859375 L 804.800781 399.859375 L 790.363281 374.855469 L 804.800781 349.851562 L 833.671875 349.851562 L 848.105469 374.855469 Z M 804.53125 400.324219 L 833.941406 400.324219 L 848.644531 374.855469 L 848.578125 374.738281 L 833.941406 349.386719 L 804.53125 349.386719 L 789.828125 374.855469 Z M 804.53125 400.324219 " fill-opacity="1" fill-rule="nonzero"/><path fill="#f87171" d="M 964.835938 374.597656 L 935.964844 374.597656 L 921.527344 349.59375 L 935.964844 324.589844 L 964.835938 324.589844 L 979.269531 349.59375 Z M 935.695312 375.0625 L 965.105469 375.0625 L 979.808594 349.59375 L 965.105469 324.121094 L 935.695312 324.121094 L 920.988281 349.59375 L 921.058594 349.707031 Z M 935.695312 375.0625 " fill-opacity="1" fill-rule="nonzero"/><path fill="#f87171" d="M 921.082031 349.386719 L 892.210938 349.386719 L 877.773438 324.382812 L 892.210938 299.378906 L 921.082031 299.378906 L 935.515625 324.382812 Z M 891.941406 349.851562 L 921.347656 349.851562 L 936.054688 324.382812 L 921.347656 298.914062 L 891.941406 298.914062 L 877.234375 324.382812 L 877.300781 324.5 Z M 891.941406 349.851562 " fill-opacity="1" fill-rule="nonzero"/><g clip-path="url(#61bb05d278)"><path fill="#f87171" d="M 1008.578125 349.359375 L 979.707031 349.359375 L 965.269531 324.355469 L 979.707031 299.351562 L 1008.578125 299.351562 L 1023.011719 324.355469 Z M 979.4375 349.824219 L 1008.847656 349.824219 L 1023.550781 324.355469 L 1008.847656 298.886719 L 979.4375 298.886719 L 964.730469 324.355469 L 964.800781 324.472656 Z M 979.4375 349.824219 " fill-opacity="1" fill-rule="nonzero"/></g><path fill="#f87171" d="M 848.375 425.941406 L 877.871094 425.941406 L 892.796875 400.089844 L 877.871094 374.238281 L 848.375 374.238281 C 848.035156 374.238281 847.757812 374.515625 847.757812 374.855469 C 847.757812 375.195312 848.035156 375.46875 848.375 375.46875 L 877.160156 375.46875 L 891.375 400.089844 L 877.160156 424.710938 L 848.375 424.710938 C 848.035156 424.710938 847.757812 424.988281 847.757812 425.328125 C 847.757812 425.667969 848.035156 425.941406 848.375 425.941406 " fill-opacity="1" fill-rule="nonzero"/><path fill="#f87171" d="M 804.058594 400.707031 L 833.554688 400.707031 C 833.894531 400.707031 834.167969 400.429688 834.167969 400.089844 C 834.167969 399.75 833.894531 399.476562 833.554688 399.476562 L 804.769531 399.476562 L 790.554688 374.855469 L 804.769531 350.234375 L 833.554688 350.234375 C 833.894531 350.234375 834.167969 349.957031 834.167969 349.617188 C 834.167969 349.277344 833.894531 349.003906 833.554688 349.003906 L 804.058594 349.003906 L 789.132812 374.855469 Z M 804.058594 400.707031 " fill-opacity="1" fill-rule="nonzero"/><g clip-path="url(#be34e7618a)"><path fill="#f87171" d="M 716.15625 448.792969 C 716.261719 448.792969 716.367188 448.769531 716.464844 448.710938 C 716.757812 448.539062 716.859375 448.164062 716.6875 447.871094 L 703.355469 424.871094 L 717.523438 400.222656 L 745.953125 400.171875 L 760.390625 425.074219 C 760.5625 425.367188 760.9375 425.46875 761.230469 425.296875 C 761.527344 425.128906 761.625 424.75 761.457031 424.457031 L 746.664062 398.9375 L 716.8125 398.992188 L 701.933594 424.871094 L 715.625 448.488281 C 715.738281 448.683594 715.945312 448.792969 716.15625 448.792969 " fill-opacity="1" fill-rule="nonzero"/></g><path fill="#f87171" d="M 714.097656 449.238281 C 714.738281 450.34375 716.152344 450.722656 717.257812 450.082031 C 718.363281 449.441406 718.742188 448.023438 718.101562 446.917969 C 717.460938 445.8125 716.042969 445.4375 714.9375 446.078125 C 713.832031 446.71875 713.457031 448.132812 714.097656 449.238281 " fill-opacity="1" fill-rule="nonzero"/><path fill="#f87171" d="M 934.773438 474.644531 C 934.878906 474.644531 934.984375 474.617188 935.082031 474.5625 C 935.375 474.390625 935.476562 474.015625 935.304688 473.722656 L 921.96875 450.722656 L 936.140625 426.074219 L 964.570312 426.023438 L 979.007812 450.925781 C 979.179688 451.21875 979.554688 451.320312 979.847656 451.148438 C 980.140625 450.976562 980.242188 450.601562 980.070312 450.308594 L 965.277344 424.789062 L 935.425781 424.84375 L 920.546875 450.722656 L 934.238281 474.339844 C 934.355469 474.535156 934.5625 474.644531 934.773438 474.644531 " fill-opacity="1" fill-rule="nonzero"/><g clip-path="url(#7b834974ac)"><path fill="#f87171" d="M 932.710938 475.089844 C 933.355469 476.195312 934.769531 476.574219 935.875 475.933594 C 936.980469 475.289062 937.355469 473.875 936.714844 472.769531 C 936.074219 471.664062 934.660156 471.289062 933.554688 471.929688 C 932.449219 472.570312 932.070312 473.984375 932.710938 475.089844 " fill-opacity="1" fill-rule="nonzero"/></g><g clip-path="url(#04f19fe0af)"><path fill="#f87171" d="M 1009.769531 398.832031 C 1009.980469 398.832031 1010.1875 398.722656 1010.300781 398.523438 L 1023.992188 374.910156 L 1009.113281 349.03125 L 979.261719 348.976562 L 964.46875 374.492188 C 964.296875 374.789062 964.398438 375.164062 964.691406 375.335938 C 964.984375 375.503906 965.363281 375.40625 965.53125 375.109375 L 979.972656 350.207031 L 1008.402344 350.261719 L 1022.570312 374.90625 L 1009.234375 397.90625 C 1009.066406 398.203125 1009.164062 398.578125 1009.460938 398.75 C 1009.558594 398.804688 1009.664062 398.832031 1009.769531 398.832031 " fill-opacity="1" fill-rule="nonzero"/></g><path fill="#f87171" d="M 1007.824219 396.957031 C 1007.183594 398.0625 1007.5625 399.476562 1008.667969 400.117188 C 1009.769531 400.757812 1011.1875 400.382812 1011.828125 399.277344 C 1012.46875 398.171875 1012.09375 396.753906 1010.988281 396.113281 C 1009.882812 395.472656 1008.464844 395.851562 1007.824219 396.957031 " fill-opacity="1" fill-rule="nonzero"/></svg>