<svg xmlns="http://www.w3.org/2000/svg" xmlns:xlink="http://www.w3.org/1999/xlink" width="500" zoomAndPan="magnify" viewBox="0 0 375 374.999991" height="500" preserveAspectRatio="xMidYMid meet" version="1.0"><defs><clipPath id="5ba8b19c1f"><path d="M 248.453125 322.078125 L 365.300781 322.078125 L 365.300781 341.359375 L 248.453125 341.359375 Z M 248.453125 322.078125 " clip-rule="nonzero"/></clipPath><clipPath id="c15771f3ea"><path d="M 264 263.390625 L 350 263.390625 L 350 318 L 264 318 Z M 264 263.390625 " clip-rule="nonzero"/></clipPath><clipPath id="713362d0f2"><path d="M 49.558594 50.214844 L 97.558594 50.214844 L 97.558594 149.214844 L 49.558594 149.214844 Z M 49.558594 50.214844 " clip-rule="nonzero"/></clipPath><clipPath id="c7f6f37c8d"><path d="M 282.976562 50.214844 L 356.476562 50.214844 L 356.476562 149.214844 L 282.976562 149.214844 Z M 282.976562 50.214844 " clip-rule="nonzero"/></clipPath><clipPath id="29a6ec9478"><path d="M 283 50.214844 L 356.476562 50.214844 L 356.476562 149.214844 L 283 149.214844 Z M 283 50.214844 " clip-rule="nonzero"/></clipPath><clipPath id="e267e770b5"><path d="M 29 263.390625 L 101 263.390625 L 101 322 L 29 322 Z M 29 263.390625 " clip-rule="nonzero"/></clipPath><clipPath id="c37ef9ecb7"><path d="M 26.753906 324 L 104 324 L 104 340 L 26.753906 340 Z M 26.753906 324 " clip-rule="nonzero"/></clipPath><clipPath id="2d5c0ba481"><path d="M 26.753906 340 L 104 340 L 104 341.390625 L 26.753906 341.390625 Z M 26.753906 340 " clip-rule="nonzero"/></clipPath><clipPath id="5a87eee6d5"><path d="M 104 263.390625 L 129.503906 263.390625 L 129.503906 341 L 104 341 Z M 104 263.390625 " clip-rule="nonzero"/></clipPath><clipPath id="7ac624c8f3"><path d="M 141.6875 136.949219 L 173 136.949219 L 173 168 L 141.6875 168 Z M 141.6875 136.949219 " clip-rule="nonzero"/></clipPath><clipPath id="486ffd96b3"><path d="M 225 136.949219 L 255.6875 136.949219 L 255.6875 168 L 225 168 Z M 225 136.949219 " clip-rule="nonzero"/></clipPath><clipPath id="498eca2a7b"><path d="M 225 220 L 255.6875 220 L 255.6875 250.949219 L 225 250.949219 Z M 225 220 " clip-rule="nonzero"/></clipPath><clipPath id="4f00a042cf"><path d="M 141.6875 220 L 173 220 L 173 250.949219 L 141.6875 250.949219 Z M 141.6875 220 " clip-rule="nonzero"/></clipPath></defs><g clip-path="url(#5ba8b19c1f)"><path fill="#f87171" d="M 323.738281 336.449219 L 290.019531 336.449219 C 289.789062 336.449219 289.640625 336.207031 289.746094 336 L 292.339844 331.003906 C 292.394531 330.902344 292.5 330.835938 292.617188 330.835938 L 321.140625 330.835938 C 321.257812 330.835938 321.363281 330.902344 321.414062 331.003906 L 324.011719 336 C 324.117188 336.207031 323.96875 336.449219 323.738281 336.449219 Z M 364.558594 337.015625 L 350.59375 323.054688 C 350.117188 322.578125 349.472656 322.3125 348.796875 322.3125 L 264.960938 322.3125 C 264.285156 322.3125 263.636719 322.578125 263.160156 323.054688 L 249.199219 337.015625 C 248.722656 337.496094 248.453125 338.140625 248.453125 338.816406 C 248.453125 340.21875 249.59375 341.359375 250.996094 341.359375 L 362.761719 341.359375 C 364.164062 341.359375 365.300781 340.21875 365.300781 338.816406 C 365.300781 338.140625 365.035156 337.496094 364.558594 337.015625 " fill-opacity="1" fill-rule="nonzero"/></g><g clip-path="url(#c15771f3ea)"><path fill="#f87171" d="M 345.671875 263.417969 L 268.085938 263.417969 C 265.839844 263.417969 264.003906 265.257812 264.003906 267.5 L 264.003906 313.5625 C 264.003906 315.808594 265.839844 317.644531 268.085938 317.644531 L 345.671875 317.644531 C 347.917969 317.644531 349.753906 315.808594 349.753906 313.5625 L 349.753906 267.5 C 349.753906 265.257812 347.917969 263.417969 345.671875 263.417969 Z M 345.027344 268.144531 L 345.027344 312.921875 L 268.726562 312.921875 L 268.726562 268.144531 L 345.027344 268.144531 " fill-opacity="1" fill-rule="nonzero"/></g><g clip-path="url(#713362d0f2)"><path fill="#f87171" d="M 91.515625 149.097656 L 55.886719 149.097656 C 52.414062 149.097656 49.601562 146.28125 49.601562 142.808594 L 49.601562 56.882812 C 49.601562 53.410156 52.414062 50.597656 55.886719 50.597656 L 91.515625 50.597656 C 94.988281 50.597656 97.804688 53.410156 97.804688 56.882812 L 97.804688 142.808594 C 97.800781 146.28125 94.988281 149.097656 91.515625 149.097656 Z M 73.703125 147 C 76.015625 147 77.894531 145.125 77.894531 142.808594 C 77.894531 140.496094 76.015625 138.617188 73.703125 138.617188 C 71.386719 138.617188 69.511719 140.496094 69.511719 142.808594 C 69.511719 145.125 71.386719 147 73.703125 147 Z M 65.320312 55.835938 C 64.738281 55.835938 64.269531 56.304688 64.269531 56.882812 C 64.269531 57.460938 64.738281 57.933594 65.320312 57.933594 C 65.894531 57.933594 66.367188 57.464844 66.367188 56.882812 C 66.367188 56.304688 65.898438 55.835938 65.320312 55.835938 Z M 73.703125 51.644531 C 73.125 51.644531 72.65625 52.113281 72.65625 52.691406 C 72.65625 53.269531 73.125 53.742188 73.703125 53.742188 C 74.28125 53.742188 74.75 53.273438 74.75 52.691406 C 74.75 52.113281 74.28125 51.644531 73.703125 51.644531 Z M 77.894531 55.835938 L 69.507812 55.835938 C 68.929688 55.835938 68.460938 56.304688 68.460938 56.882812 C 68.460938 57.460938 68.929688 57.933594 69.507812 57.933594 L 77.894531 57.933594 C 78.472656 57.933594 78.941406 57.464844 78.941406 56.882812 C 78.941406 56.304688 78.472656 55.835938 77.894531 55.835938 Z M 94.660156 61.074219 L 52.746094 61.074219 L 52.746094 136.523438 L 94.660156 136.523438 Z M 73.703125 139.667969 C 75.4375 139.667969 76.847656 141.074219 76.847656 142.808594 C 76.847656 144.546875 75.4375 145.953125 73.703125 145.953125 C 71.964844 145.953125 70.558594 144.546875 70.558594 142.808594 C 70.558594 141.074219 71.964844 139.667969 73.703125 139.667969 Z M 73.703125 139.667969 " fill-opacity="1" fill-rule="evenodd"/></g><g clip-path="url(#c7f6f37c8d)"><path fill="#757575" d="M 352.203125 50.226562 L 287.273438 50.226562 C 284.898438 50.226562 282.976562 52.355469 282.976562 54.980469 L 282.976562 144.800781 C 282.976562 147.425781 284.898438 149.554688 287.273438 149.554688 L 352.203125 149.554688 C 354.574219 149.554688 356.5 147.425781 356.5 144.800781 L 356.5 54.980469 C 356.5 52.355469 354.574219 50.226562 352.203125 50.226562 Z M 351.726562 142.472656 C 351.726562 143.824219 350.738281 144.917969 349.515625 144.917969 L 289.960938 144.917969 C 288.738281 144.917969 287.746094 143.824219 287.746094 142.472656 L 287.746094 57.3125 C 287.746094 55.960938 288.738281 54.863281 289.960938 54.863281 L 349.515625 54.863281 C 350.738281 54.863281 351.726562 55.960938 351.726562 57.3125 Z M 351.726562 142.472656 " fill-opacity="1" fill-rule="nonzero"/></g><g clip-path="url(#29a6ec9478)"><path fill="#f87171" d="M 351.929688 50.644531 L 287.542969 50.644531 C 285.191406 50.644531 283.285156 52.757812 283.285156 55.359375 L 283.285156 144.425781 C 283.285156 147.027344 285.191406 149.136719 287.542969 149.136719 L 351.929688 149.136719 C 354.285156 149.136719 356.191406 147.027344 356.191406 144.425781 L 356.191406 55.359375 C 356.191406 52.753906 354.285156 50.644531 351.929688 50.644531 Z M 351.726562 142.542969 L 287.75 142.542969 L 287.75 57.238281 L 351.726562 57.238281 Z M 351.726562 142.542969 " fill-opacity="1" fill-rule="nonzero"/></g><path fill="#212021" d="M 321.804688 145.972656 C 321.804688 146.246094 321.75 146.511719 321.644531 146.765625 C 321.542969 147.019531 321.390625 147.242188 321.199219 147.433594 C 321.003906 147.628906 320.78125 147.777344 320.527344 147.882812 C 320.273438 147.988281 320.011719 148.039062 319.738281 148.039062 C 319.464844 148.039062 319.199219 147.988281 318.945312 147.882812 C 318.695312 147.777344 318.46875 147.628906 318.277344 147.433594 C 318.082031 147.242188 317.933594 147.019531 317.828125 146.765625 C 317.722656 146.511719 317.671875 146.246094 317.671875 145.972656 C 317.671875 145.699219 317.722656 145.4375 317.828125 145.183594 C 317.933594 144.929688 318.082031 144.707031 318.277344 144.511719 C 318.46875 144.320312 318.695312 144.171875 318.945312 144.066406 C 319.199219 143.960938 319.464844 143.90625 319.738281 143.90625 C 320.011719 143.90625 320.273438 143.960938 320.527344 144.066406 C 320.78125 144.171875 321.003906 144.320312 321.199219 144.511719 C 321.390625 144.707031 321.542969 144.929688 321.644531 145.183594 C 321.75 145.4375 321.804688 145.699219 321.804688 145.972656 Z M 321.804688 145.972656 " fill-opacity="1" fill-rule="nonzero"/><g clip-path="url(#e267e770b5)"><path fill="#f87171" d="M 31.894531 312.984375 L 59.636719 312.984375 L 59.636719 318.339844 L 55.769531 318.339844 C 53.890625 318.339844 52.363281 319.863281 52.363281 321.746094 L 77.65625 321.746094 C 77.65625 319.863281 76.128906 318.339844 74.246094 318.339844 L 70.382812 318.339844 L 70.382812 312.984375 L 98.125 312.984375 C 99.398438 312.984375 100.425781 311.953125 100.425781 310.683594 L 100.425781 265.714844 C 100.425781 264.441406 99.398438 263.414062 98.125 263.414062 L 31.894531 263.414062 C 30.621094 263.414062 29.589844 264.441406 29.589844 265.714844 L 29.589844 310.683594 C 29.589844 311.945312 30.621094 312.984375 31.894531 312.984375 Z M 92.078125 310.09375 C 91.84375 310.09375 91.667969 309.90625 91.667969 309.679688 C 91.667969 309.457031 91.855469 309.269531 92.078125 309.269531 C 92.304688 309.269531 92.488281 309.457031 92.488281 309.679688 C 92.488281 309.90625 92.3125 310.09375 92.078125 310.09375 Z M 94.660156 310.503906 C 94.203125 310.503906 93.828125 310.128906 93.828125 309.671875 C 93.828125 309.210938 94.203125 308.839844 94.660156 308.839844 C 95.121094 308.839844 95.496094 309.210938 95.496094 309.671875 C 95.496094 310.128906 95.121094 310.503906 94.660156 310.503906 Z M 65.019531 263.910156 C 65.289062 263.910156 65.503906 264.125 65.503906 264.394531 C 65.503906 264.667969 65.289062 264.882812 65.019531 264.882812 C 64.746094 264.882812 64.53125 264.667969 64.53125 264.394531 C 64.53125 264.125 64.746094 263.910156 65.019531 263.910156 Z M 31.621094 266.492188 C 31.621094 265.902344 32.097656 265.433594 32.679688 265.433594 L 97.347656 265.433594 C 97.9375 265.433594 98.40625 265.914062 98.40625 266.492188 L 98.40625 305.804688 C 98.40625 306.394531 97.929688 306.863281 97.347656 306.863281 L 32.679688 306.863281 C 32.089844 306.863281 31.621094 306.386719 31.621094 305.804688 Z M 31.621094 266.492188 " fill-opacity="1" fill-rule="nonzero"/></g><g clip-path="url(#c37ef9ecb7)"><path fill="#f87171" d="M 34.222656 324.292969 L 26.753906 339.640625 L 103.273438 339.640625 L 95.804688 324.292969 Z M 29.589844 338.210938 L 35.664062 325.714844 L 94.351562 325.714844 L 100.425781 338.210938 Z M 29.589844 338.210938 " fill-opacity="1" fill-rule="nonzero"/></g><path fill="#f87171" d="M 41.261719 326.351562 L 38.097656 326.351562 L 37.398438 327.792969 L 40.558594 327.792969 Z M 41.261719 326.351562 " fill-opacity="1" fill-rule="nonzero"/><path fill="#f87171" d="M 40.0625 328.792969 L 36.910156 328.792969 L 36.199219 330.234375 L 39.363281 330.234375 Z M 40.0625 328.792969 " fill-opacity="1" fill-rule="nonzero"/><path fill="#f87171" d="M 35.710938 331.246094 L 35.011719 332.6875 L 38.164062 332.6875 L 38.875 331.246094 Z M 35.710938 331.246094 " fill-opacity="1" fill-rule="nonzero"/><path fill="#f87171" d="M 33.8125 335.128906 L 36.976562 335.128906 L 37.675781 333.6875 L 34.515625 333.6875 Z M 33.8125 335.128906 " fill-opacity="1" fill-rule="nonzero"/><path fill="#f87171" d="M 32.625 337.582031 L 35.777344 337.582031 L 36.480469 336.140625 L 33.324219 336.140625 Z M 32.625 337.582031 " fill-opacity="1" fill-rule="nonzero"/><path fill="#f87171" d="M 46.316406 326.351562 L 43.164062 326.351562 L 42.609375 327.792969 L 45.765625 327.792969 Z M 46.316406 326.351562 " fill-opacity="1" fill-rule="nonzero"/><path fill="#f87171" d="M 45.382812 328.792969 L 42.226562 328.792969 L 41.675781 330.234375 L 44.839844 330.234375 Z M 45.382812 328.792969 " fill-opacity="1" fill-rule="nonzero"/><path fill="#f87171" d="M 41.289062 331.246094 L 40.738281 332.6875 L 43.902344 332.6875 L 44.453125 331.246094 Z M 41.289062 331.246094 " fill-opacity="1" fill-rule="nonzero"/><path fill="#f87171" d="M 39.800781 335.128906 L 42.964844 335.128906 L 43.519531 333.6875 L 40.355469 333.6875 Z M 39.800781 335.128906 " fill-opacity="1" fill-rule="nonzero"/><path fill="#f87171" d="M 38.875 337.582031 L 42.03125 337.582031 L 42.582031 336.140625 L 39.417969 336.140625 Z M 38.875 337.582031 " fill-opacity="1" fill-rule="nonzero"/><path fill="#f87171" d="M 51.242188 326.351562 L 48.085938 326.351562 L 47.617188 327.792969 L 50.773438 327.792969 Z M 51.242188 326.351562 " fill-opacity="1" fill-rule="nonzero"/><path fill="#f87171" d="M 50.445312 328.792969 L 47.289062 328.792969 L 46.824219 330.234375 L 49.976562 330.234375 Z M 50.445312 328.792969 " fill-opacity="1" fill-rule="nonzero"/><path fill="#f87171" d="M 49.191406 332.6875 L 49.660156 331.246094 L 46.496094 331.246094 L 46.027344 332.6875 Z M 49.191406 332.6875 " fill-opacity="1" fill-rule="nonzero"/><path fill="#f87171" d="M 45.230469 335.128906 L 48.394531 335.128906 L 48.863281 333.6875 L 45.699219 333.6875 Z M 45.230469 335.128906 " fill-opacity="1" fill-rule="nonzero"/><path fill="#f87171" d="M 56.511719 326.351562 L 53.347656 326.351562 L 52.960938 327.792969 L 56.117188 327.792969 Z M 56.511719 326.351562 " fill-opacity="1" fill-rule="nonzero"/><path fill="#f87171" d="M 55.84375 328.792969 L 52.691406 328.792969 L 52.296875 330.234375 L 55.460938 330.234375 Z M 55.84375 328.792969 " fill-opacity="1" fill-rule="nonzero"/><path fill="#f87171" d="M 55.191406 331.246094 L 52.027344 331.246094 L 51.644531 332.6875 L 54.796875 332.6875 Z M 55.191406 331.246094 " fill-opacity="1" fill-rule="nonzero"/><path fill="#f87171" d="M 54.132812 335.128906 L 54.527344 333.6875 L 51.363281 333.6875 L 50.976562 335.128906 Z M 54.132812 335.128906 " fill-opacity="1" fill-rule="nonzero"/><path fill="#f87171" d="M 61.519531 326.351562 L 58.355469 326.351562 L 58.222656 327.792969 L 61.378906 327.792969 Z M 61.519531 326.351562 " fill-opacity="1" fill-rule="nonzero"/><path fill="#f87171" d="M 61.285156 328.792969 L 58.121094 328.792969 L 57.988281 330.234375 L 61.144531 330.234375 Z M 61.285156 328.792969 " fill-opacity="1" fill-rule="nonzero"/><path fill="#f87171" d="M 61.050781 331.246094 L 57.886719 331.246094 L 57.753906 332.6875 L 60.910156 332.6875 Z M 61.050781 331.246094 " fill-opacity="1" fill-rule="nonzero"/><path fill="#f87171" d="M 60.816406 333.6875 L 57.652344 333.6875 L 57.519531 335.128906 L 60.675781 335.128906 Z M 60.816406 333.6875 " fill-opacity="1" fill-rule="nonzero"/><path fill="#f87171" d="M 63.4375 326.351562 L 66.601562 326.351562 L 66.601562 327.792969 L 63.4375 327.792969 Z M 63.4375 326.351562 " fill-opacity="1" fill-rule="nonzero"/><path fill="#f87171" d="M 63.4375 328.792969 L 66.601562 328.792969 L 66.601562 330.234375 L 63.4375 330.234375 Z M 63.4375 328.792969 " fill-opacity="1" fill-rule="nonzero"/><path fill="#f87171" d="M 63.4375 331.246094 L 66.601562 331.246094 L 66.601562 332.6875 L 63.4375 332.6875 Z M 63.4375 331.246094 " fill-opacity="1" fill-rule="nonzero"/><path fill="#f87171" d="M 63.4375 333.6875 L 66.601562 333.6875 L 66.601562 335.128906 L 63.4375 335.128906 Z M 63.4375 333.6875 " fill-opacity="1" fill-rule="nonzero"/><path fill="#f87171" d="M 92.667969 327.792969 L 91.964844 326.351562 L 88.800781 326.351562 L 89.503906 327.792969 Z M 92.667969 327.792969 " fill-opacity="1" fill-rule="nonzero"/><path fill="#f87171" d="M 90.703125 330.234375 L 93.855469 330.234375 L 93.15625 328.792969 L 90 328.792969 Z M 90.703125 330.234375 " fill-opacity="1" fill-rule="nonzero"/><path fill="#f87171" d="M 91.1875 331.246094 L 91.890625 332.6875 L 95.054688 332.6875 L 94.351562 331.246094 Z M 91.1875 331.246094 " fill-opacity="1" fill-rule="nonzero"/><path fill="#f87171" d="M 93.089844 335.128906 L 96.253906 335.128906 L 95.550781 333.6875 L 92.386719 333.6875 Z M 93.089844 335.128906 " fill-opacity="1" fill-rule="nonzero"/><path fill="#f87171" d="M 94.289062 337.582031 L 97.441406 337.582031 L 96.738281 336.140625 L 93.585938 336.140625 Z M 94.289062 337.582031 " fill-opacity="1" fill-rule="nonzero"/><path fill="#f87171" d="M 87.453125 327.792969 L 86.902344 326.351562 L 83.746094 326.351562 L 84.289062 327.792969 Z M 87.453125 327.792969 " fill-opacity="1" fill-rule="nonzero"/><path fill="#f87171" d="M 85.226562 330.234375 L 88.390625 330.234375 L 87.839844 328.792969 L 84.675781 328.792969 Z M 85.226562 330.234375 " fill-opacity="1" fill-rule="nonzero"/><path fill="#f87171" d="M 88.773438 331.246094 L 85.609375 331.246094 L 86.164062 332.6875 L 89.328125 332.6875 Z M 88.773438 331.246094 " fill-opacity="1" fill-rule="nonzero"/><path fill="#f87171" d="M 89.710938 333.6875 L 86.546875 333.6875 L 87.097656 335.128906 L 90.253906 335.128906 Z M 89.710938 333.6875 " fill-opacity="1" fill-rule="nonzero"/><path fill="#f87171" d="M 87.484375 336.140625 L 88.035156 337.582031 L 91.1875 337.582031 L 90.644531 336.140625 Z M 87.484375 336.140625 " fill-opacity="1" fill-rule="nonzero"/><path fill="#f87171" d="M 82.445312 327.792969 L 81.980469 326.351562 L 78.824219 326.351562 L 79.28125 327.792969 Z M 82.445312 327.792969 " fill-opacity="1" fill-rule="nonzero"/><path fill="#f87171" d="M 80.078125 330.234375 L 83.242188 330.234375 L 82.773438 328.792969 L 79.609375 328.792969 Z M 80.078125 330.234375 " fill-opacity="1" fill-rule="nonzero"/><path fill="#f87171" d="M 80.875 332.6875 L 84.039062 332.6875 L 83.570312 331.246094 L 80.40625 331.246094 Z M 80.875 332.6875 " fill-opacity="1" fill-rule="nonzero"/><path fill="#f87171" d="M 81.203125 333.6875 L 81.671875 335.128906 L 84.832031 335.128906 L 84.367188 333.6875 Z M 81.203125 333.6875 " fill-opacity="1" fill-rule="nonzero"/><path fill="#f87171" d="M 85.066406 336.140625 L 44.902344 336.140625 L 44.433594 337.582031 L 85.621094 337.582031 L 85.152344 336.140625 Z M 85.066406 336.140625 " fill-opacity="1" fill-rule="nonzero"/><path fill="#f87171" d="M 77.101562 327.792969 L 76.710938 326.351562 L 73.554688 326.351562 L 73.9375 327.792969 Z M 77.101562 327.792969 " fill-opacity="1" fill-rule="nonzero"/><path fill="#f87171" d="M 74.601562 330.234375 L 77.765625 330.234375 L 77.375 328.792969 L 74.210938 328.792969 Z M 74.601562 330.234375 " fill-opacity="1" fill-rule="nonzero"/><path fill="#f87171" d="M 75.269531 332.6875 L 78.421875 332.6875 L 78.039062 331.246094 L 74.875 331.246094 Z M 75.269531 332.6875 " fill-opacity="1" fill-rule="nonzero"/><path fill="#f87171" d="M 75.921875 335.128906 L 79.085938 335.128906 L 78.695312 333.6875 L 75.539062 333.6875 Z M 75.921875 335.128906 " fill-opacity="1" fill-rule="nonzero"/><path fill="#f87171" d="M 71.84375 327.792969 L 71.703125 326.351562 L 68.546875 326.351562 L 68.679688 327.792969 Z M 71.84375 327.792969 " fill-opacity="1" fill-rule="nonzero"/><path fill="#f87171" d="M 68.921875 330.234375 L 72.074219 330.234375 L 71.933594 328.792969 L 68.78125 328.792969 Z M 68.921875 330.234375 " fill-opacity="1" fill-rule="nonzero"/><path fill="#f87171" d="M 69.15625 332.6875 L 72.308594 332.6875 L 72.167969 331.246094 L 69.015625 331.246094 Z M 69.15625 332.6875 " fill-opacity="1" fill-rule="nonzero"/><path fill="#f87171" d="M 69.390625 335.128906 L 72.542969 335.128906 L 72.414062 333.6875 L 69.25 333.6875 Z M 69.390625 335.128906 " fill-opacity="1" fill-rule="nonzero"/><g clip-path="url(#2d5c0ba481)"><path fill="#f87171" d="M 26.753906 340.25 L 103.273438 340.25 L 103.273438 341.375 L 26.753906 341.375 Z M 26.753906 340.25 " fill-opacity="1" fill-rule="nonzero"/></g><g clip-path="url(#5a87eee6d5)"><path fill="#f87171" d="M 127.816406 263.402344 L 106.644531 263.402344 C 105.59375 263.402344 104.742188 264.257812 104.742188 265.304688 L 104.742188 338.902344 C 104.742188 339.949219 105.59375 340.804688 106.644531 340.804688 L 127.816406 340.804688 C 128.863281 340.804688 129.714844 339.949219 129.714844 338.902344 L 129.714844 265.3125 C 129.714844 264.257812 128.863281 263.402344 127.816406 263.402344 Z M 117.230469 333.128906 C 116.601562 333.128906 116.085938 332.613281 116.085938 331.984375 C 116.085938 331.359375 116.601562 330.84375 117.230469 330.84375 C 117.855469 330.84375 118.371094 331.359375 118.371094 331.984375 C 118.371094 332.613281 117.855469 333.128906 117.230469 333.128906 Z M 117.230469 326.988281 C 115.964844 326.988281 114.945312 325.96875 114.945312 324.703125 C 114.945312 323.441406 115.964844 322.417969 117.230469 322.417969 C 118.492188 322.417969 119.511719 323.441406 119.511719 324.703125 C 119.511719 325.96875 118.484375 326.988281 117.230469 326.988281 Z M 126.335938 298.34375 L 108.121094 298.34375 C 107.550781 298.34375 107.082031 297.878906 107.082031 297.304688 C 107.082031 296.734375 107.550781 296.265625 108.121094 296.265625 L 126.335938 296.265625 C 126.90625 296.265625 127.375 296.734375 127.375 297.304688 C 127.375 297.878906 126.90625 298.34375 126.335938 298.34375 Z M 126.335938 294.65625 L 108.121094 294.65625 C 107.550781 294.65625 107.082031 294.191406 107.082031 293.617188 C 107.082031 293.046875 107.550781 292.578125 108.121094 292.578125 L 126.335938 292.578125 C 126.90625 292.578125 127.375 293.046875 127.375 293.617188 C 127.375 294.191406 126.90625 294.65625 126.335938 294.65625 Z M 126.335938 290.96875 L 108.121094 290.96875 C 107.550781 290.96875 107.082031 290.5 107.082031 289.929688 C 107.082031 289.359375 107.550781 288.890625 108.121094 288.890625 L 126.335938 288.890625 C 126.90625 288.890625 127.375 289.359375 127.375 289.929688 C 127.375 290.5 126.90625 290.96875 126.335938 290.96875 Z M 126.335938 287.292969 L 108.121094 287.292969 C 107.550781 287.292969 107.082031 286.824219 107.082031 286.253906 C 107.082031 285.679688 107.550781 285.214844 108.121094 285.214844 L 126.335938 285.214844 C 126.90625 285.214844 127.375 285.679688 127.375 286.253906 C 127.375 286.824219 126.90625 287.292969 126.335938 287.292969 Z M 126.851562 272.425781 L 107.597656 272.425781 C 107.308594 272.425781 107.074219 272.195312 107.074219 271.902344 C 107.074219 271.613281 107.308594 271.378906 107.597656 271.378906 L 126.851562 271.378906 C 127.140625 271.378906 127.375 271.613281 127.375 271.902344 C 127.375 272.195312 127.140625 272.425781 126.851562 272.425781 Z M 126.851562 269.375 L 107.597656 269.375 C 107.308594 269.375 107.074219 269.140625 107.074219 268.851562 C 107.074219 268.5625 107.308594 268.328125 107.597656 268.328125 L 126.851562 268.328125 C 127.140625 268.328125 127.375 268.5625 127.375 268.851562 C 127.375 269.140625 127.140625 269.375 126.851562 269.375 Z M 126.851562 269.375 " fill-opacity="1" fill-rule="nonzero"/></g><path fill="#8e99a2" d="M 225.621094 199.453125 C 225.621094 197.484375 224.019531 195.882812 222.050781 195.882812 L 220.265625 195.882812 L 220.265625 192.3125 L 222.050781 192.3125 C 224.019531 192.3125 225.621094 190.707031 225.621094 188.738281 L 225.621094 174.453125 C 225.621094 172.484375 224.019531 170.878906 222.050781 170.878906 L 175.617188 170.878906 C 173.648438 170.878906 172.046875 172.484375 172.046875 174.453125 L 172.046875 188.738281 C 172.046875 190.707031 173.648438 192.3125 175.617188 192.3125 L 177.40625 192.3125 L 177.40625 195.882812 L 175.617188 195.882812 C 173.648438 195.882812 172.046875 197.484375 172.046875 199.453125 L 172.046875 213.742188 C 172.046875 215.710938 173.648438 217.3125 175.617188 217.3125 L 222.050781 217.3125 C 224.019531 217.3125 225.621094 215.710938 225.621094 213.742188 Z M 175.617188 174.453125 L 222.050781 174.453125 L 222.050781 188.738281 L 175.617188 188.738281 Z M 180.976562 192.3125 L 216.691406 192.3125 L 216.691406 195.882812 L 180.976562 195.882812 Z M 175.617188 213.742188 L 175.617188 199.453125 L 222.050781 199.453125 L 222.050781 213.742188 Z M 175.617188 213.742188 " fill-opacity="1" fill-rule="nonzero"/><path fill="#8e99a2" d="M 182.761719 183.382812 L 193.476562 183.382812 C 194.464844 183.382812 195.261719 182.582031 195.261719 181.59375 C 195.261719 180.609375 194.464844 179.808594 193.476562 179.808594 L 182.761719 179.808594 C 181.777344 179.808594 180.976562 180.609375 180.976562 181.59375 C 180.976562 182.582031 181.777344 183.382812 182.761719 183.382812 Z M 182.761719 183.382812 " fill-opacity="1" fill-rule="nonzero"/><path fill="#8e99a2" d="M 202.40625 181.59375 C 202.40625 181.832031 202.359375 182.058594 202.269531 182.277344 C 202.179688 182.496094 202.050781 182.691406 201.882812 182.859375 C 201.714844 183.027344 201.523438 183.15625 201.304688 183.246094 C 201.085938 183.335938 200.859375 183.382812 200.621094 183.382812 C 200.382812 183.382812 200.15625 183.335938 199.9375 183.246094 C 199.71875 183.15625 199.523438 183.027344 199.359375 182.859375 C 199.191406 182.691406 199.0625 182.496094 198.972656 182.277344 C 198.878906 182.058594 198.835938 181.832031 198.835938 181.59375 C 198.835938 181.359375 198.878906 181.132812 198.972656 180.914062 C 199.0625 180.695312 199.191406 180.5 199.359375 180.332031 C 199.523438 180.164062 199.71875 180.035156 199.9375 179.945312 C 200.15625 179.855469 200.382812 179.808594 200.621094 179.808594 C 200.859375 179.808594 201.085938 179.855469 201.304688 179.945312 C 201.523438 180.035156 201.714844 180.164062 201.882812 180.332031 C 202.050781 180.5 202.179688 180.695312 202.269531 180.914062 C 202.359375 181.132812 202.40625 181.359375 202.40625 181.59375 Z M 202.40625 181.59375 " fill-opacity="1" fill-rule="nonzero"/><path fill="#8e99a2" d="M 209.550781 181.59375 C 209.550781 181.832031 209.503906 182.058594 209.414062 182.277344 C 209.324219 182.496094 209.195312 182.691406 209.027344 182.859375 C 208.859375 183.027344 208.667969 183.15625 208.449219 183.246094 C 208.230469 183.335938 208 183.382812 207.765625 183.382812 C 207.527344 183.382812 207.300781 183.335938 207.082031 183.246094 C 206.863281 183.15625 206.667969 183.027344 206.5 182.859375 C 206.332031 182.691406 206.203125 182.496094 206.113281 182.277344 C 206.023438 182.058594 205.976562 181.832031 205.976562 181.59375 C 205.976562 181.359375 206.023438 181.132812 206.113281 180.914062 C 206.203125 180.695312 206.332031 180.5 206.5 180.332031 C 206.667969 180.164062 206.863281 180.035156 207.082031 179.945312 C 207.300781 179.855469 207.527344 179.808594 207.765625 179.808594 C 208 179.808594 208.230469 179.855469 208.449219 179.945312 C 208.667969 180.035156 208.859375 180.164062 209.027344 180.332031 C 209.195312 180.5 209.324219 180.695312 209.414062 180.914062 C 209.503906 181.132812 209.550781 181.359375 209.550781 181.59375 Z M 209.550781 181.59375 " fill-opacity="1" fill-rule="nonzero"/><path fill="#8e99a2" d="M 193.476562 204.8125 L 182.761719 204.8125 C 181.777344 204.8125 180.976562 205.609375 180.976562 206.597656 C 180.976562 207.582031 181.777344 208.382812 182.761719 208.382812 L 193.476562 208.382812 C 194.464844 208.382812 195.261719 207.582031 195.261719 206.597656 C 195.261719 205.609375 194.464844 204.8125 193.476562 204.8125 Z M 193.476562 204.8125 " fill-opacity="1" fill-rule="nonzero"/><path fill="#8e99a2" d="M 202.40625 206.597656 C 202.40625 206.835938 202.359375 207.0625 202.269531 207.28125 C 202.179688 207.5 202.050781 207.691406 201.882812 207.859375 C 201.714844 208.027344 201.523438 208.15625 201.304688 208.246094 C 201.085938 208.335938 200.859375 208.382812 200.621094 208.382812 C 200.382812 208.382812 200.15625 208.335938 199.9375 208.246094 C 199.71875 208.15625 199.523438 208.027344 199.359375 207.859375 C 199.191406 207.691406 199.0625 207.5 198.972656 207.28125 C 198.878906 207.0625 198.835938 206.835938 198.835938 206.597656 C 198.835938 206.359375 198.878906 206.132812 198.972656 205.914062 C 199.0625 205.695312 199.191406 205.5 199.359375 205.335938 C 199.523438 205.167969 199.71875 205.039062 199.9375 204.949219 C 200.15625 204.855469 200.382812 204.8125 200.621094 204.8125 C 200.859375 204.8125 201.085938 204.855469 201.304688 204.949219 C 201.523438 205.039062 201.714844 205.167969 201.882812 205.335938 C 202.050781 205.5 202.179688 205.695312 202.269531 205.914062 C 202.359375 206.132812 202.40625 206.359375 202.40625 206.597656 Z M 202.40625 206.597656 " fill-opacity="1" fill-rule="nonzero"/><path fill="#8e99a2" d="M 209.550781 206.597656 C 209.550781 206.835938 209.503906 207.0625 209.414062 207.28125 C 209.324219 207.5 209.195312 207.691406 209.027344 207.859375 C 208.859375 208.027344 208.667969 208.15625 208.449219 208.246094 C 208.230469 208.335938 208 208.382812 207.765625 208.382812 C 207.527344 208.382812 207.300781 208.335938 207.082031 208.246094 C 206.863281 208.15625 206.667969 208.027344 206.5 207.859375 C 206.332031 207.691406 206.203125 207.5 206.113281 207.28125 C 206.023438 207.0625 205.976562 206.835938 205.976562 206.597656 C 205.976562 206.359375 206.023438 206.132812 206.113281 205.914062 C 206.203125 205.695312 206.332031 205.5 206.5 205.335938 C 206.667969 205.167969 206.863281 205.039062 207.082031 204.949219 C 207.300781 204.855469 207.527344 204.8125 207.765625 204.8125 C 208 204.8125 208.230469 204.855469 208.449219 204.949219 C 208.667969 205.039062 208.859375 205.167969 209.027344 205.335938 C 209.195312 205.5 209.324219 205.695312 209.414062 205.914062 C 209.503906 206.132812 209.550781 206.359375 209.550781 206.597656 Z M 209.550781 206.597656 " fill-opacity="1" fill-rule="nonzero"/><g clip-path="url(#7ac624c8f3)"><path fill="#8e99a2" d="M 147.046875 158.378906 L 157.761719 158.378906 C 158.585938 158.378906 159.359375 158.175781 160.058594 157.839844 C 160.0625 157.847656 160.066406 157.851562 160.070312 157.855469 L 169 166.785156 C 169.347656 167.132812 169.804688 167.308594 170.261719 167.308594 C 170.71875 167.308594 171.175781 167.132812 171.523438 166.785156 C 172.222656 166.085938 172.222656 164.957031 171.523438 164.257812 L 162.59375 155.332031 C 162.589844 155.328125 162.585938 155.324219 162.578125 155.320312 C 162.914062 154.621094 163.117188 153.847656 163.117188 153.023438 L 163.117188 142.308594 C 163.117188 139.351562 160.714844 136.949219 157.761719 136.949219 L 147.046875 136.949219 C 144.089844 136.949219 141.6875 139.351562 141.6875 142.308594 L 141.6875 153.023438 C 141.6875 155.976562 144.089844 158.378906 147.046875 158.378906 Z M 145.261719 142.308594 C 145.261719 141.324219 146.0625 140.523438 147.046875 140.523438 L 157.761719 140.523438 C 158.746094 140.523438 159.546875 141.324219 159.546875 142.308594 L 159.546875 153.023438 C 159.546875 154.007812 158.746094 154.808594 157.761719 154.808594 L 147.046875 154.808594 C 146.0625 154.808594 145.261719 154.007812 145.261719 153.023438 Z M 145.261719 142.308594 " fill-opacity="1" fill-rule="nonzero"/></g><g clip-path="url(#486ffd96b3)"><path fill="#8e99a2" d="M 250.625 136.949219 L 239.910156 136.949219 C 236.953125 136.949219 234.550781 139.351562 234.550781 142.308594 L 234.550781 153.023438 C 234.550781 153.847656 234.753906 154.621094 235.089844 155.320312 C 235.085938 155.324219 235.078125 155.328125 235.074219 155.332031 L 226.144531 164.261719 C 225.449219 164.957031 225.449219 166.089844 226.144531 166.785156 C 226.496094 167.132812 226.953125 167.308594 227.40625 167.308594 C 227.863281 167.308594 228.320312 167.132812 228.671875 166.785156 L 237.601562 157.855469 C 237.605469 157.851562 237.605469 157.847656 237.609375 157.839844 C 238.308594 158.175781 239.082031 158.378906 239.910156 158.378906 L 250.625 158.378906 C 253.578125 158.378906 255.980469 155.976562 255.980469 153.023438 L 255.980469 142.308594 C 255.980469 139.351562 253.578125 136.949219 250.625 136.949219 Z M 252.410156 153.023438 C 252.410156 154.007812 251.609375 154.808594 250.625 154.808594 L 239.910156 154.808594 C 238.921875 154.808594 238.125 154.007812 238.125 153.023438 L 238.125 142.308594 C 238.125 141.324219 238.921875 140.523438 239.910156 140.523438 L 250.625 140.523438 C 251.609375 140.523438 252.410156 141.324219 252.410156 142.308594 Z M 252.410156 153.023438 " fill-opacity="1" fill-rule="nonzero"/></g><g clip-path="url(#498eca2a7b)"><path fill="#8e99a2" d="M 250.625 229.8125 L 239.910156 229.8125 C 239.082031 229.8125 238.308594 230.015625 237.609375 230.351562 C 237.605469 230.347656 237.605469 230.339844 237.601562 230.335938 L 228.667969 221.40625 C 227.972656 220.707031 226.839844 220.707031 226.144531 221.40625 C 225.445312 222.105469 225.445312 223.234375 226.144531 223.929688 L 235.074219 232.863281 C 235.078125 232.867188 235.085938 232.867188 235.089844 232.871094 C 234.753906 233.570312 234.550781 234.34375 234.550781 235.171875 L 234.550781 245.886719 C 234.550781 248.839844 236.953125 251.242188 239.910156 251.242188 L 250.625 251.242188 C 253.578125 251.242188 255.980469 248.839844 255.980469 245.886719 L 255.980469 235.171875 C 255.980469 232.214844 253.578125 229.8125 250.625 229.8125 Z M 252.410156 245.886719 C 252.410156 246.871094 251.609375 247.671875 250.625 247.671875 L 239.910156 247.671875 C 238.921875 247.671875 238.125 246.871094 238.125 245.886719 L 238.125 235.171875 C 238.125 234.1875 238.921875 233.382812 239.910156 233.382812 L 250.625 233.382812 C 251.609375 233.382812 252.410156 234.1875 252.410156 235.171875 Z M 252.410156 245.886719 " fill-opacity="1" fill-rule="nonzero"/></g><g clip-path="url(#4f00a042cf)"><path fill="#8e99a2" d="M 169 221.40625 L 160.070312 230.335938 C 160.066406 230.339844 160.0625 230.347656 160.058594 230.351562 C 159.359375 230.015625 158.585938 229.8125 157.761719 229.8125 L 147.046875 229.8125 C 144.089844 229.8125 141.6875 232.214844 141.6875 235.171875 L 141.6875 245.886719 C 141.6875 248.839844 144.089844 251.242188 147.046875 251.242188 L 157.761719 251.242188 C 160.714844 251.242188 163.117188 248.839844 163.117188 245.886719 L 163.117188 235.171875 C 163.117188 234.34375 162.914062 233.570312 162.578125 232.871094 C 162.585938 232.867188 162.589844 232.867188 162.59375 232.863281 L 171.523438 223.933594 C 172.222656 223.234375 172.222656 222.105469 171.523438 221.40625 C 170.828125 220.710938 169.695312 220.710938 169 221.40625 Z M 159.546875 245.886719 C 159.546875 246.871094 158.746094 247.671875 157.761719 247.671875 L 147.046875 247.671875 C 146.0625 247.671875 145.261719 246.871094 145.261719 245.886719 L 145.261719 235.171875 C 145.261719 234.1875 146.0625 233.382812 147.046875 233.382812 L 157.761719 233.382812 C 158.746094 233.382812 159.546875 234.1875 159.546875 235.171875 Z M 159.546875 245.886719 " fill-opacity="1" fill-rule="nonzero"/></g><path fill="#8e99a2" d="M 195.261719 156.59375 L 197.050781 156.59375 L 197.050781 165.523438 C 197.050781 166.507812 197.847656 167.308594 198.835938 167.308594 C 199.820312 167.308594 200.621094 166.507812 200.621094 165.523438 L 200.621094 156.59375 L 202.40625 156.59375 C 205.359375 156.59375 207.765625 154.191406 207.765625 151.238281 L 207.765625 144.09375 C 207.765625 141.140625 205.359375 138.734375 202.40625 138.734375 L 195.261719 138.734375 C 192.308594 138.734375 189.90625 141.140625 189.90625 144.09375 L 189.90625 151.238281 C 189.90625 154.191406 192.308594 156.59375 195.261719 156.59375 Z M 193.476562 144.09375 C 193.476562 143.109375 194.277344 142.308594 195.261719 142.308594 L 202.40625 142.308594 C 203.390625 142.308594 204.191406 143.109375 204.191406 144.09375 L 204.191406 151.238281 C 204.191406 152.222656 203.390625 153.023438 202.40625 153.023438 L 195.261719 153.023438 C 194.277344 153.023438 193.476562 152.222656 193.476562 151.238281 Z M 193.476562 144.09375 " fill-opacity="1" fill-rule="nonzero"/><path fill="#8e99a2" d="M 155.976562 185.167969 L 148.832031 185.167969 C 145.878906 185.167969 143.472656 187.570312 143.472656 190.523438 L 143.472656 197.667969 C 143.472656 200.621094 145.878906 203.027344 148.832031 203.027344 L 155.976562 203.027344 C 158.929688 203.027344 161.332031 200.621094 161.332031 197.667969 L 161.332031 195.882812 L 166.6875 195.882812 C 167.675781 195.882812 168.476562 195.082031 168.476562 194.097656 C 168.476562 193.109375 167.675781 192.3125 166.6875 192.3125 L 161.332031 192.3125 L 161.332031 190.523438 C 161.332031 187.570312 158.929688 185.167969 155.976562 185.167969 Z M 157.761719 197.667969 C 157.761719 198.652344 156.960938 199.453125 155.976562 199.453125 L 148.832031 199.453125 C 147.847656 199.453125 147.046875 198.652344 147.046875 197.667969 L 147.046875 190.523438 C 147.046875 189.539062 147.847656 188.738281 148.832031 188.738281 L 155.976562 188.738281 C 156.960938 188.738281 157.761719 189.539062 157.761719 190.523438 Z M 157.761719 197.667969 " fill-opacity="1" fill-rule="nonzero"/><path fill="#8e99a2" d="M 202.40625 231.597656 L 200.621094 231.597656 L 200.621094 222.667969 C 200.621094 221.683594 199.820312 220.882812 198.835938 220.882812 C 197.847656 220.882812 197.050781 221.683594 197.050781 222.667969 L 197.050781 231.597656 L 195.261719 231.597656 C 192.308594 231.597656 189.90625 234.003906 189.90625 236.957031 L 189.90625 244.097656 C 189.90625 247.054688 192.308594 249.457031 195.261719 249.457031 L 202.40625 249.457031 C 205.359375 249.457031 207.765625 247.054688 207.765625 244.097656 L 207.765625 236.957031 C 207.765625 234.003906 205.359375 231.597656 202.40625 231.597656 Z M 204.191406 244.097656 C 204.191406 245.085938 203.390625 245.886719 202.40625 245.886719 L 195.261719 245.886719 C 194.277344 245.886719 193.476562 245.085938 193.476562 244.097656 L 193.476562 236.957031 C 193.476562 235.972656 194.277344 235.171875 195.261719 235.171875 L 202.40625 235.171875 C 203.390625 235.171875 204.191406 235.972656 204.191406 236.957031 Z M 204.191406 244.097656 " fill-opacity="1" fill-rule="nonzero"/><path fill="#8e99a2" d="M 241.695312 203.027344 L 248.839844 203.027344 C 251.792969 203.027344 254.195312 200.621094 254.195312 197.667969 L 254.195312 190.523438 C 254.195312 187.570312 251.792969 185.167969 248.839844 185.167969 L 241.695312 185.167969 C 238.742188 185.167969 236.335938 187.570312 236.335938 190.523438 L 236.335938 192.3125 L 230.976562 192.3125 C 229.992188 192.3125 229.191406 193.109375 229.191406 194.097656 C 229.191406 195.082031 229.992188 195.882812 230.976562 195.882812 L 236.335938 195.882812 L 236.335938 197.667969 C 236.335938 200.621094 238.742188 203.027344 241.695312 203.027344 Z M 239.910156 190.523438 C 239.910156 189.539062 240.710938 188.738281 241.695312 188.738281 L 248.839844 188.738281 C 249.824219 188.738281 250.625 189.539062 250.625 190.523438 L 250.625 197.667969 C 250.625 198.652344 249.824219 199.453125 248.839844 199.453125 L 241.695312 199.453125 C 240.710938 199.453125 239.910156 198.652344 239.910156 197.667969 Z M 239.910156 190.523438 " fill-opacity="1" fill-rule="nonzero"/></svg>