<svg xmlns="http://www.w3.org/2000/svg" xmlns:xlink="http://www.w3.org/1999/xlink" width="500" zoomAndPan="magnify" viewBox="0 0 375 374.999991" height="500" preserveAspectRatio="xMidYMid meet" version="1.0"><defs><g/></defs><g fill="#ef4444" fill-opacity="1"><g transform="translate(20.498054, 205.502917)"><g><path d="M 15.359375 -31.15625 L 15.359375 -30.265625 C 14.359375 -30.242188 13.597656 -30.132812 13.078125 -29.9375 C 12.566406 -29.75 12.222656 -29.394531 12.046875 -28.875 C 11.878906 -28.363281 11.796875 -27.566406 11.796875 -26.484375 L 11.796875 -4.140625 C 11.796875 -3.222656 11.859375 -2.546875 11.984375 -2.109375 C 12.117188 -1.671875 12.382812 -1.378906 12.78125 -1.234375 C 13.175781 -1.085938 13.769531 -1.015625 14.5625 -1.015625 L 16.71875 -1.015625 C 17.71875 -1.015625 18.65625 -1.25 19.53125 -1.71875 C 20.414062 -2.1875 21.207031 -2.851562 21.90625 -3.71875 C 22.613281 -4.582031 23.203125 -5.613281 23.671875 -6.8125 C 24.140625 -8.019531 24.492188 -9.359375 24.734375 -10.828125 L 25.734375 -10.828125 C 25.648438 -9.828125 25.609375 -8.535156 25.609375 -6.953125 C 25.609375 -6.273438 25.625 -5.289062 25.65625 -4 C 25.6875 -2.707031 25.773438 -1.375 25.921875 0 C 24.421875 -0.0625 22.734375 -0.0976562 20.859375 -0.109375 C 18.984375 -0.117188 17.3125 -0.125 15.84375 -0.125 C 15.101562 -0.125 14.160156 -0.125 13.015625 -0.125 C 11.878906 -0.125 10.648438 -0.117188 9.328125 -0.109375 C 8.003906 -0.0976562 6.664062 -0.0820312 5.3125 -0.0625 C 3.96875 -0.0507812 2.695312 -0.03125 1.5 0 L 1.5 -0.875 C 2.4375 -0.9375 3.140625 -1.054688 3.609375 -1.234375 C 4.078125 -1.410156 4.390625 -1.757812 4.546875 -2.28125 C 4.710938 -2.8125 4.796875 -3.601562 4.796875 -4.65625 L 4.796875 -26.484375 C 4.796875 -27.566406 4.710938 -28.363281 4.546875 -28.875 C 4.390625 -29.394531 4.066406 -29.75 3.578125 -29.9375 C 3.097656 -30.132812 2.40625 -30.242188 1.5 -30.265625 L 1.5 -31.15625 C 2.226562 -31.125 3.21875 -31.09375 4.46875 -31.0625 C 5.71875 -31.03125 7.046875 -31.015625 8.453125 -31.015625 C 9.742188 -31.015625 11.007812 -31.03125 12.25 -31.0625 C 13.5 -31.09375 14.535156 -31.125 15.359375 -31.15625 Z M 15.359375 -31.15625 "/></g></g></g><g fill="#ef4444" fill-opacity="1"><g transform="translate(47.37726, 205.502917)"><g><path d="M 17.46875 -31.765625 C 20.570312 -31.765625 23.289062 -31.132812 25.625 -29.875 C 27.957031 -28.613281 29.769531 -26.800781 31.0625 -24.4375 C 32.351562 -22.082031 33 -19.21875 33 -15.84375 C 33 -12.550781 32.335938 -9.671875 31.015625 -7.203125 C 29.703125 -4.742188 27.863281 -2.828125 25.5 -1.453125 C 23.132812 -0.078125 20.441406 0.609375 17.421875 0.609375 C 14.316406 0.609375 11.597656 -0.0195312 9.265625 -1.28125 C 6.929688 -2.539062 5.117188 -4.359375 3.828125 -6.734375 C 2.535156 -9.109375 1.890625 -11.96875 1.890625 -15.3125 C 1.890625 -18.59375 2.554688 -21.460938 3.890625 -23.921875 C 5.222656 -26.390625 7.054688 -28.3125 9.390625 -29.6875 C 11.722656 -31.070312 14.414062 -31.765625 17.46875 -31.765625 Z M 17.296875 -30.96875 C 15.648438 -30.96875 14.21875 -30.304688 13 -28.984375 C 11.78125 -27.671875 10.84375 -25.851562 10.1875 -23.53125 C 9.53125 -21.21875 9.203125 -18.535156 9.203125 -15.484375 C 9.203125 -12.378906 9.570312 -9.675781 10.3125 -7.375 C 11.0625 -5.070312 12.070312 -3.296875 13.34375 -2.046875 C 14.625 -0.796875 16.039062 -0.171875 17.59375 -0.171875 C 19.238281 -0.171875 20.671875 -0.832031 21.890625 -2.15625 C 23.109375 -3.476562 24.046875 -5.300781 24.703125 -7.625 C 25.367188 -9.957031 25.703125 -12.632812 25.703125 -15.65625 C 25.703125 -18.800781 25.328125 -21.515625 24.578125 -23.796875 C 23.828125 -26.085938 22.8125 -27.851562 21.53125 -29.09375 C 20.257812 -30.34375 18.847656 -30.96875 17.296875 -30.96875 Z M 17.296875 -30.96875 "/></g></g></g><g fill="#ef4444" fill-opacity="1"><g transform="translate(82.263038, 205.502917)"><g><path d="M 12.5 -31.71875 C 14.226562 -31.71875 15.5625 -31.535156 16.5 -31.171875 C 17.4375 -30.804688 18.242188 -30.421875 18.921875 -30.015625 C 19.273438 -29.804688 19.5625 -29.648438 19.78125 -29.546875 C 20 -29.441406 20.210938 -29.390625 20.421875 -29.390625 C 20.710938 -29.390625 20.921875 -29.550781 21.046875 -29.875 C 21.179688 -30.195312 21.296875 -30.679688 21.390625 -31.328125 L 22.390625 -31.328125 C 22.367188 -30.765625 22.332031 -30.09375 22.28125 -29.3125 C 22.238281 -28.539062 22.207031 -27.523438 22.1875 -26.265625 C 22.175781 -25.003906 22.171875 -23.347656 22.171875 -21.296875 L 21.15625 -21.296875 C 21.039062 -22.816406 20.691406 -24.296875 20.109375 -25.734375 C 19.523438 -27.171875 18.695312 -28.351562 17.625 -29.28125 C 16.550781 -30.207031 15.238281 -30.671875 13.6875 -30.671875 C 12.28125 -30.671875 11.117188 -30.273438 10.203125 -29.484375 C 9.296875 -28.691406 8.84375 -27.59375 8.84375 -26.1875 C 8.84375 -25.007812 9.132812 -24 9.71875 -23.15625 C 10.3125 -22.320312 11.171875 -21.507812 12.296875 -20.71875 C 13.421875 -19.925781 14.789062 -18.972656 16.40625 -17.859375 C 17.820312 -16.953125 19.085938 -16.039062 20.203125 -15.125 C 21.316406 -14.21875 22.207031 -13.191406 22.875 -12.046875 C 23.550781 -10.910156 23.890625 -9.550781 23.890625 -7.96875 C 23.890625 -6.03125 23.382812 -4.429688 22.375 -3.171875 C 21.363281 -1.910156 20.035156 -0.960938 18.390625 -0.328125 C 16.742188 0.296875 14.941406 0.609375 12.984375 0.609375 C 11.160156 0.609375 9.707031 0.429688 8.625 0.078125 C 7.539062 -0.265625 6.628906 -0.628906 5.890625 -1.015625 C 5.242188 -1.421875 4.75 -1.625 4.40625 -1.625 C 4.101562 -1.625 3.882812 -1.460938 3.75 -1.140625 C 3.625 -0.816406 3.519531 -0.332031 3.4375 0.3125 L 2.421875 0.3125 C 2.484375 -0.394531 2.519531 -1.21875 2.53125 -2.15625 C 2.539062 -3.09375 2.550781 -4.316406 2.5625 -5.828125 C 2.582031 -7.335938 2.59375 -9.253906 2.59375 -11.578125 L 3.609375 -11.578125 C 3.722656 -9.640625 4.050781 -7.828125 4.59375 -6.140625 C 5.132812 -4.453125 5.96875 -3.09375 7.09375 -2.0625 C 8.226562 -1.039062 9.734375 -0.53125 11.609375 -0.53125 C 12.640625 -0.53125 13.554688 -0.710938 14.359375 -1.078125 C 15.171875 -1.441406 15.828125 -1.988281 16.328125 -2.71875 C 16.828125 -3.457031 17.078125 -4.367188 17.078125 -5.453125 C 17.078125 -6.679688 16.789062 -7.75 16.21875 -8.65625 C 15.644531 -9.570312 14.863281 -10.425781 13.875 -11.21875 C 12.894531 -12.007812 11.757812 -12.816406 10.46875 -13.640625 C 9.09375 -14.546875 7.800781 -15.453125 6.59375 -16.359375 C 5.394531 -17.273438 4.4375 -18.316406 3.71875 -19.484375 C 3 -20.660156 2.640625 -22.054688 2.640625 -23.671875 C 2.640625 -25.515625 3.097656 -27.03125 4.015625 -28.21875 C 4.941406 -29.414062 6.160156 -30.296875 7.671875 -30.859375 C 9.179688 -31.429688 10.789062 -31.71875 12.5 -31.71875 Z M 12.5 -31.71875 "/></g></g></g><g fill="#ef4444" fill-opacity="1"><g transform="translate(107.954462, 205.502917)"><g><path d="M 28.25 -31.15625 C 28.132812 -29.65625 28.050781 -28.210938 28 -26.828125 C 27.957031 -25.453125 27.9375 -24.398438 27.9375 -23.671875 C 27.9375 -23.023438 27.953125 -22.40625 27.984375 -21.8125 C 28.015625 -21.226562 28.046875 -20.734375 28.078125 -20.328125 L 27.0625 -20.328125 C 26.59375 -22.796875 26 -24.75 25.28125 -26.1875 C 24.5625 -27.625 23.703125 -28.640625 22.703125 -29.234375 C 21.703125 -29.835938 20.53125 -30.140625 19.1875 -30.140625 L 18.171875 -30.140625 L 18.171875 -5.015625 C 18.171875 -3.835938 18.296875 -2.957031 18.546875 -2.375 C 18.796875 -1.789062 19.253906 -1.398438 19.921875 -1.203125 C 20.597656 -1.015625 21.582031 -0.90625 22.875 -0.875 L 22.875 0 C 21.96875 -0.03125 20.757812 -0.0546875 19.25 -0.078125 C 17.738281 -0.109375 16.160156 -0.125 14.515625 -0.125 C 12.898438 -0.125 11.375 -0.109375 9.9375 -0.078125 C 8.5 -0.0546875 7.34375 -0.03125 6.46875 0 L 6.46875 -0.875 C 7.789062 -0.90625 8.785156 -1.015625 9.453125 -1.203125 C 10.128906 -1.398438 10.582031 -1.789062 10.8125 -2.375 C 11.050781 -2.957031 11.171875 -3.835938 11.171875 -5.015625 L 11.171875 -30.140625 L 10.203125 -30.140625 C 8.859375 -30.140625 7.6875 -29.835938 6.6875 -29.234375 C 5.6875 -28.640625 4.832031 -27.628906 4.125 -26.203125 C 3.425781 -24.773438 2.8125 -22.816406 2.28125 -20.328125 L 1.28125 -20.328125 C 1.332031 -20.734375 1.363281 -21.226562 1.375 -21.8125 C 1.394531 -22.40625 1.40625 -23.023438 1.40625 -23.671875 C 1.40625 -24.398438 1.382812 -25.453125 1.34375 -26.828125 C 1.300781 -28.210938 1.21875 -29.65625 1.09375 -31.15625 C 2.445312 -31.125 3.921875 -31.09375 5.515625 -31.0625 C 7.117188 -31.03125 8.726562 -31.015625 10.34375 -31.015625 C 11.957031 -31.015625 13.410156 -31.015625 14.703125 -31.015625 C 16.015625 -31.015625 17.46875 -31.015625 19.0625 -31.015625 C 20.664062 -31.015625 22.273438 -31.03125 23.890625 -31.0625 C 25.503906 -31.09375 26.957031 -31.125 28.25 -31.15625 Z M 28.25 -31.15625 "/></g></g></g><g fill="#ef4444" fill-opacity="1"><g transform="translate(137.341228, 205.502917)"><g/></g></g><g fill="#ef4444" fill-opacity="1"><g transform="translate(147.591403, 205.502917)"><g><path d="M 14.515625 -31.234375 C 15.660156 -31.234375 16.582031 -31.148438 17.28125 -30.984375 C 17.988281 -30.828125 18.59375 -30.601562 19.09375 -30.3125 C 19.5625 -30.113281 19.992188 -29.851562 20.390625 -29.53125 C 20.785156 -29.207031 21.113281 -28.804688 21.375 -28.328125 C 21.644531 -27.859375 21.78125 -27.332031 21.78125 -26.75 C 21.78125 -25.875 21.441406 -25.171875 20.765625 -24.640625 C 20.085938 -24.109375 19.296875 -23.84375 18.390625 -23.84375 C 17.515625 -23.84375 16.757812 -24.0625 16.125 -24.5 C 15.5 -24.945312 15.1875 -25.640625 15.1875 -26.578125 C 15.1875 -27.304688 15.445312 -27.972656 15.96875 -28.578125 C 16.5 -29.179688 17.175781 -29.554688 18 -29.703125 C 17.789062 -29.929688 17.414062 -30.117188 16.875 -30.265625 C 16.332031 -30.410156 15.738281 -30.484375 15.09375 -30.484375 C 13.5625 -30.484375 12.257812 -30.003906 11.1875 -29.046875 C 10.125 -28.097656 9.59375 -26.660156 9.59375 -24.734375 C 9.59375 -24.054688 9.707031 -23.332031 9.9375 -22.5625 C 10.175781 -21.800781 10.632812 -21.023438 11.3125 -20.234375 C 11.8125 -20.359375 12.269531 -20.445312 12.6875 -20.5 C 13.113281 -20.5625 13.472656 -20.59375 13.765625 -20.59375 C 14.296875 -20.59375 14.703125 -20.484375 14.984375 -20.265625 C 15.265625 -20.046875 15.40625 -19.757812 15.40625 -19.40625 C 15.40625 -19.144531 15.285156 -18.925781 15.046875 -18.75 C 14.816406 -18.570312 14.523438 -18.484375 14.171875 -18.484375 C 13.671875 -18.484375 13.15625 -18.617188 12.625 -18.890625 C 12.101562 -19.171875 11.679688 -19.414062 11.359375 -19.625 C 9.972656 -18.914062 8.847656 -18.007812 7.984375 -16.90625 C 7.117188 -15.8125 6.6875 -14.34375 6.6875 -12.5 C 6.6875 -10.5625 7.210938 -8.96875 8.265625 -7.71875 C 9.328125 -6.476562 10.816406 -5.539062 12.734375 -4.90625 C 14.660156 -4.269531 16.925781 -3.953125 19.53125 -3.953125 C 21 -3.953125 22.453125 -4.113281 23.890625 -4.4375 C 25.328125 -4.757812 26.625 -5.242188 27.78125 -5.890625 C 28.945312 -6.535156 29.878906 -7.332031 30.578125 -8.28125 C 31.285156 -9.238281 31.640625 -10.347656 31.640625 -11.609375 C 31.640625 -12.078125 31.570312 -12.671875 31.4375 -13.390625 C 31.300781 -14.109375 30.984375 -14.828125 30.484375 -15.546875 C 29.992188 -16.265625 29.175781 -16.863281 28.03125 -17.34375 L 28.34375 -17.734375 C 29.925781 -17.234375 31.125 -16.289062 31.9375 -14.90625 C 32.757812 -13.53125 33.171875 -11.945312 33.171875 -10.15625 C 33.171875 -8.101562 32.539062 -6.265625 31.28125 -4.640625 C 30.019531 -3.015625 28.253906 -1.734375 25.984375 -0.796875 C 23.710938 0.140625 21.050781 0.609375 18 0.609375 C 15.5625 0.609375 13.351562 0.363281 11.375 -0.125 C 9.394531 -0.625 7.691406 -1.347656 6.265625 -2.296875 C 4.847656 -3.253906 3.75 -4.40625 2.96875 -5.75 C 2.1875 -7.101562 1.796875 -8.632812 1.796875 -10.34375 C 1.796875 -11.976562 2.140625 -13.375 2.828125 -14.53125 C 3.523438 -15.695312 4.367188 -16.65625 5.359375 -17.40625 C 6.359375 -18.15625 7.359375 -18.734375 8.359375 -19.140625 C 9.359375 -19.546875 10.148438 -19.820312 10.734375 -19.96875 C 9.828125 -20.351562 9 -20.800781 8.25 -21.3125 C 7.5 -21.832031 6.894531 -22.441406 6.4375 -23.140625 C 5.988281 -23.847656 5.765625 -24.640625 5.765625 -25.515625 C 5.765625 -26.453125 6.015625 -27.28125 6.515625 -28 C 7.015625 -28.71875 7.679688 -29.3125 8.515625 -29.78125 C 9.347656 -30.25 10.285156 -30.609375 11.328125 -30.859375 C 12.367188 -31.109375 13.429688 -31.234375 14.515625 -31.234375 Z M 31.8125 -31.765625 C 33.894531 -31.765625 35.582031 -31.222656 36.875 -30.140625 C 38.164062 -29.054688 38.8125 -27.53125 38.8125 -25.5625 C 38.8125 -24.0625 38.453125 -22.796875 37.734375 -21.765625 C 37.015625 -20.742188 35.984375 -19.910156 34.640625 -19.265625 C 33.304688 -18.617188 31.71875 -18.109375 29.875 -17.734375 C 29.46875 -17.585938 28.953125 -17.414062 28.328125 -17.21875 C 27.710938 -17.03125 27.082031 -16.847656 26.4375 -16.671875 C 25.789062 -16.492188 25.164062 -16.316406 24.5625 -16.140625 C 23.96875 -15.972656 23.453125 -15.828125 23.015625 -15.703125 C 20.722656 -15.203125 18.960938 -14.632812 17.734375 -14 C 16.503906 -13.375 15.890625 -12.519531 15.890625 -11.4375 C 15.890625 -10.707031 16.128906 -10.078125 16.609375 -9.546875 C 17.097656 -9.015625 17.707031 -8.601562 18.4375 -8.3125 C 19.164062 -8.019531 19.898438 -7.875 20.640625 -7.875 C 20.835938 -7.875 21.050781 -7.894531 21.28125 -7.9375 C 21.519531 -7.988281 21.742188 -8.050781 21.953125 -8.125 C 22.160156 -8.195312 22.304688 -8.257812 22.390625 -8.3125 C 21.660156 -8.550781 21.113281 -8.925781 20.75 -9.4375 C 20.382812 -9.945312 20.203125 -10.539062 20.203125 -11.21875 C 20.203125 -12.15625 20.535156 -12.875 21.203125 -13.375 C 21.878906 -13.875 22.71875 -14.125 23.71875 -14.125 C 24.769531 -14.125 25.597656 -13.84375 26.203125 -13.28125 C 26.804688 -12.726562 27.109375 -12.007812 27.109375 -11.125 C 27.109375 -10.21875 26.828125 -9.460938 26.265625 -8.859375 C 25.710938 -8.265625 24.960938 -7.828125 24.015625 -7.546875 C 23.078125 -7.265625 22.023438 -7.125 20.859375 -7.125 C 19.710938 -7.125 18.632812 -7.328125 17.625 -7.734375 C 16.613281 -8.148438 15.804688 -8.773438 15.203125 -9.609375 C 14.597656 -10.453125 14.296875 -11.503906 14.296875 -12.765625 C 14.296875 -14.316406 14.691406 -15.613281 15.484375 -16.65625 C 16.273438 -17.695312 17.410156 -18.5625 18.890625 -19.25 C 20.378906 -19.9375 22.132812 -20.472656 24.15625 -20.859375 C 24.769531 -21.003906 25.453125 -21.171875 26.203125 -21.359375 C 26.953125 -21.546875 27.722656 -21.742188 28.515625 -21.953125 C 29.304688 -22.160156 30.039062 -22.378906 30.71875 -22.609375 C 32.820312 -23.140625 34.453125 -23.726562 35.609375 -24.375 C 36.773438 -25.019531 37.359375 -25.882812 37.359375 -26.96875 C 37.359375 -27.757812 37.113281 -28.457031 36.625 -29.0625 C 36.144531 -29.664062 35.519531 -30.132812 34.75 -30.46875 C 33.988281 -30.800781 33.203125 -30.96875 32.390625 -30.96875 C 32.117188 -30.96875 31.875 -30.953125 31.65625 -30.921875 C 31.4375 -30.898438 31.253906 -30.84375 31.109375 -30.75 C 31.835938 -30.488281 32.378906 -30.09375 32.734375 -29.5625 C 33.085938 -29.039062 33.265625 -28.515625 33.265625 -27.984375 C 33.265625 -27.078125 32.925781 -26.378906 32.25 -25.890625 C 31.570312 -25.410156 30.738281 -25.171875 29.75 -25.171875 C 28.75 -25.171875 27.925781 -25.425781 27.28125 -25.9375 C 26.632812 -26.445312 26.3125 -27.160156 26.3125 -28.078125 C 26.3125 -28.867188 26.535156 -29.535156 26.984375 -30.078125 C 27.441406 -30.617188 28.082031 -31.035156 28.90625 -31.328125 C 29.726562 -31.617188 30.695312 -31.765625 31.8125 -31.765625 Z M 31.8125 -31.765625 "/></g></g></g><g fill="#ef4444" fill-opacity="1"><g transform="translate(187.09636, 205.502917)"><g/></g></g><g fill="#ef4444" fill-opacity="1"><g transform="translate(197.346534, 205.502917)"><g><path d="M 25.03125 -31.15625 C 24.914062 -29.832031 24.835938 -28.550781 24.796875 -27.3125 C 24.753906 -26.082031 24.734375 -25.132812 24.734375 -24.46875 C 24.734375 -23.820312 24.742188 -23.203125 24.765625 -22.609375 C 24.796875 -22.023438 24.828125 -21.53125 24.859375 -21.125 L 23.84375 -21.125 C 23.46875 -23.40625 22.941406 -25.195312 22.265625 -26.5 C 21.585938 -27.8125 20.753906 -28.742188 19.765625 -29.296875 C 18.785156 -29.859375 17.625 -30.140625 16.28125 -30.140625 L 14.828125 -30.140625 C 13.972656 -30.140625 13.328125 -30.066406 12.890625 -29.921875 C 12.453125 -29.773438 12.160156 -29.476562 12.015625 -29.03125 C 11.867188 -28.59375 11.796875 -27.921875 11.796875 -27.015625 L 11.796875 -4.921875 C 11.796875 -3.785156 11.910156 -2.9375 12.140625 -2.375 C 12.378906 -1.820312 12.832031 -1.457031 13.5 -1.28125 C 14.175781 -1.101562 15.175781 -1 16.5 -0.96875 L 16.5 0 C 15.59375 -0.03125 14.421875 -0.0546875 12.984375 -0.078125 C 11.546875 -0.109375 10.035156 -0.125 8.453125 -0.125 C 7.191406 -0.125 5.957031 -0.109375 4.75 -0.078125 C 3.550781 -0.0546875 2.46875 -0.03125 1.5 0 L 1.5 -0.875 C 2.4375 -0.9375 3.140625 -1.054688 3.609375 -1.234375 C 4.078125 -1.410156 4.390625 -1.757812 4.546875 -2.28125 C 4.710938 -2.8125 4.796875 -3.601562 4.796875 -4.65625 L 4.796875 -26.484375 C 4.796875 -27.566406 4.710938 -28.363281 4.546875 -28.875 C 4.390625 -29.394531 4.066406 -29.75 3.578125 -29.9375 C 3.097656 -30.132812 2.40625 -30.242188 1.5 -30.265625 L 1.5 -31.15625 C 2.695312 -31.125 3.96875 -31.097656 5.3125 -31.078125 C 6.664062 -31.066406 8.003906 -31.050781 9.328125 -31.03125 C 10.648438 -31.019531 11.878906 -31.015625 13.015625 -31.015625 C 14.160156 -31.015625 15.101562 -31.015625 15.84375 -31.015625 C 17.1875 -31.015625 18.71875 -31.019531 20.4375 -31.03125 C 22.15625 -31.050781 23.6875 -31.09375 25.03125 -31.15625 Z M 18.484375 -15.921875 C 18.484375 -15.921875 18.484375 -15.773438 18.484375 -15.484375 C 18.484375 -15.191406 18.484375 -15.046875 18.484375 -15.046875 L 10.46875 -15.046875 C 10.46875 -15.046875 10.46875 -15.191406 10.46875 -15.484375 C 10.46875 -15.773438 10.46875 -15.921875 10.46875 -15.921875 Z M 19.578125 -21.734375 C 19.460938 -20.066406 19.410156 -18.789062 19.421875 -17.90625 C 19.441406 -17.03125 19.453125 -16.222656 19.453125 -15.484375 C 19.453125 -14.753906 19.460938 -13.945312 19.484375 -13.0625 C 19.515625 -12.1875 19.59375 -10.910156 19.71875 -9.234375 L 18.703125 -9.234375 C 18.523438 -10.265625 18.242188 -11.21875 17.859375 -12.09375 C 17.484375 -12.976562 16.925781 -13.691406 16.1875 -14.234375 C 15.457031 -14.773438 14.503906 -15.046875 13.328125 -15.046875 L 13.328125 -15.921875 C 14.210938 -15.921875 14.953125 -16.101562 15.546875 -16.46875 C 16.148438 -16.84375 16.65625 -17.328125 17.0625 -17.921875 C 17.476562 -18.523438 17.800781 -19.164062 18.03125 -19.84375 C 18.269531 -20.519531 18.445312 -21.148438 18.5625 -21.734375 Z M 19.578125 -21.734375 "/></g></g></g><g fill="#ef4444" fill-opacity="1"><g transform="translate(223.389887, 205.502917)"><g><path d="M 17.46875 -31.765625 C 20.570312 -31.765625 23.289062 -31.132812 25.625 -29.875 C 27.957031 -28.613281 29.769531 -26.800781 31.0625 -24.4375 C 32.351562 -22.082031 33 -19.21875 33 -15.84375 C 33 -12.550781 32.335938 -9.671875 31.015625 -7.203125 C 29.703125 -4.742188 27.863281 -2.828125 25.5 -1.453125 C 23.132812 -0.078125 20.441406 0.609375 17.421875 0.609375 C 14.316406 0.609375 11.597656 -0.0195312 9.265625 -1.28125 C 6.929688 -2.539062 5.117188 -4.359375 3.828125 -6.734375 C 2.535156 -9.109375 1.890625 -11.96875 1.890625 -15.3125 C 1.890625 -18.59375 2.554688 -21.460938 3.890625 -23.921875 C 5.222656 -26.390625 7.054688 -28.3125 9.390625 -29.6875 C 11.722656 -31.070312 14.414062 -31.765625 17.46875 -31.765625 Z M 17.296875 -30.96875 C 15.648438 -30.96875 14.21875 -30.304688 13 -28.984375 C 11.78125 -27.671875 10.84375 -25.851562 10.1875 -23.53125 C 9.53125 -21.21875 9.203125 -18.535156 9.203125 -15.484375 C 9.203125 -12.378906 9.570312 -9.675781 10.3125 -7.375 C 11.0625 -5.070312 12.070312 -3.296875 13.34375 -2.046875 C 14.625 -0.796875 16.039062 -0.171875 17.59375 -0.171875 C 19.238281 -0.171875 20.671875 -0.832031 21.890625 -2.15625 C 23.109375 -3.476562 24.046875 -5.300781 24.703125 -7.625 C 25.367188 -9.957031 25.703125 -12.632812 25.703125 -15.65625 C 25.703125 -18.800781 25.328125 -21.515625 24.578125 -23.796875 C 23.828125 -26.085938 22.8125 -27.851562 21.53125 -29.09375 C 20.257812 -30.34375 18.847656 -30.96875 17.296875 -30.96875 Z M 17.296875 -30.96875 "/></g></g></g><g fill="#ef4444" fill-opacity="1"><g transform="translate(258.275665, 205.502917)"><g><path d="M 29.53125 -31.15625 L 29.53125 -30.265625 C 28.582031 -30.148438 27.863281 -29.910156 27.375 -29.546875 C 26.894531 -29.179688 26.582031 -28.601562 26.4375 -27.8125 C 26.289062 -27.019531 26.21875 -25.90625 26.21875 -24.46875 L 26.21875 -12.796875 C 26.21875 -10.890625 26.085938 -9.144531 25.828125 -7.5625 C 25.566406 -5.976562 25.097656 -4.613281 24.421875 -3.46875 C 23.660156 -2.207031 22.546875 -1.210938 21.078125 -0.484375 C 19.609375 0.242188 17.742188 0.609375 15.484375 0.609375 C 14.140625 0.609375 12.757812 0.453125 11.34375 0.140625 C 9.9375 -0.160156 8.675781 -0.734375 7.5625 -1.578125 C 6.625 -2.367188 5.90625 -3.265625 5.40625 -4.265625 C 4.90625 -5.265625 4.566406 -6.445312 4.390625 -7.8125 C 4.222656 -9.175781 4.140625 -10.796875 4.140625 -12.671875 L 4.140625 -26.484375 C 4.140625 -27.566406 4.054688 -28.363281 3.890625 -28.875 C 3.734375 -29.394531 3.421875 -29.75 2.953125 -29.9375 C 2.484375 -30.132812 1.78125 -30.242188 0.84375 -30.265625 L 0.84375 -31.15625 C 1.570312 -31.125 2.554688 -31.09375 3.796875 -31.0625 C 5.046875 -31.03125 6.347656 -31.015625 7.703125 -31.015625 C 9.046875 -31.015625 10.34375 -31.03125 11.59375 -31.0625 C 12.84375 -31.09375 13.878906 -31.125 14.703125 -31.15625 L 14.703125 -30.265625 C 13.703125 -30.242188 12.941406 -30.132812 12.421875 -29.9375 C 11.910156 -29.75 11.566406 -29.394531 11.390625 -28.875 C 11.210938 -28.363281 11.125 -27.566406 11.125 -26.484375 L 11.125 -9.90625 C 11.125 -8.4375 11.21875 -7.132812 11.40625 -6 C 11.601562 -4.875 11.925781 -3.9375 12.375 -3.1875 C 12.832031 -2.4375 13.457031 -1.867188 14.25 -1.484375 C 15.039062 -1.109375 16.023438 -0.921875 17.203125 -0.921875 C 19.253906 -0.921875 20.859375 -1.40625 22.015625 -2.375 C 23.179688 -3.34375 24.003906 -4.679688 24.484375 -6.390625 C 24.972656 -8.109375 25.21875 -10.082031 25.21875 -12.3125 L 25.21875 -23.9375 C 25.21875 -25.550781 25.113281 -26.789062 24.90625 -27.65625 C 24.695312 -28.519531 24.289062 -29.140625 23.6875 -29.515625 C 23.09375 -29.898438 22.175781 -30.148438 20.9375 -30.265625 L 20.9375 -31.15625 C 21.5 -31.125 22.234375 -31.09375 23.140625 -31.0625 C 24.054688 -31.03125 24.910156 -31.015625 25.703125 -31.015625 C 26.398438 -31.015625 27.09375 -31.03125 27.78125 -31.0625 C 28.46875 -31.09375 29.050781 -31.125 29.53125 -31.15625 Z M 29.53125 -31.15625 "/></g></g></g><g fill="#ef4444" fill-opacity="1"><g transform="translate(288.586278, 205.502917)"><g><path d="M 30.484375 -31.15625 L 30.484375 -30.265625 C 29.546875 -30.148438 28.84375 -29.910156 28.375 -29.546875 C 27.90625 -29.179688 27.585938 -28.601562 27.421875 -27.8125 C 27.265625 -27.019531 27.1875 -25.90625 27.1875 -24.46875 L 27.1875 0.09375 C 26.832031 0.0625 26.472656 0.046875 26.109375 0.046875 C 25.742188 0.046875 25.359375 0.0625 24.953125 0.09375 L 5.859375 -24.109375 L 5.859375 -7.21875 C 5.859375 -5.601562 5.941406 -4.363281 6.109375 -3.5 C 6.285156 -2.632812 6.675781 -2.015625 7.28125 -1.640625 C 7.882812 -1.273438 8.832031 -1.019531 10.125 -0.875 L 10.125 0 C 9.5625 -0.0625 8.828125 -0.0976562 7.921875 -0.109375 C 7.015625 -0.117188 6.164062 -0.125 5.375 -0.125 C 4.695312 -0.125 4.003906 -0.117188 3.296875 -0.109375 C 2.597656 -0.0976562 2.015625 -0.0625 1.546875 0 L 1.546875 -0.875 C 2.484375 -1.019531 3.1875 -1.269531 3.65625 -1.625 C 4.125 -1.976562 4.4375 -2.554688 4.59375 -3.359375 C 4.757812 -4.171875 4.84375 -5.28125 4.84375 -6.6875 L 4.84375 -26.484375 C 4.84375 -27.566406 4.757812 -28.363281 4.59375 -28.875 C 4.4375 -29.394531 4.113281 -29.75 3.625 -29.9375 C 3.144531 -30.132812 2.453125 -30.242188 1.546875 -30.265625 L 1.546875 -31.15625 C 2.015625 -31.125 2.597656 -31.09375 3.296875 -31.0625 C 4.003906 -31.03125 4.695312 -31.015625 5.375 -31.015625 C 6.070312 -31.015625 6.742188 -31.03125 7.390625 -31.0625 C 8.035156 -31.09375 8.625 -31.125 9.15625 -31.15625 L 26.1875 -10.15625 L 26.1875 -23.9375 C 26.1875 -25.550781 26.097656 -26.789062 25.921875 -27.65625 C 25.742188 -28.519531 25.351562 -29.140625 24.75 -29.515625 C 24.144531 -29.898438 23.195312 -30.148438 21.90625 -30.265625 L 21.90625 -31.15625 C 22.46875 -31.125 23.203125 -31.09375 24.109375 -31.0625 C 25.015625 -31.03125 25.863281 -31.015625 26.65625 -31.015625 C 27.363281 -31.015625 28.0625 -31.03125 28.75 -31.0625 C 29.4375 -31.09375 30.015625 -31.125 30.484375 -31.15625 Z M 30.484375 -31.15625 "/></g></g></g><g fill="#ef4444" fill-opacity="1"><g transform="translate(320.34862, 205.502917)"><g><path d="M 15.09375 -31.15625 C 20.875 -31.15625 25.171875 -29.84375 27.984375 -27.21875 C 30.796875 -24.59375 32.203125 -20.828125 32.203125 -15.921875 C 32.203125 -12.722656 31.515625 -9.925781 30.140625 -7.53125 C 28.765625 -5.144531 26.765625 -3.289062 24.140625 -1.96875 C 21.515625 -0.65625 18.367188 0 14.703125 0 C 14.222656 0 13.601562 -0.015625 12.84375 -0.046875 C 12.082031 -0.078125 11.289062 -0.0976562 10.46875 -0.109375 C 9.644531 -0.117188 8.910156 -0.125 8.265625 -0.125 C 6.984375 -0.125 5.71875 -0.117188 4.46875 -0.109375 C 3.21875 -0.0976562 2.226562 -0.0625 1.5 0 L 1.5 -0.875 C 2.4375 -0.9375 3.140625 -1.054688 3.609375 -1.234375 C 4.078125 -1.410156 4.390625 -1.757812 4.546875 -2.28125 C 4.710938 -2.8125 4.796875 -3.601562 4.796875 -4.65625 L 4.796875 -26.484375 C 4.796875 -27.566406 4.710938 -28.363281 4.546875 -28.875 C 4.390625 -29.394531 4.066406 -29.75 3.578125 -29.9375 C 3.097656 -30.132812 2.40625 -30.242188 1.5 -30.265625 L 1.5 -31.15625 C 2.226562 -31.125 3.21875 -31.082031 4.46875 -31.03125 C 5.71875 -30.988281 6.957031 -30.984375 8.1875 -31.015625 C 9.238281 -31.046875 10.429688 -31.078125 11.765625 -31.109375 C 13.097656 -31.140625 14.207031 -31.15625 15.09375 -31.15625 Z M 15.046875 -30.359375 C 13.703125 -30.359375 12.820312 -30.109375 12.40625 -29.609375 C 12 -29.109375 11.796875 -28.097656 11.796875 -26.578125 L 11.796875 -4.578125 C 11.796875 -3.046875 12.003906 -2.03125 12.421875 -1.53125 C 12.847656 -1.039062 13.738281 -0.796875 15.09375 -0.796875 C 17.550781 -0.796875 19.492188 -1.375 20.921875 -2.53125 C 22.347656 -3.6875 23.367188 -5.378906 23.984375 -7.609375 C 24.597656 -9.835938 24.90625 -12.550781 24.90625 -15.75 C 24.90625 -19.039062 24.570312 -21.757812 23.90625 -23.90625 C 23.25 -26.0625 22.203125 -27.675781 20.765625 -28.75 C 19.328125 -29.820312 17.421875 -30.359375 15.046875 -30.359375 Z M 15.046875 -30.359375 "/></g></g></g></svg>