<svg xmlns="http://www.w3.org/2000/svg" xmlns:xlink="http://www.w3.org/1999/xlink" width="500" zoomAndPan="magnify" viewBox="0 0 375 374.999991" height="500" preserveAspectRatio="xMidYMid meet" version="1.0"><defs><clipPath id="56bff591c4"><path d="M 78.007812 82.125 L 242.753906 82.125 L 242.753906 247 L 78.007812 247 Z M 78.007812 82.125 " clip-rule="nonzero"/></clipPath><clipPath id="49d32af534"><path d="M 78.007812 151.125 L 78.007812 178.78125 C 78.007812 197.082031 85.277344 214.632812 98.21875 227.570312 C 111.160156 240.511719 128.710938 247.78125 147.007812 247.78125 L 173.761719 247.78125 C 192.0625 247.78125 209.613281 240.511719 222.554688 227.570312 C 235.492188 214.632812 242.761719 197.082031 242.761719 178.78125 L 242.761719 151.125 C 242.761719 132.824219 235.492188 115.273438 222.554688 102.332031 C 209.613281 89.394531 192.0625 82.125 173.761719 82.125 L 147.007812 82.125 C 128.710938 82.125 111.160156 89.394531 98.21875 102.332031 C 85.277344 115.273438 78.007812 132.824219 78.007812 151.125 Z M 78.007812 151.125 " clip-rule="nonzero"/></clipPath><clipPath id="8e1f3e6905"><path d="M 221 226 L 341 226 L 341 345.433594 L 221 345.433594 Z M 221 226 " clip-rule="nonzero"/></clipPath></defs><g clip-path="url(#56bff591c4)"><g clip-path="url(#49d32af534)"><path fill="#f87171" d="M 80.394531 233.339844 C 82.65625 237.902344 84.917969 242.449219 87.242188 246.949219 L 78.007812 246.949219 L 78.007812 228.378906 C 78.8125 230.085938 79.605469 231.746094 80.394531 233.339844 Z M 117.53125 166.207031 C 113.769531 162.144531 105.84375 160.179688 100.796875 158.640625 C 93.3125 156.355469 85.671875 154.679688 78.007812 153.089844 L 78.007812 157.335938 C 80.59375 157.929688 83.164062 158.570312 85.71875 159.296875 C 98 162.78125 106.328125 169.464844 110.058594 181.542969 C 114.710938 196.601562 111.355469 215.367188 112.1875 230.980469 C 112.515625 237.074219 112.882812 241.46875 114.617188 246.949219 L 122.972656 246.949219 C 123.226562 240.632812 123.722656 234.324219 124.117188 228.097656 C 125.046875 213.542969 126.519531 198.539062 124.144531 184.046875 C 123.207031 178.328125 121.636719 170.640625 117.53125 166.207031 Z M 148.132812 177.671875 C 146.984375 162.722656 137.933594 156.542969 124.34375 152.113281 C 109.242188 147.191406 93.445312 144.8125 78.007812 141.121094 L 78.007812 148.042969 C 90.257812 150.808594 102.613281 153.179688 114.539062 157.101562 C 128.054688 161.542969 136.191406 166.828125 137.9375 181.636719 C 139.714844 196.730469 136.558594 212.34375 134.269531 227.214844 C 133.386719 232.976562 132.054688 239.828125 131.074219 246.949219 L 137.695312 246.949219 C 139.035156 238.125 141.152344 229.527344 142.496094 222.765625 C 145.402344 208.121094 149.289062 192.707031 148.132812 177.671875 Z M 156.191406 202.113281 C 159.191406 186.511719 163.71875 169.496094 161.53125 153.5 C 159.371094 137.679688 147.222656 136.144531 133.859375 132.128906 C 117.449219 127.199219 96.003906 123.082031 78.007812 114.832031 L 78.007812 128.5625 C 94.488281 133.519531 111.539062 136.304688 128.050781 141.148438 C 141.308594 145.039062 152.808594 148.800781 154.847656 163.972656 C 156.992188 179.925781 152.527344 196.875 149.484375 212.425781 C 147.683594 221.640625 144.34375 234.558594 143.449219 246.949219 L 149.722656 246.949219 C 149.160156 231.628906 153.933594 213.835938 156.191406 202.113281 Z M 168.507812 184.902344 C 171.691406 169.710938 177.609375 151.003906 173.84375 135.417969 C 170.441406 121.347656 155.253906 123.421875 143.65625 119.492188 C 119.773438 111.402344 101.324219 93.777344 79.476562 82.207031 L 78.007812 82.207031 L 78.007812 97.566406 C 96.871094 108.949219 117.085938 118.101562 138.085938 124.773438 C 151.203125 128.941406 165.4375 128.390625 167.894531 144.53125 C 170.308594 160.414062 165.519531 177.582031 162.460938 193.050781 C 159.675781 207.128906 153.167969 229.941406 156.425781 246.949219 L 164.136719 246.949219 C 156.054688 229.648438 165.132812 201 168.507812 184.902344 Z M 193.296875 244.550781 C 159.132812 237.664062 175.308594 192.929688 180.746094 170.070312 C 184.023438 156.285156 189.855469 139.519531 187.054688 125.257812 C 185.859375 119.183594 183.429688 116.441406 177.328125 115.160156 C 168.703125 113.351562 160.394531 113.859375 152.023438 110.289062 C 138.683594 104.605469 131.476562 93.550781 123.609375 82.207031 L 105.503906 82.207031 C 108.226562 84.40625 110.910156 86.839844 113.617188 89.507812 C 123.566406 99.3125 133.300781 108.824219 146.488281 114.132812 C 158.457031 118.949219 177.570312 115.304688 180.417969 130.796875 C 183.183594 145.832031 177.761719 162.796875 174.53125 177.363281 C 170.210938 196.832031 158.492188 232.386719 175.664062 246.949219 L 242.753906 246.949219 L 242.753906 242.875 C 226.425781 242.84375 208.851562 247.6875 193.296875 244.550781 Z M 206.644531 229.070312 C 171.132812 222.644531 188.464844 178.152344 194.5625 154.988281 C 197.796875 142.703125 205.128906 124.710938 201.34375 111.824219 C 199.578125 105.816406 196.21875 105.304688 190.402344 105.09375 C 180.164062 104.722656 169.828125 105.121094 160.621094 99.804688 C 153.242188 95.546875 149.460938 89.261719 146.925781 82.207031 L 136.476562 82.207031 C 140.722656 91.5 145.699219 100.140625 155.464844 105.167969 C 159.695312 107.34375 164.300781 108.585938 168.964844 109.398438 C 174.390625 110.34375 181.273438 109.230469 186.367188 110.601562 C 191.09375 111.875 193.09375 114.652344 194.046875 119.46875 C 196.761719 133.195312 190.652344 149.59375 187.351562 162.730469 C 181.496094 186.019531 164.785156 230.523438 200.179688 236.847656 C 212.734375 239.09375 228.09375 235.859375 242.753906 234.90625 L 242.753906 228.484375 C 230.792969 229.511719 218.46875 231.210938 206.644531 229.070312 Z M 225.644531 214.277344 C 212.457031 212.074219 206.15625 205.859375 205.75 192.207031 C 205.207031 174.144531 211.285156 155.757812 215.585938 138.4375 C 218.910156 125.039062 225.066406 107.691406 221.398438 93.769531 C 219.726562 87.417969 216.4375 85.335938 210.183594 84.765625 C 201.460938 83.972656 193.039062 84.859375 184.8125 82.207031 L 159.535156 82.207031 C 161.722656 85.800781 164.722656 88.945312 169.035156 91.367188 C 180.128906 97.59375 190.964844 94.335938 202.703125 95.972656 C 207.261719 96.609375 209.808594 98.203125 211.066406 102.859375 C 214.636719 116.058594 207.265625 133.761719 203.832031 146.300781 C 199.335938 162.71875 193.210938 180.238281 193.394531 197.460938 C 193.546875 211.535156 200.703125 218.792969 214.328125 221.28125 C 223.636719 222.980469 233.261719 222.304688 242.753906 221.515625 L 242.753906 214.707031 C 236.675781 215.101562 230.871094 215.152344 225.644531 214.277344 Z M 233.316406 181.339844 C 230.558594 163.96875 235.847656 143.757812 237.039062 126.367188 C 238.015625 112.09375 239.609375 95.617188 233.445312 82.207031 L 226.136719 82.207031 C 227.066406 83.484375 227.863281 84.984375 228.503906 86.765625 C 233.515625 100.671875 229.15625 118.136719 226.71875 132.128906 C 223.777344 148.984375 219.535156 166.269531 220.171875 183.496094 C 220.699219 197.753906 225.34375 205.578125 239.679688 207.769531 C 240.691406 207.921875 241.714844 208.046875 242.753906 208.140625 L 242.753906 188.183594 C 238.273438 189.273438 234.210938 186.972656 233.316406 181.339844 Z M 239.175781 82.207031 C 240.671875 85.414062 241.835938 88.765625 242.753906 92.210938 L 242.753906 82.207031 Z M 78.007812 165.066406 L 78.007812 204.542969 C 94.324219 221.425781 97.9375 246.949219 97.9375 246.949219 L 108.566406 246.949219 C 108.566406 246.949219 104.34375 235.070312 104.34375 219.097656 C 104.613281 169.472656 78.007812 165.066406 78.007812 165.066406 Z M 78.007812 165.066406 " fill-opacity="1" fill-rule="nonzero"/></g></g><path fill="#f87171" d="M 160.710938 283.394531 C 158.304688 283.394531 155.902344 283.324219 153.503906 283.175781 C 151.101562 283.03125 148.707031 282.808594 146.320312 282.515625 C 143.933594 282.222656 141.558594 281.859375 139.195312 281.417969 C 136.832031 280.980469 134.484375 280.46875 132.152344 279.882812 C 129.816406 279.300781 127.503906 278.648438 125.210938 277.921875 C 122.921875 277.195312 120.652344 276.402344 118.410156 275.535156 C 116.164062 274.671875 113.949219 273.738281 111.761719 272.738281 C 109.578125 271.738281 107.421875 270.671875 105.300781 269.539062 C 103.179688 268.40625 101.097656 267.210938 99.046875 265.949219 C 97 264.6875 94.996094 263.367188 93.027344 261.980469 C 91.0625 260.597656 89.140625 259.15625 87.261719 257.652344 C 85.382812 256.152344 83.554688 254.59375 81.773438 252.976562 C 79.988281 251.363281 78.257812 249.695312 76.578125 247.976562 C 74.898438 246.253906 73.273438 244.484375 71.703125 242.664062 C 70.132812 240.84375 68.617188 238.976562 67.164062 237.0625 C 65.707031 235.148438 64.308594 233.195312 62.972656 231.195312 C 61.636719 229.195312 60.363281 227.15625 59.152344 225.078125 C 57.941406 223.003906 56.796875 220.890625 55.714844 218.742188 C 54.632812 216.59375 53.617188 214.414062 52.671875 212.207031 C 51.722656 209.996094 50.84375 207.757812 50.03125 205.496094 C 49.222656 203.230469 48.484375 200.945312 47.8125 198.636719 C 47.144531 196.324219 46.542969 194 46.015625 191.652344 C 45.492188 189.304688 45.035156 186.945312 44.652344 184.570312 C 44.273438 182.199219 43.960938 179.8125 43.726562 177.421875 C 43.492188 175.027344 43.328125 172.628906 43.242188 170.226562 C 43.152344 167.824219 43.136719 165.421875 43.195312 163.015625 C 43.253906 160.613281 43.386719 158.214844 43.59375 155.816406 C 43.800781 153.421875 44.082031 151.035156 44.433594 148.65625 C 44.785156 146.277344 45.210938 143.914062 45.710938 141.558594 C 46.207031 139.207031 46.777344 136.871094 47.417969 134.554688 C 48.0625 132.238281 48.773438 129.941406 49.554688 127.667969 C 50.339844 125.394531 51.191406 123.148438 52.109375 120.925781 C 53.03125 118.703125 54.019531 116.515625 55.074219 114.351562 C 56.128906 112.191406 57.25 110.066406 58.433594 107.972656 C 59.621094 105.882812 60.867188 103.828125 62.179688 101.8125 C 63.492188 99.796875 64.863281 97.824219 66.296875 95.894531 C 67.730469 93.960938 69.21875 92.078125 70.769531 90.238281 C 72.316406 88.398438 73.921875 86.609375 75.578125 84.867188 C 77.238281 83.125 78.949219 81.4375 80.710938 79.800781 C 82.472656 78.164062 84.28125 76.582031 86.140625 75.058594 C 88 73.535156 89.90625 72.066406 91.855469 70.660156 C 93.804688 69.25 95.792969 67.90625 97.824219 66.617188 C 99.859375 65.332031 101.925781 64.109375 104.035156 62.953125 C 106.140625 61.792969 108.28125 60.699219 110.457031 59.671875 C 112.628906 58.644531 114.832031 57.6875 117.066406 56.792969 C 119.300781 55.902344 121.558594 55.078125 123.839844 54.324219 C 126.125 53.574219 128.429688 52.890625 130.753906 52.277344 C 133.078125 51.664062 135.421875 51.125 137.78125 50.65625 C 140.140625 50.191406 142.511719 49.792969 144.894531 49.472656 C 147.277344 49.148438 149.664062 48.898438 152.0625 48.722656 C 154.460938 48.546875 156.863281 48.445312 159.269531 48.417969 C 161.671875 48.390625 164.074219 48.433594 166.476562 48.554688 C 168.878906 48.671875 171.273438 48.867188 173.664062 49.132812 C 176.054688 49.398438 178.433594 49.738281 180.800781 50.152344 C 183.171875 50.5625 185.523438 51.046875 187.863281 51.605469 C 190.203125 52.160156 192.523438 52.789062 194.824219 53.488281 C 197.125 54.1875 199.402344 54.957031 201.65625 55.796875 C 203.910156 56.636719 206.132812 57.542969 208.332031 58.519531 C 210.53125 59.496094 212.695312 60.535156 214.828125 61.644531 C 216.960938 62.753906 219.058594 63.925781 221.121094 65.164062 C 223.183594 66.402344 225.207031 67.703125 227.1875 69.0625 C 229.167969 70.425781 231.105469 71.847656 233 73.328125 C 234.894531 74.808594 236.742188 76.34375 238.542969 77.941406 C 240.34375 79.535156 242.09375 81.179688 243.792969 82.882812 C 245.835938 84.921875 247.796875 87.03125 249.683594 89.214844 C 251.570312 91.402344 253.371094 93.652344 255.09375 95.96875 C 256.8125 98.285156 258.445312 100.660156 259.988281 103.097656 C 261.535156 105.535156 262.988281 108.023438 264.347656 110.566406 C 265.707031 113.113281 266.972656 115.703125 268.144531 118.339844 C 269.316406 120.976562 270.386719 123.652344 271.359375 126.371094 C 272.332031 129.085938 273.203125 131.835938 273.972656 134.613281 C 274.746094 137.394531 275.410156 140.199219 275.976562 143.03125 C 276.539062 145.859375 276.996094 148.707031 277.351562 151.570312 C 277.703125 154.433594 277.953125 157.304688 278.09375 160.1875 C 278.238281 163.070312 278.273438 165.953125 278.203125 168.835938 C 278.132812 171.722656 277.953125 174.597656 277.671875 177.46875 C 277.390625 180.339844 277 183.199219 276.507812 186.039062 C 276.015625 188.882812 275.417969 191.703125 274.714844 194.503906 C 274.015625 197.300781 273.210938 200.070312 272.308594 202.808594 C 271.402344 205.550781 270.398438 208.253906 269.292969 210.917969 C 268.1875 213.582031 266.988281 216.203125 265.6875 218.78125 C 264.390625 221.359375 263 223.882812 261.515625 226.359375 C 260.035156 228.832031 258.460938 231.25 256.796875 233.609375 C 255.136719 235.964844 253.390625 238.261719 251.558594 240.488281 C 249.726562 242.71875 247.816406 244.878906 245.828125 246.96875 C 243.835938 249.054688 241.773438 251.070312 239.632812 253.007812 C 237.496094 254.941406 235.289062 256.796875 233.011719 258.570312 C 230.738281 260.347656 228.402344 262.035156 226 263.636719 C 223.601562 265.238281 221.144531 266.75 218.632812 268.167969 C 216.125 269.589844 213.5625 270.917969 210.953125 272.148438 C 208.34375 273.382812 205.695312 274.515625 203.003906 275.550781 C 200.308594 276.589844 197.582031 277.523438 194.820312 278.359375 C 192.058594 279.195312 189.269531 279.929688 186.457031 280.558594 C 183.640625 281.191406 180.804688 281.714844 177.949219 282.136719 C 175.097656 282.558594 172.230469 282.875 169.351562 283.082031 C 166.476562 283.292969 163.59375 283.398438 160.710938 283.394531 Z M 160.710938 74.296875 C 158.957031 74.292969 157.207031 74.339844 155.457031 74.4375 C 153.710938 74.53125 151.964844 74.679688 150.226562 74.875 C 148.484375 75.070312 146.75 75.316406 145.023438 75.613281 C 143.300781 75.910156 141.582031 76.253906 139.875 76.648438 C 138.167969 77.042969 136.476562 77.484375 134.792969 77.976562 C 133.113281 78.464844 131.449219 79.003906 129.796875 79.59375 C 128.148438 80.179688 126.515625 80.8125 124.902344 81.492188 C 123.289062 82.171875 121.695312 82.898438 120.121094 83.671875 C 118.550781 84.441406 117 85.257812 115.476562 86.117188 C 113.949219 86.976562 112.449219 87.882812 110.976562 88.828125 C 109.503906 89.773438 108.058594 90.761719 106.640625 91.789062 C 105.222656 92.820312 103.835938 93.890625 102.480469 94.996094 C 101.125 96.105469 99.800781 97.253906 98.511719 98.4375 C 97.222656 99.621094 95.964844 100.839844 94.746094 102.097656 C 93.523438 103.355469 92.339844 104.644531 91.195312 105.96875 C 90.050781 107.292969 88.941406 108.648438 87.875 110.035156 C 86.804688 111.425781 85.777344 112.839844 84.789062 114.289062 C 83.800781 115.734375 82.855469 117.207031 81.953125 118.707031 C 81.050781 120.210938 80.191406 121.734375 79.375 123.285156 C 78.5625 124.835938 77.789062 126.40625 77.066406 128 C 76.339844 129.59375 75.660156 131.207031 75.027344 132.84375 C 74.394531 134.476562 73.808594 136.125 73.269531 137.792969 C 72.734375 139.457031 72.242188 141.140625 71.800781 142.832031 C 71.359375 144.527344 70.964844 146.234375 70.621094 147.953125 C 70.277344 149.667969 69.984375 151.394531 69.738281 153.128906 C 69.492188 154.863281 69.296875 156.601562 69.152344 158.347656 C 69.003906 160.09375 68.910156 161.839844 68.863281 163.59375 C 68.820312 165.34375 68.824219 167.09375 68.878906 168.84375 C 68.933594 170.59375 69.039062 172.34375 69.195312 174.085938 C 69.347656 175.832031 69.554688 177.570312 69.808594 179.304688 C 70.0625 181.035156 70.367188 182.757812 70.722656 184.476562 C 71.074219 186.191406 71.476562 187.894531 71.929688 189.585938 C 72.378906 191.277344 72.878906 192.957031 73.425781 194.621094 C 73.976562 196.285156 74.570312 197.929688 75.210938 199.558594 C 75.851562 201.191406 76.539062 202.800781 77.273438 204.390625 C 78.007812 205.980469 78.789062 207.546875 79.613281 209.09375 C 80.4375 210.636719 81.304688 212.160156 82.214844 213.65625 C 83.125 215.152344 84.078125 216.621094 85.074219 218.058594 C 86.070312 219.5 87.105469 220.914062 88.179688 222.292969 C 89.257812 223.675781 90.371094 225.027344 91.527344 226.34375 C 92.679688 227.660156 93.871094 228.945312 95.097656 230.195312 C 96.324219 231.445312 97.585938 232.660156 98.882812 233.835938 C 100.179688 235.011719 101.507812 236.152344 102.871094 237.253906 C 104.234375 238.355469 105.625 239.414062 107.046875 240.4375 C 108.472656 241.457031 109.921875 242.4375 111.402344 243.375 C 112.878906 244.3125 114.382812 245.210938 115.914062 246.0625 C 117.445312 246.914062 119 247.71875 120.574219 248.484375 C 122.152344 249.246094 123.75 249.964844 125.367188 250.632812 C 126.984375 251.304688 128.621094 251.929688 130.273438 252.507812 C 131.925781 253.085938 133.59375 253.617188 135.277344 254.097656 C 136.960938 254.578125 138.660156 255.011719 140.367188 255.398438 C 142.074219 255.78125 143.792969 256.117188 145.523438 256.402344 C 147.25 256.691406 148.984375 256.925781 150.726562 257.113281 C 152.46875 257.300781 154.210938 257.4375 155.960938 257.523438 C 157.710938 257.609375 159.460938 257.648438 161.214844 257.632812 C 162.964844 257.621094 164.714844 257.554688 166.460938 257.441406 C 168.210938 257.328125 169.953125 257.164062 171.691406 256.949219 C 173.429688 256.738281 175.160156 256.472656 176.882812 256.160156 C 178.605469 255.847656 180.320312 255.484375 182.023438 255.074219 C 183.722656 254.664062 185.414062 254.203125 187.089844 253.695312 C 188.765625 253.1875 190.425781 252.632812 192.070312 252.03125 C 193.714844 251.425781 195.339844 250.777344 196.945312 250.082031 C 198.554688 249.382812 200.140625 248.644531 201.703125 247.855469 C 203.269531 247.066406 204.808594 246.238281 206.328125 245.363281 C 207.84375 244.484375 209.335938 243.566406 210.796875 242.605469 C 212.261719 241.644531 213.699219 240.644531 215.105469 239.601562 C 216.511719 238.558594 217.886719 237.476562 219.234375 236.351562 C 220.578125 235.230469 221.890625 234.070312 223.167969 232.875 C 224.445312 231.675781 225.6875 230.445312 226.894531 229.175781 C 228.105469 227.90625 229.273438 226.605469 230.40625 225.269531 C 231.539062 223.933594 232.632812 222.566406 233.6875 221.167969 C 234.742188 219.769531 235.757812 218.34375 236.730469 216.886719 C 237.703125 215.429688 238.632812 213.945312 239.519531 212.4375 C 240.410156 210.929688 241.253906 209.394531 242.054688 207.835938 C 242.851562 206.277344 243.605469 204.699219 244.316406 203.097656 C 245.027344 201.496094 245.6875 199.875 246.304688 198.234375 C 246.921875 196.597656 247.492188 194.941406 248.011719 193.269531 C 248.535156 191.597656 249.007812 189.910156 249.433594 188.210938 C 249.859375 186.511719 250.234375 184.804688 250.5625 183.082031 C 250.886719 181.363281 251.164062 179.632812 251.394531 177.898438 C 251.621094 176.160156 251.800781 174.417969 251.925781 172.671875 C 252.054688 170.925781 252.132812 169.175781 252.160156 167.425781 C 252.191406 165.675781 252.167969 163.925781 252.09375 162.175781 C 252.023438 160.425781 251.898438 158.679688 251.726562 156.933594 C 251.554688 155.191406 251.332031 153.457031 251.058594 151.726562 C 250.789062 149.996094 250.464844 148.273438 250.097656 146.5625 C 249.726562 144.851562 249.304688 143.152344 248.835938 141.464844 C 248.371094 139.777344 247.851562 138.101562 247.289062 136.445312 C 246.726562 134.785156 246.113281 133.144531 245.457031 131.523438 C 244.796875 129.898438 244.09375 128.296875 243.34375 126.714844 C 242.59375 125.132812 241.800781 123.570312 240.960938 122.035156 C 240.121094 120.496094 239.238281 118.984375 238.3125 117.5 C 237.386719 116.011719 236.417969 114.554688 235.410156 113.121094 C 234.398438 111.691406 233.347656 110.289062 232.257812 108.917969 C 231.167969 107.546875 230.042969 106.210938 228.875 104.902344 C 227.707031 103.597656 226.503906 102.324219 225.265625 101.085938 C 223.152344 98.972656 220.9375 96.964844 218.628906 95.066406 C 216.316406 93.167969 213.917969 91.390625 211.433594 89.726562 C 208.945312 88.0625 206.382812 86.527344 203.746094 85.113281 C 201.109375 83.703125 198.410156 82.425781 195.648438 81.277344 C 192.886719 80.132812 190.074219 79.125 187.214844 78.253906 C 184.351562 77.382812 181.457031 76.65625 178.523438 76.070312 C 175.589844 75.484375 172.636719 75.042969 169.660156 74.746094 C 166.683594 74.449219 163.699219 74.300781 160.710938 74.296875 Z M 160.710938 74.296875 " fill-opacity="1" fill-rule="nonzero"/><g clip-path="url(#8e1f3e6905)"><path fill="#f87171" d="M 327.265625 345.433594 C 325.554688 345.425781 323.910156 345.09375 322.335938 344.433594 C 320.757812 343.773438 319.367188 342.835938 318.160156 341.625 L 225.523438 249.050781 C 224.921875 248.449219 224.386719 247.796875 223.917969 247.09375 C 223.445312 246.386719 223.046875 245.644531 222.722656 244.859375 C 222.398438 244.074219 222.152344 243.269531 221.988281 242.4375 C 221.824219 241.605469 221.738281 240.765625 221.738281 239.914062 C 221.738281 239.066406 221.824219 238.226562 221.988281 237.394531 C 222.152344 236.5625 222.398438 235.753906 222.722656 234.972656 C 223.046875 234.1875 223.445312 233.445312 223.917969 232.738281 C 224.386719 232.035156 224.921875 231.378906 225.523438 230.78125 C 226.125 230.179688 226.777344 229.644531 227.480469 229.175781 C 228.1875 228.703125 228.929688 228.304688 229.714844 227.980469 C 230.5 227.65625 231.304688 227.410156 232.136719 227.246094 C 232.96875 227.078125 233.808594 226.996094 234.660156 226.996094 C 235.507812 226.996094 236.347656 227.078125 237.179688 227.246094 C 238.011719 227.410156 238.816406 227.65625 239.601562 227.980469 C 240.386719 228.304688 241.128906 228.703125 241.835938 229.175781 C 242.539062 229.644531 243.191406 230.179688 243.792969 230.78125 L 336.367188 323.417969 C 337.265625 324.320312 338.011719 325.335938 338.609375 326.457031 C 339.207031 327.582031 339.628906 328.769531 339.875 330.019531 C 340.121094 331.265625 340.183594 332.523438 340.058594 333.789062 C 339.933594 335.058594 339.628906 336.277344 339.140625 337.457031 C 338.65625 338.632812 338.007812 339.710938 337.203125 340.699219 C 336.398438 341.683594 335.464844 342.53125 334.410156 343.238281 C 333.351562 343.949219 332.214844 344.492188 331 344.863281 C 329.78125 345.238281 328.535156 345.425781 327.265625 345.433594 Z M 327.265625 345.433594 " fill-opacity="1" fill-rule="nonzero"/></g></svg>