<svg xmlns="http://www.w3.org/2000/svg" xmlns:xlink="http://www.w3.org/1999/xlink" width="500" zoomAndPan="magnify" viewBox="0 0 375 374.999991" height="500" preserveAspectRatio="xMidYMid meet" version="1.0"><defs><clipPath id="08ce25e525"><path d="M 84.695312 104.871094 L 290.195312 104.871094 L 290.195312 269.871094 L 84.695312 269.871094 Z M 84.695312 104.871094 " clip-rule="nonzero"/></clipPath><clipPath id="80f67b6cd8"><path d="M 218.074219 250.089844 L 324.542969 250.089844 L 324.542969 319.640625 L 218.074219 319.640625 Z M 218.074219 250.089844 " clip-rule="nonzero"/></clipPath></defs><g clip-path="url(#08ce25e525)"><path fill="#f87171" d="M 205.949219 226.632812 L 205.949219 251.144531 L 169.042969 251.144531 L 169.042969 226.632812 Z M 237.363281 254.457031 L 137.628906 254.457031 C 133.074219 254.457031 129.371094 257.964844 129.371094 262.277344 C 129.371094 266.589844 133.074219 270.097656 137.628906 270.097656 L 237.363281 270.097656 C 241.917969 270.097656 245.625 266.589844 245.625 262.277344 C 245.625 257.964844 241.917969 254.457031 237.363281 254.457031 Z M 281.996094 104.859375 L 92.996094 104.859375 C 88.441406 104.859375 84.738281 108.566406 84.738281 113.121094 L 84.738281 215.058594 C 84.738281 219.613281 88.441406 223.316406 92.996094 223.316406 L 249.261719 223.316406 L 242.105469 216.164062 L 93.546875 216.164062 C 92.632812 216.164062 91.890625 215.421875 91.890625 214.507812 L 91.890625 113.671875 C 91.890625 112.753906 92.632812 112.011719 93.546875 112.011719 L 281.445312 112.011719 C 282.359375 112.011719 283.101562 112.753906 283.101562 113.671875 L 283.101562 214.507812 C 283.101562 215.421875 282.359375 216.164062 281.445312 216.164062 L 268.085938 216.164062 L 275.242188 223.316406 L 281.996094 223.316406 C 286.550781 223.316406 290.257812 219.613281 290.257812 215.058594 L 290.257812 113.121094 C 290.257812 108.566406 286.550781 104.859375 281.996094 104.859375 Z M 95.207031 115.328125 L 279.785156 115.328125 L 279.785156 127.257812 L 95.207031 127.257812 Z M 122.335938 121.523438 C 122.335938 122.4375 123.078125 123.179688 123.992188 123.179688 L 127.160156 123.179688 C 128.074219 123.179688 128.816406 122.4375 128.816406 121.523438 C 128.816406 120.609375 128.074219 119.867188 127.160156 119.867188 L 123.992188 119.867188 C 123.078125 119.867188 122.335938 120.605469 122.335938 121.523438 Z M 111.316406 121.523438 C 111.316406 122.4375 112.058594 123.179688 112.972656 123.179688 L 116.140625 123.179688 C 117.054688 123.179688 117.796875 122.4375 117.796875 121.523438 C 117.796875 120.609375 117.054688 119.867188 116.140625 119.867188 L 112.972656 119.867188 C 112.058594 119.867188 111.316406 120.605469 111.316406 121.523438 Z M 100.292969 121.523438 C 100.292969 122.4375 101.035156 123.179688 101.953125 123.179688 L 105.121094 123.179688 C 106.035156 123.179688 106.777344 122.4375 106.777344 121.523438 C 106.777344 120.609375 106.035156 119.867188 105.121094 119.867188 L 101.953125 119.867188 C 101.035156 119.867188 100.292969 120.605469 100.292969 121.523438 Z M 241.589844 194.351562 C 240.441406 195.914062 239.164062 197.410156 237.753906 198.820312 C 236.351562 200.222656 234.855469 201.5 233.289062 202.65625 L 237.71875 207.085938 L 246.019531 198.785156 Z M 248.363281 201.128906 L 240.0625 209.429688 L 267.8125 237.179688 C 269.121094 238.492188 270.886719 239.242188 272.652344 239.242188 C 274.179688 239.242188 275.582031 238.679688 276.597656 237.664062 C 278.886719 235.375 278.671875 231.433594 276.113281 228.878906 Z M 210.585938 206.757812 C 201.207031 206.757812 192.390625 203.105469 185.761719 196.476562 C 179.128906 189.847656 175.480469 181.03125 175.480469 171.652344 C 175.480469 162.273438 179.128906 153.457031 185.761719 146.828125 C 192.394531 140.195312 201.207031 136.546875 210.585938 136.546875 C 219.964844 136.546875 228.78125 140.195312 235.410156 146.828125 C 249.097656 160.515625 249.097656 182.789062 235.410156 196.476562 C 228.78125 203.105469 219.964844 206.757812 210.585938 206.757812 Z M 231.253906 192.320312 C 242.652344 180.925781 242.652344 162.378906 231.253906 150.984375 C 225.734375 145.460938 218.394531 142.421875 210.585938 142.421875 C 202.777344 142.421875 195.4375 145.460938 189.917969 150.984375 C 178.519531 162.378906 178.519531 180.925781 189.917969 192.320312 C 195.4375 197.84375 202.777344 200.882812 210.585938 200.882812 C 218.394531 200.882812 225.734375 197.84375 231.253906 192.320312 Z M 118.183594 190.300781 C 118.183594 190.894531 117.863281 191.445312 117.347656 191.738281 C 117.09375 191.886719 116.808594 191.957031 116.523438 191.957031 C 116.234375 191.957031 115.945312 191.882812 115.6875 191.730469 L 113.277344 190.316406 L 110.871094 191.730469 C 110.359375 192.03125 109.722656 192.035156 109.207031 191.738281 C 108.691406 191.445312 108.375 190.894531 108.375 190.300781 L 108.375 184.578125 L 102.453125 184.578125 L 102.453125 206.226562 L 124.101562 206.226562 L 124.101562 184.578125 L 118.183594 184.578125 Z M 112.441406 186.964844 C 112.957031 186.660156 113.601562 186.660156 114.117188 186.964844 L 114.867188 187.40625 L 114.867188 184.578125 L 111.6875 184.578125 L 111.6875 187.40625 Z M 149.949219 190.300781 C 149.949219 190.894531 149.632812 191.445312 149.117188 191.738281 C 148.859375 191.886719 148.578125 191.957031 148.292969 191.957031 C 148.003906 191.957031 147.710938 191.882812 147.453125 191.730469 L 145.046875 190.316406 L 142.636719 191.730469 C 142.125 192.03125 141.492188 192.035156 140.976562 191.738281 C 140.457031 191.445312 140.140625 190.894531 140.140625 190.300781 L 140.140625 184.578125 L 134.222656 184.578125 L 134.222656 206.226562 L 155.871094 206.226562 L 155.871094 184.578125 L 149.949219 184.578125 Z M 144.207031 186.964844 C 144.726562 186.660156 145.367188 186.660156 145.882812 186.964844 L 146.636719 187.40625 L 146.636719 184.578125 L 143.457031 184.578125 L 143.457031 187.40625 Z M 118.183594 158.988281 C 118.183594 159.582031 117.863281 160.128906 117.347656 160.425781 C 117.09375 160.570312 116.808594 160.644531 116.523438 160.644531 C 116.234375 160.644531 115.945312 160.570312 115.6875 160.417969 L 113.277344 159.003906 L 110.871094 160.417969 C 110.359375 160.71875 109.722656 160.722656 109.207031 160.425781 C 108.691406 160.128906 108.375 159.582031 108.375 158.988281 L 108.375 153.261719 L 102.453125 153.261719 L 102.453125 174.914062 L 124.101562 174.914062 L 124.101562 153.261719 L 118.183594 153.261719 Z M 112.441406 155.652344 C 112.957031 155.347656 113.601562 155.347656 114.117188 155.652344 L 114.867188 156.09375 L 114.867188 153.265625 L 111.6875 153.265625 L 111.6875 156.09375 Z M 149.949219 158.988281 C 149.949219 159.582031 149.632812 160.128906 149.117188 160.425781 C 148.859375 160.570312 148.578125 160.644531 148.292969 160.644531 C 148.003906 160.644531 147.710938 160.570312 147.453125 160.417969 L 145.046875 159.003906 L 142.636719 160.417969 C 142.125 160.71875 141.492188 160.722656 140.976562 160.425781 C 140.457031 160.128906 140.140625 159.582031 140.140625 158.988281 L 140.140625 153.261719 L 134.222656 153.261719 L 134.222656 174.914062 L 155.871094 174.914062 L 155.871094 153.261719 L 149.949219 153.261719 Z M 144.207031 155.652344 C 144.726562 155.347656 145.367188 155.347656 145.882812 155.652344 L 146.636719 156.09375 L 146.636719 153.265625 L 143.457031 153.265625 L 143.457031 156.09375 Z M 226.945312 164.179688 L 212.242188 172.667969 L 212.242188 189.644531 L 226.945312 181.15625 Z M 201.195312 169.8125 L 202.3125 170.457031 L 202.3125 167.894531 C 202.3125 167.875 202.320312 167.855469 202.320312 167.839844 C 202.320312 167.804688 202.320312 167.769531 202.324219 167.734375 C 202.328125 167.695312 202.335938 167.660156 202.339844 167.621094 C 202.347656 167.585938 202.355469 167.546875 202.363281 167.511719 C 202.371094 167.480469 202.378906 167.449219 202.386719 167.417969 C 202.398438 167.382812 202.410156 167.347656 202.425781 167.3125 C 202.4375 167.277344 202.449219 167.242188 202.46875 167.207031 C 202.480469 167.175781 202.496094 167.144531 202.515625 167.113281 C 202.523438 167.097656 202.527344 167.082031 202.535156 167.0625 C 202.546875 167.046875 202.558594 167.035156 202.570312 167.019531 C 202.585938 166.992188 202.605469 166.960938 202.625 166.933594 C 202.648438 166.902344 202.671875 166.871094 202.695312 166.84375 C 202.71875 166.8125 202.746094 166.785156 202.769531 166.757812 C 202.792969 166.734375 202.8125 166.710938 202.835938 166.691406 C 202.863281 166.664062 202.890625 166.640625 202.921875 166.617188 C 202.953125 166.59375 202.980469 166.566406 203.011719 166.542969 C 203.042969 166.523438 203.070312 166.507812 203.101562 166.488281 C 203.113281 166.480469 203.128906 166.464844 203.144531 166.457031 L 218.675781 157.488281 L 217.558594 156.84375 L 201.195312 166.289062 Z M 208.929688 172.667969 L 205.628906 170.761719 L 205.628906 173.328125 C 205.628906 173.921875 205.3125 174.46875 204.800781 174.765625 C 204.542969 174.914062 204.257812 174.988281 203.972656 174.988281 C 203.6875 174.988281 203.398438 174.914062 203.144531 174.765625 L 198.710938 172.207031 C 198.199219 171.910156 197.882812 171.363281 197.882812 170.769531 L 197.882812 166.292969 L 194.226562 164.179688 L 194.226562 181.15625 L 208.929688 189.644531 Z M 195.882812 161.308594 L 199.539062 163.421875 L 214.242188 154.933594 L 210.585938 152.820312 Z M 210.585938 169.796875 L 225.289062 161.308594 L 221.988281 159.402344 L 207.285156 167.894531 Z M 210.585938 169.796875 " fill-opacity="1" fill-rule="nonzero"/></g><g clip-path="url(#80f67b6cd8)"><path fill="#8e99a2" d="M 294.796875 316.582031 C 280.042969 316.582031 268.042969 304.578125 268.042969 289.828125 C 268.042969 275.074219 280.042969 263.074219 294.796875 263.074219 C 309.546875 263.074219 321.546875 275.074219 321.546875 289.828125 C 321.546875 304.578125 309.546875 316.582031 294.796875 316.582031 Z M 322.265625 278.222656 C 320.761719 274.671875 318.613281 271.484375 315.875 268.746094 C 313.140625 266.007812 309.949219 263.859375 306.398438 262.359375 C 303.191406 261 299.808594 260.226562 296.324219 260.054688 L 296.324219 256.617188 L 298.140625 256.617188 C 299.089844 256.617188 299.859375 255.84375 299.859375 254.894531 L 299.859375 251.8125 C 299.859375 250.859375 299.089844 250.089844 298.140625 250.089844 L 291.453125 250.089844 C 290.5 250.089844 289.730469 250.859375 289.730469 251.8125 L 289.730469 254.894531 C 289.730469 255.84375 290.5 256.617188 291.453125 256.617188 L 293.265625 256.617188 L 293.265625 260.054688 C 289.78125 260.226562 286.398438 261 283.191406 262.359375 C 282.539062 262.636719 281.898438 262.933594 281.269531 263.253906 L 250.910156 264.773438 L 276.78125 266.070312 C 275.707031 266.886719 274.683594 267.78125 273.714844 268.746094 C 273.277344 269.1875 272.851562 269.640625 272.441406 270.101562 L 242.410156 271.605469 L 270.183594 273 C 269.15625 274.496094 268.269531 276.089844 267.527344 277.761719 L 228 279.222656 L 266.425781 280.636719 C 265.78125 282.625 265.351562 284.667969 265.140625 286.753906 L 218.074219 288.265625 L 264.984375 289.769531 C 264.984375 289.789062 264.984375 289.808594 264.984375 289.828125 C 264.984375 292.027344 265.21875 294.195312 265.6875 296.308594 L 219.773438 297.78125 L 266.515625 299.28125 C 266.757812 300.007812 267.027344 300.722656 267.328125 301.433594 C 267.585938 302.042969 267.863281 302.644531 268.160156 303.230469 L 239.894531 304.648438 L 269.84375 306.148438 C 270.816406 307.632812 271.917969 309.027344 273.148438 310.324219 L 246.695312 311.652344 L 276.199219 313.128906 C 278.324219 314.832031 280.667969 316.230469 283.191406 317.296875 C 286.867188 318.851562 290.773438 319.640625 294.796875 319.640625 C 298.820312 319.640625 302.722656 318.851562 306.398438 317.296875 C 309.949219 315.796875 313.140625 313.644531 315.875 310.90625 C 318.613281 308.171875 320.761719 304.984375 322.265625 301.433594 C 323.820312 297.753906 324.609375 293.851562 324.609375 289.828125 C 324.609375 285.804688 323.820312 281.898438 322.265625 278.222656 " fill-opacity="1" fill-rule="nonzero"/></g><path fill="#8e99a2" d="M 294.796875 286.871094 C 293.539062 286.871094 292.464844 287.664062 292.054688 288.777344 L 288.46875 289.273438 L 289.203125 292.9375 L 292.847656 291.972656 C 293.363281 292.4375 294.046875 292.71875 294.796875 292.71875 C 296.085938 292.71875 297.179688 291.882812 297.566406 290.722656 L 318.839844 285.082031 L 297.160156 288.074219 C 296.628906 287.34375 295.765625 286.871094 294.796875 286.871094 " fill-opacity="1" fill-rule="nonzero"/><path fill="#8e99a2" d="M 294.898438 269.5 C 295.367188 269.5 295.746094 269.117188 295.746094 268.648438 L 295.746094 265.25 C 295.746094 264.78125 295.367188 264.398438 294.898438 264.398438 C 294.429688 264.398438 294.046875 264.78125 294.046875 265.25 L 294.046875 268.648438 C 294.046875 269.117188 294.429688 269.5 294.898438 269.5 " fill-opacity="1" fill-rule="nonzero"/><path fill="#8e99a2" d="M 305.03125 272.269531 C 305.164062 272.347656 305.3125 272.382812 305.457031 272.382812 C 305.75 272.382812 306.035156 272.230469 306.191406 271.957031 L 307.890625 269.015625 C 308.125 268.609375 307.988281 268.089844 307.582031 267.851562 C 307.175781 267.617188 306.65625 267.757812 306.417969 268.164062 L 304.71875 271.109375 C 304.484375 271.515625 304.625 272.035156 305.03125 272.269531 " fill-opacity="1" fill-rule="nonzero"/><path fill="#8e99a2" d="M 312.421875 279.734375 C 312.578125 280.007812 312.867188 280.160156 313.160156 280.160156 C 313.300781 280.160156 313.449219 280.121094 313.582031 280.046875 L 316.527344 278.347656 C 316.933594 278.113281 317.074219 277.589844 316.835938 277.183594 C 316.601562 276.777344 316.082031 276.640625 315.675781 276.875 L 312.734375 278.574219 C 312.328125 278.808594 312.1875 279.328125 312.421875 279.734375 " fill-opacity="1" fill-rule="nonzero"/><path fill="#8e99a2" d="M 315.089844 289.894531 C 315.089844 290.363281 315.46875 290.746094 315.941406 290.746094 L 319.339844 290.746094 C 319.808594 290.746094 320.1875 290.363281 320.1875 289.894531 C 320.1875 289.425781 319.808594 289.046875 319.339844 289.046875 L 315.941406 289.046875 C 315.46875 289.046875 315.089844 289.425781 315.089844 289.894531 " fill-opacity="1" fill-rule="nonzero"/><path fill="#8e99a2" d="M 316.425781 301.417969 L 313.480469 299.71875 C 313.074219 299.484375 312.554688 299.621094 312.320312 300.027344 C 312.085938 300.433594 312.226562 300.957031 312.632812 301.191406 L 315.574219 302.890625 C 315.707031 302.964844 315.855469 303.003906 316 303.003906 C 316.292969 303.003906 316.578125 302.851562 316.734375 302.578125 C 316.972656 302.171875 316.832031 301.652344 316.425781 301.417969 " fill-opacity="1" fill-rule="nonzero"/><path fill="#8e99a2" d="M 306.015625 307.730469 C 305.78125 307.324219 305.261719 307.183594 304.855469 307.417969 C 304.449219 307.652344 304.308594 308.175781 304.542969 308.582031 L 306.242188 311.523438 C 306.398438 311.796875 306.6875 311.949219 306.980469 311.949219 C 307.125 311.949219 307.269531 311.914062 307.402344 311.835938 C 307.8125 311.601562 307.949219 311.082031 307.714844 310.675781 L 306.015625 307.730469 " fill-opacity="1" fill-rule="nonzero"/><path fill="#8e99a2" d="M 294.695312 310.085938 C 294.222656 310.085938 293.84375 310.46875 293.84375 310.9375 L 293.84375 314.335938 C 293.84375 314.804688 294.222656 315.1875 294.695312 315.1875 C 295.164062 315.1875 295.542969 314.804688 295.542969 314.335938 L 295.542969 310.9375 C 295.542969 310.46875 295.164062 310.085938 294.695312 310.085938 " fill-opacity="1" fill-rule="nonzero"/><path fill="#8e99a2" d="M 284.558594 307.316406 C 284.152344 307.082031 283.632812 307.222656 283.398438 307.628906 L 281.699219 310.574219 C 281.464844 310.980469 281.605469 311.5 282.011719 311.734375 C 282.144531 311.8125 282.289062 311.847656 282.433594 311.847656 C 282.730469 311.847656 283.015625 311.695312 283.171875 311.421875 L 284.871094 308.480469 C 285.105469 308.070312 284.964844 307.550781 284.558594 307.316406 " fill-opacity="1" fill-rule="nonzero"/><path fill="#8e99a2" d="M 276.007812 299.542969 L 273.066406 301.242188 C 272.660156 301.476562 272.519531 301.996094 272.753906 302.402344 C 272.910156 302.675781 273.195312 302.828125 273.492188 302.828125 C 273.636719 302.828125 273.78125 302.789062 273.914062 302.714844 L 276.859375 301.011719 C 277.265625 300.777344 277.402344 300.257812 277.167969 299.851562 C 276.933594 299.445312 276.414062 299.304688 276.007812 299.542969 " fill-opacity="1" fill-rule="nonzero"/><path fill="#8e99a2" d="M 274.5 289.691406 C 274.5 289.222656 274.121094 288.84375 273.652344 288.84375 L 270.253906 288.84375 C 269.78125 288.84375 269.402344 289.222656 269.402344 289.691406 C 269.402344 290.160156 269.78125 290.542969 270.253906 290.542969 L 273.652344 290.542969 C 274.121094 290.542969 274.5 290.160156 274.5 289.691406 " fill-opacity="1" fill-rule="nonzero"/><path fill="#8e99a2" d="M 276.960938 278.398438 L 274.015625 276.699219 C 273.609375 276.464844 273.089844 276.601562 272.855469 277.007812 C 272.621094 277.414062 272.761719 277.933594 273.167969 278.167969 L 276.109375 279.871094 C 276.246094 279.945312 276.390625 279.984375 276.535156 279.984375 C 276.828125 279.984375 277.113281 279.832031 277.273438 279.558594 C 277.507812 279.152344 277.367188 278.632812 276.960938 278.398438 " fill-opacity="1" fill-rule="nonzero"/><path fill="#8e99a2" d="M 283.347656 268.0625 C 283.113281 267.65625 282.59375 267.515625 282.1875 267.75 C 281.78125 267.984375 281.640625 268.507812 281.875 268.914062 L 283.578125 271.855469 C 283.734375 272.128906 284.019531 272.28125 284.3125 272.28125 C 284.457031 272.28125 284.601562 272.246094 284.738281 272.167969 C 285.144531 271.933594 285.28125 271.414062 285.046875 271.007812 L 283.347656 268.0625 " fill-opacity="1" fill-rule="nonzero"/></svg>